<?xml version="1.0" standalone="no"?>
<!DOCTYPE svg PUBLIC "-//W3C//DTD SVG 1.1//EN" "http://www.w3.org/Graphics/SVG/1.1/DTD/svg11.dtd" >
<svg xmlns="http://www.w3.org/2000/svg" xmlns:xlink="http://www.w3.org/1999/xlink" version="1.1">
<metadata></metadata>
<defs>
<font id="rubik_glitchregular" horiz-adv-x="0" >
<font-face units-per-em="1000" ascent="800" descent="-200" />
<missing-glyph horiz-adv-x="186" />
<glyph unicode="fi" horiz-adv-x="785" d="M712 594v-2q0 -5 -1 -8h24q-5 -19 -26 -19h-330q-9 0 -13 -1h-65q-18 -3 -26 -15h3q-1 -2 -2 -4.5t-1 -5.5h35l-1 -7v-12h373q5 0 8 -1h-7q4 -1 10 -5h15q7 -5 10 -15h15q1 -2 1 -6v-9h7v-5h-1v-15h-1v-5h4v-20h-12v-5h30v-15h23v-5h-21v-5h-18v-10h-2v-5h-3v-20h-7v-20 h5v-5h-3v-15h-22v-5h23v-20h6v-20h-2v-10h-10v-20h11v-10h-13v-10h10v-20h2v-10h4v-5h-47v-15h62v-15h-90v-10h85v-10h-6v-10h-2v-10h5v-10h-31v-15h20v-5h7v-5h-92v-10h50v-15h53v-5h-16v-10h17v-10h-43v-20h8v-5h9q-2 -14 -12 -20h6q-5 -4 -14 -4h-175q-9 0 -14 4h-7 q-10 6 -12 20h-9q-1 1 -1 3v2h-8v20h43v10h-17v10h16v5h-53v15h-50v10h92v5h-7v5h-20v15h31v10h-5v10h2v10h6v10h-85v10h90v15h-62v15h47v5h-4v10h-2v20h-10v10h13v10h-11v20h10v10h2v20h-6v20h-23v5h22v11h-171v-11h-20v-5h30v-20h6v-20h-23v-10h10v-20h-7v-10h-1v-10h12 v-20h2v-10h4v-5h-49v-15h-34v-15h172v-10h-84v-10h-45v-10h47v-10h33v-10h-37v-15h6v-5h-51v-5h-24v-10h67v-15h11v-5h-11v-10h40v-10h-65v-20h8v-5h5q-2 -14 -13 -20h5q-5 -4 -14 -4h-175q-9 0 -14 4h-5q-11 6 -13 20h-5v5h-8v20h65v10h-40v10h11v5h-11v15h-67v10h24v5h51 v5h-6v15h37v10h-33v10h-47v10h45v10h84v10h-172v15h34v15h49v5h-4v10h-2v20h-12v10h1v10h7v20h-10v10h23v20h-6v20h-30v5h20v11h-69q-9 0 -14 4h2q-2 1 -6 5h-5q-6 8 -6 18v2h7v20h3v5h2v10h18v5h21v5h-23v15h-30v5h12v20h-4v5h1v15h1v5h-7v9q0 4 1 6h-16q1 5 3.5 8.5 t5.5 6.5h-15q6 4 10 5h6q2 1 7 1h69v19h-35v5t1 5h-3v7.5t1 7.5h65q0 5 0.5 10.5t1.5 9.5h-24l1 10h28l2 5h3q0 4 2 10h2l3 10h81q2 2 2.5 5t1.5 5h-81q2 4 4 7.5t3 7.5h-29l9 15h34l12 15h-12q11 11 23 20h8q8 6 16.5 11t18.5 9h-21q22 9 46 15h14q26 6 54.5 8.5t58.5 2.5 h342q14 0 22 -11h-15q5 -7 5 -15h21v-20h-8v-20h11v-15h-33v-15h29v-15h81v-10h-81v-10h-2v-10h-3v-5h-28z" />
<glyph unicode="fl" horiz-adv-x="797" d="M777 414h-48v-5h84v-15h-30v-20h-36v-5h7v-15h-12v-5h-17v-15h36v-15h8v-10h7v-15h-91v-10h84v-10h-181v-15h108v-20h71v-5h-28v-15h-12v-5h26v-15h3v-5h-4v-20h3v-15h-10v-10h20v-15h-5v-5h-6v-10h19v-10h14v-15h-24v-15h11v-15h-72v-15h-2v-5h35v-10h19v-5h1v-5h-10 q-2 -13 -12 -20h42q-5 -4 -14 -4h-175q-9 0 -14 4h-43q-12 7 -12 20h9v5h-1v5h-19v10h-35v5h2v15h72v15h-11v15h24v15h-14v10h-19v10h6v5h5v15h-20v10h10v15h-3v20h4v5h-3v15h-26v5h12v15h28v5h-71v20h-108v15h181v10h-84v10h91v15h-7v10h-8v15h-36v11h-183v-11h27v-15h2 v-10h6v-15h-126v-10h43v-10h-68v-15h88v-20h66v-5h-12v-15h-2v-5h3v-15h-13v-5h16v-20h-1v-15h-4v-10h2v-15h8v-5h27v-10h-71v-10h4v-15h32v-15h-68v-15h22v-15h7v-5h46v-10h-7v-5h-3v-5h34q-2 -14 -12 -20h-53q-7 -4 -15 -4h-175q-9 0 -14 4h53q-10 6 -12 20h-35v5h3v5h7 v10h-46v5h-7v15h-22v15h68v15h-32v15h-4v10h71v10h-27v5h-8v15h-2v10h4v15h1v20h-16v5h13v15h-3v5h2v15h12v5h-66v20h-88v15h68v10h-43v10h126v15h-6v10h-2v15h-27v11h-69q-9 0 -14 4h17q-2 1 -6 5h11q-2 3 -4 7t-2 8h-7v5h36v20h30v15h-84v5h48v15h7v20h70v5h-8v20h-149v15 h50v5h28q0 3 1 5h-21q0 2 0.5 3t0.5 2h-2q7 16 24 16h69v4h-24v10h25v20h-3q0 5 0.5 10.5t0.5 9.5h20l3 20h-15q0 3 1 5h36q1 5 2.5 10.5t2.5 9.5h-13q3 9 8 20h-2q3 5 6 10.5t6 9.5h-63l12 15h39q4 4 8 7.5t8 7.5h8q2 2 4 3t3 2h-5q2 2 4 3t3 2h20q5 3 9.5 5.5t8.5 4.5h-50 q11 6 23 10h31q8 3 16.5 5.5t17.5 4.5h44q6 2 12.5 3t13.5 2h-60q41 6 87 6h73q10 0 17 -6h39q8 6 17 6h175q11 0 17 -6h55q2 -1 3 -2t2 -3h-10q4 -6 4 -10h102q0 -1 0.5 -2.5t0.5 -3.5v-4h-35v-10h-83v-5h5v-5h-26v-15h-4v-15h-86v-20h63v-20h62v-20h-27v-5h42v-20h-5v-20 h18v-20h-21v-10h-5v-20h3v-5h21v-5h-28v-5h-50v-15h149v-20h8v-5h-70v-20h-7v-15zM468 674h-40v-15h53v15h4v15h26v5h-5v5h83v10h35v10h-101q0 4 4 10h10q2 3 5 5h-34q3 -3 4 -5h-44q4 -6 5 -10h-32q1 -2 1 -6v-4h49v-10h-20v-5h5v-5h-8v-15zM520 599v20h-13v-20h13z M339 520h183v4h5v10h21v20h-18v20h5v20h-42v5h-22v-5h16v-2q0 -9 -7 -18h-20q-7 -9 -20 -9h-61q-24 0 -35 -11h4q-8 -8 -8 -20h-25v-10h24v-4z" />
<glyph unicode=" "  horiz-adv-x="186" />
<glyph unicode="&#x09;" horiz-adv-x="186" />
<glyph unicode="&#xa0;" horiz-adv-x="186" />
<glyph unicode="!" horiz-adv-x="330" d="M51 339h2v5h-5v20h-13v15h20v5h-4v15h-11v5h39v20h-34v5h5v5h4v15h-6v20h3v15h2v15h-20v10h18v5h-7v20h15v10h-8v15h-20v5h25v20h-66v15h60v15h-27v20h-26v10h57v10h22v15h-4v5h-51q0 8 5 15h7q8 11 22 11h174q15 0 21 -11h-6q5 -7 5 -15h51v-5h4v-15h-22v-10h-57v-10h26 v-20h27v-15h-60v-15h66v-20h-25v-5h20v-15h8v-10h-15v-20h7v-5h-18v-10h20v-15h-2v-15h-3v-20h6v-15h-4v-5h-5v-5h34v-20h-39v-5h11v-15h4v-5h-20v-15h13v-20h5v-5h-2v-5h-2v-5h-36v-5h6v-5h25v-20h7v-5h8v-5h-20q-1 -9 -9 -15h25q-6 -6 -17 -6h-174q-9 0 -17 6h-25 q-7 6 -9 15h19q0 2 -0.5 3t-0.5 2h-8v5h-7v20h-25v5h-6v5h36v5h2v5zM258 49h55v-5h-33v-5h-1v-12q0 -5 -1 -8q-2 -4 -2 -5h1q-1 -2 -4 -5h-9q-4 -4 -6 -5h8q-7 -4 -15 -4h-174q-9 0 -14 4h-7q-4 1 -6 5h9q-3 3 -4 5h-1l-2 5q-1 3 -1 8v12h1v5h33v5h-55v10h17v20h7v10h9v10 h-20v15h-25v5h42v5h-9v10h-8v10h27v15h-16v20h-5v15h-1v5h22v2q0 9 7 18h-11q8 9 20 9h174q14 0 21 -9h10q7 -7 7 -18v-2h-22v-5h1v-15h5v-20h16v-15h-27v-10h8v-10h9v-5h-42v-5h25v-15h20v-10h-9v-10h-7v-20h-17v-10z" />
<glyph unicode="&#x22;" horiz-adv-x="519" d="M183 669l-1 -10h61v-5h-8l-2 -15h-6l-1 -5h16l-1 -10h-12l-1 -10h-10l-1 -10h-6l-2 -15h19v-5h-4l-3 -30h-1l-1 -5h-10l-1 -5h-17l-1 -5h29l-2 -15h1l-1 -10h-13l-2 -20h18l-2 -20h7l-2 -15h14l-2 -19v-1h5q0 -1 -0.5 -2t-0.5 -3h-40l-3 -10h5q-5 -12 -20 -15h3 q-2 -1 -5 -1h-5h-82q-8 0 -11 1h-2q-8 2 -13 6t-8 9h-6l-3 10h40q0 2 -0.5 3t-0.5 2h-5v1l-2 19h-14l-2 15h-7l-3 20h-17l-3 20h12l-1 10l-2 15h-28l-1 5h17v5h10l-1 5h2l-1 10h-1l-2 20h4l-1 5h-19l-2 15h6l-1 10h10l-1 10h11l-1 10h-16v5h6l-2 15h8v5h-62l-1 10h-10l-1 5 q0 3 -0.5 5.5t0.5 4.5h3q1 3 1.5 5.5t1.5 4.5h57q6 16 25 16h152q20 0 26 -16h-58q2 -6 2 -10h-4q1 -4 0 -10l-1 -5h11zM466 639h49l-1 -5h-7l-1 -10h-26l-1 -10h-6l-1 -10h13l-1 -15h-26l-1 -5h20l-2 -20h3l-1 -10h-4v-5l-1 -5h-11l-1 -5h15l-2 -15h4l-1 -10h-6l-2 -20h1 l-2 -20h37l-2 -15h-37l-2 -19v-1h-6q-1 -2 -1 -5h33q-1 -2 -1.5 -5t-2.5 -5h-24q-5 -12 -20 -15h-2q-3 -1 -11 -1h-82h-5t-5 1h2q-13 3 -20 15h24l-3 10h-33q0 2 -0.5 3t-0.5 2h6v1l-2 19h37l-2 15h-37l-2 20h-1l-3 20h5l-1 10h-3l-2 15h-14l-1 5h11v5l-1 5h4l-2 10h-3 l-2 20h-20v5h25l-2 15h-13l-1 10h6l-2 10h26l-1 10h7v5h-49l-2 15h21l-1 5h-3l-1 10h-46l-1 5q0 3 -0.5 5.5t0.5 4.5q0 4 2 10h64q6 16 25 16h152q20 0 25 -16h-64q3 -10 2 -20l-1 -5h47l-1 -10h3l-1 -5h-20z" />
<glyph unicode="#" horiz-adv-x="677" d="M674 239h-107v-20h46v-15h-34v-5h59v-10h-64v-10h54v-10h1v-8q0 -6 -3 -12h-18q-6 -13 -22 -13h-84l-1 -7h-12l-2 -15h-15l-1 -10h42l-2 -15h-48l-1 -5h-9l-3 -20h-17v-4v-0.5t-1 -0.5h112q-1 -8 -8 -14t-17 -6h-116q-8 0 -14.5 6t-7.5 14h-142q-2 -8 -9 -14t-16 -6h-116 q-9 0 -16 6t-6 14h68v5h-112l3 20h-1v5h48l2 15h15l2 10h9l3 15h-2l1 7h-47q-15 0 -22 13h18q-3 6 -3 12v8h-1v10h-54v10h64v10h-59v5h34v15h-46v20h107v15h-69v20h61v5q0 10 5 15h-145q8 10 20 10h72l2 10h83l1 5h-8l2 15h-17l1 10h-48l2 15h55l2 10h13l2 10h59l1 11h-59 q-8 0 -13 4h-33q-8 5 -10 15h1q-1 2 -1 6v14h-5v5h-23v15h3v15h10v5h-1v5h17v20h-27v15h22v5h-3v20h26q0 2 0.5 3t0.5 2q3 19 24 19h84v1h-29l1 5h-14l3 20h9l3 15h-1l1 10h-18l3 20h-20l1 5q2 6 4 10h32q7 11 20 11h116q13 0 19 -11h-32q3 -4 3 -11v-4h20l-3 -20h18l-2 -10 h1l-2 -15h-9l-3 -20h14l-1 -5h29v-1h64v1h-40l1 5h5l3 20h-4l2 15h-1l2 10h31l3 20h-14l1 5q2 6 4 10h-12q7 11 20 11h116q13 0 19 -11h12q3 -4 3 -11v-4h13l-2 -20h-32l-1 -10l-2 -15h5l-3 -20h-5l-1 -5h40v-1h47q21 0 24 -19h1v-5h-26v-20h3v-5h-22v-15h27v-20h-17v-5h1 v-5h-10v-15h-3v-15h23v-5h5v-14q0 -4 -1 -6h-1q-2 -10 -10 -15h32q-5 -4 -14 -4h-72l-1 -11h17l-2 -10h-64l-2 -10h25l-2 -15h-58l-1 -10h30l-3 -15h3v-5h-90l-2 -10h59q13 0 20 -10h145q5 -7 5 -15v-5h-61v-20h69v-15zM273 334h17l-2 -15h8l-1 -5h71v5h-3l3 15h-30l1 10h58 l2 15h-25l2 10h64l2 10h-17l1 11h-64l-1 -11h-59l-2 -10h-13l-2 -10h-55l-2 -15h48zM276 314h-64l-2 -10h64zM326 129h12l1 7h-64l-1 -7h2l-2 -15h-10l-2 -10h-15l-2 -15h-47l-1 -5h1l-3 -20h91l3 20h10l1 5h48l2 15h-43l2 10h15z" />
<glyph unicode="$" horiz-adv-x="711" d="M734 174h-145l-3 -10h83q-1 -4 -2 -7.5t-3 -7.5h43q-2 -5 -4.5 -10t-5.5 -10h-42l-6 -10l-6 -10h21l-12 -15h-31l-9 -10h32q-5 -5 -10.5 -10t-11.5 -10h17q-3 -2 -6.5 -5t-7.5 -5h-54l-24 -15h92q-4 -3 -9 -5.5t-10 -4.5h-85q-6 -3 -12 -5.5t-12 -4.5h5q-7 -3 -14.5 -5.5 t-15.5 -4.5h8q-25 -7 -54 -12v-8h-23v-20h32v-20h-86v-20h-1v-2q0 -9 -7 -18h104q-4 -4 -6 -5h18q-7 -4 -15 -4h-121q-9 0 -14 4h-17q-4 1 -6 5h-104q-7 9 -7 18v2h1v20h86v20h-32v20h23v7q-16 2 -31.5 5.5t-29.5 7.5h-9q-7 2 -14.5 4.5t-14.5 5.5h-5q-6 2 -12 4.5t-11 5.5 h84l-19 10h-92q-7 4 -12.5 7.5t-11.5 7.5h55q-4 2 -7 5t-6 5h-17q-11 8 -21 20h-33q-2 2 -4 5t-4 5h31q-3 4 -6 7.5t-5 7.5h-22l-6 10t-5 10h42l-4 10l-4 10h-44q-1 4 -2 7.5t-2 7.5h-83q-2 6 -2 10h145q-1 2 -1 5t-1 5h-164q-1 5 -1 10v9v1h115q2 10 7 15h-94q6 6 15 6h190 q17 0 27 -6h95q4 -2 7.5 -4.5t7.5 -6.5l6 -4h-116q14 -9 30.5 -14t38.5 -5q58 0 72 19h12q2 6 2 9v6h93q-3 10 -12 15h9q-18 11 -74 20h-5q-7 2 -16 3l-18 2h-15l-7 1q-25 3 -47.5 8t-42.5 11h-2q-22 6 -41 15h4q-10 5 -19.5 10t-18.5 10h25q-4 2 -7.5 5t-6.5 5h8l-6 5h5 l-6 5h8l-15 15h42q-1 2 -2 3l-2 2h-72q-4 4 -8 10h-33q-4 5 -7 10l-6 10h44l-9 20h-21l-6 20h3l-2 10l-2 10h-8q-1 2 -1 5t-1 5h16q-1 4 -1 7.5v7.5h13v20h4q1 4 1 7.5t1 7.5h-24q1 2 1 5t1 5h62q0 4 2 10h-12l5 20h-72q2 4 2 5h-3q0 1 2 5h28l4 10h15l8 15h-3q2 4 4.5 7.5 t4.5 7.5h48q2 4 5 7.5t6 7.5h-91q3 4 6.5 7.5l7.5 7.5h39q2 2 4.5 5t5.5 5h17q5 4 9.5 7.5t9.5 7.5h-14q3 2 6.5 5t7.5 5h-18q7 4 14 7.5t14 7.5h6q2 2 5 3l6 2h-25q30 13 62 20h-14l19 4v11h15v15h29v10h-7v20h11v5h-8v5h-1v5h3q0 4 2 10h-5q1 3 3 5.5t4 4.5h3q6 6 17 6 h121q10 0 17 -6h-2q4 -4 7 -10h5q3 -4 3 -10h-3v-5h1v-5h8v-5h-11v-20h7v-10h-29v-15h-15v-14q2 0 3 -0.5t2 -0.5h14q17 -4 33 -9t30 -11h25q2 -1 5 -2t6 -3h-6q8 -4 14.5 -7.5t13.5 -7.5h18q5 -2 8.5 -5t7.5 -5h15q5 -4 10.5 -7.5t9.5 -7.5h-17q3 -2 6 -5l5 -5h-38l15 -15 h90q4 -4 7 -7.5t6 -7.5h-47l10 -15h4l9 -15h-16q3 -5 5 -10h-28q2 -4 2 -5h4q0 -1 2 -5h72l6 -20h11q2 -6 2 -10h-75q1 -2 1 -5v-5h-4v-1q0 -7 -5 -14h-40q-6 -8 -16 -8h-200q-10 0 -17 2t-13 6h40q-3 2 -5.5 4t-4.5 4l-10 7h4q-5 3 -12.5 6t-16.5 4h-17q-18 -3 -25 -10h23 q-5 -5 -7 -15h-4v-2q0 -12 10 -18h-14q10 -7 40 -15h-15q11 -3 26.5 -5.5t34.5 -4.5h8q30 -4 57 -9t49 -11h-3q17 -4 31 -9t26 -11h21q11 -4 20 -9.5t17 -10.5h-44q7 -4 13 -9.5t12 -10.5h33l9 -10h73q1 -2 4 -5h-43q3 -4 6 -7.5t5 -7.5h-8l3 -5h-5l2 -5h-8q2 -2 3 -5t2 -5 h-25q2 -4 4 -9.5t3 -10.5h-3l3 -15h2l3 -20h14q0 -1 0.5 -2t0.5 -3h5q1 -4 1 -9.5v-10.5h-9v-15h-94v-7.5t-1 -7.5h-11l-3 -20h164zM393 514h30q-3 1 -6.5 1h-7.5h-8t-8 -1z" />
<glyph unicode="%" horiz-adv-x="846" d="M80 374q-12 9 -23 20h10q-4 4 -8 10h-1l-7 10h-6q-3 5 -5.5 10t-4.5 10h2l-3 10h-17q0 2 -0.5 3t-0.5 2h46q0 3 -1 5h-45q0 3 -1 5h9q0 3 -1 5h33l-1 10h-31v2q-1 5 -1 9.5t-1 8.5h5q-1 2 -1 5v5v15h-4v20h-20l1 10h16v5h7v10h13v9q1 2 1 6h-49l3 15h40q1 4 2 7.5t2 7.5 h48q1 4 2.5 7.5t2.5 7.5h5q2 5 5 10h-31q3 5 6.5 10.5t7.5 9.5h-27l10.5 10.5t11.5 9.5h3q4 3 7.5 5.5t7.5 4.5h-1q19 9 40 15h-2q24 6 54 6t54 -6h2q21 -6 40 -15h2q4 -2 7.5 -4.5t7.5 -5.5h-2q11 -8 21 -20h26q5 -4 8 -9.5t6 -10.5h31q2 -2 3 -5t2 -5h-4q2 -4 3 -7.5 t2 -7.5h-48q2 -4 2.5 -7.5t1.5 -7.5h-4l3 -15h12v-6q0 -2 0.5 -4.5t0.5 -4.5h-25v-10h13v-5h-10q1 -2 1 -5v-5h-9v-20h10v-15h15v-5t-1 -5h-16q0 -4 -0.5 -8.5t-0.5 -9.5q0 -1 -0.5 -1t-0.5 -1h-5l-1 -10h16q-1 -2 -1 -5h-57q-1 -2 -1 -5h87q-1 -2 -1 -5h-47q-1 -2 -1 -5h16 l-3 -10h-2q-2 -5 -4.5 -10t-5.5 -10h6l-6 -10q-4 -6 -8 -10h-10q-9 -11 -23 -20h5q-4 -3 -8 -5.5t-9 -4.5h-12q-6 -3 -12.5 -5.5t-12.5 -4.5h7q-4 -1 -9.5 -2.5t-10.5 -2.5h-77q-10 -2 -21 -3t-22 -1t-22 1t-21 3h77q-5 1 -10 2.5t-10 2.5h-7q-15 5 -25 10h12q-4 2 -8.5 4.5 t-8.5 5.5h-5zM483 209l-15 -20h-48l-8 -10h-23l-11 -15h-8l-4 -5h-43l-4 -5h59l-16 -20h-13l-8 -10h-8l-15 -20h28l-3 -5h20l-7 -10h-45l-16 -20h-3l-11 -15h-5l-8 -10h17l-15 -20h-22l-4 -5q-1 -2 -4 -5h-20q-6 -7 -13 -10.5t-19 -3.5h-104q-20 0 -23 14h20q0 2 -0.5 3.5 t-0.5 2.5t0.5 2t0.5 2h22q0 4 3 7l10 13h-17l8 10h4l12 15h3l16 20h45l7 10h-21l4 5h-29l16 20h8l8 10h13l15 20h-58l4 5h43l3 5h8l12 15h23l8 10h48l15 20h-115l4 5h77l7 10h-28l15 20h-15l12 15h-12l15 20h10l8 10h-2l16 20h-1l15 20h2l16 20h-10l4 5h11l8 10h-5l8 10h-10 l15 20h10l8 10h-1l8 10h7l15 20h18l7 10h-29l4 5h-4l4 5h27l4 5h-14l4 5h25l8 10h-24l15 20h21l7 10h-30l12 15h-24l15 20h29l8 10h-1l3 5h1l7 10h-15l11 15h-6l11 15h7l11 15h12l11 15l8 10h11l15 20h-8l16 20h2l6 7l2 3h1q9 12 22 15h-8q3 1 11 1h104q5 0 8 -1h9 q13 -3 15 -15h-1q1 -1 1 -4l-2 -6h-2l-3 -5l-11 -15h8l-16 -20h-11l-7 -10h-1l-11 -15h-11l-12 -15h-7l-11 -15h6l-11 -15h15l-7 -10l-4 -5h1l-8 -10h-28l-16 -20h24l-12 -15h31l-8 -10h-21l-15 -20h24l-7 -10h-26l-4 -5h14l-3 -5h-28l-4 -5h4l-4 -5h29l-7 -10h-18l-15 -20 h-7l-8 -10h1l-8 -10h-10l-15 -20h10l-8 -10h5l-7 -10h-12l-4 -5h10l-16 -20h-1l-16 -20h1l-16 -20h2l-8 -10h-10l-15 -20h12l-11 -15h14l-15 -20h28l-7 -10h-77l-3 -5h114zM161 483q0 -6 1 -9h31q1 -2 1.5 -3.5t1.5 -3.5q1 2 1 3.5t1 3.5h5q1 2 1 4.5t1 4.5v11h17v10h-14v15 h-10v20h9q-1 2 -1 5v5h10v5h-13l-1 10h25v2q0 4 -0.5 7t-1.5 6h-12q-5 11 -13 15h4q-6 2 -11 2q-4 0 -10 -2h-40q-8 -4 -13 -15h49q-1 -3 -1.5 -6t-1.5 -7v-2h-12q-1 -2 -1 -5v-5h-7v-5h-16v-10h20q-1 -5 -1 -10v-10h5v-25h-4q0 -7 1 -11zM164 464q2 -4 4 -5h38q2 1 4 5h-46 zM220 453q5 0 8 1h-15q2 -1 7 -1zM882 179h-117v-15h55v-5h-8v-5h4v-9.5t-1 -10.5h-7q0 -2 -0.5 -4t-0.5 -4v-2h-16q-1 -5 -1.5 -10t-2.5 -10h-3l-2 -5h92l-3 -10h-31l-4 -10t-5 -10h-11q-2 -4 -4.5 -7.5t-5.5 -7.5h-23l-9 -10h-19q-9 -11 -23 -20q-4 -3 -8 -5.5t-9 -4.5h22 q-19 -10 -45 -15h33q-10 -2 -21 -3t-22 -1t-22 1t-21 3h-33q-24 5 -45 15h-22q-8 4 -17 10q-12 9 -23 20h19q-2 2 -4 5t-4 5h24q-3 4 -5.5 7.5t-4.5 7.5h12q-6 9 -9 20h31l-3 10h-92q0 2 -0.5 3t-0.5 2h21l-3 20h-24v10h20q0 5 -0.5 10.5t-0.5 9.5h6v5h7v5h6v15h38q1 2 1 5 v5h-1v10t1 10h-40v5h43q0 6 1 9v1h-46q0 5 0.5 10.5t1.5 9.5h5q1 4 2 7.5t2 7.5h-1q2 5 3.5 10.5t4.5 9.5h-9l3 5h5l3 5h-2q7 12 15 20h2q9 11 25 20h-9q22 14 49 20h-1q8 2 15.5 3t15.5 2h-1q5 1 11 1h12h12t11 -1h1l16 -2t15 -3h1q27 -6 49 -20h8q7 -4 13 -9t11 -11h-2 q8 -8 15 -20h2l3 -5h-5q2 -4 2 -5h9q5 -11 8 -20h1q2 -4 2.5 -7.5t1.5 -7.5h-6q2 -4 2 -9.5t1 -10.5h-3v-1q0 -2 0.5 -4.5t0.5 -4.5h-32q0 -3 1 -5h62q0 -5 0.5 -10t0.5 -10h34v-10zM646 244q-9 -4 -13 -20h47q-4 16 -14 20h6q-6 2 -11 2q-4 0 -10 -2h-5zM634 214v-5h13v5 h-13zM674 179h71v10h-34q0 5 -0.5 10.5t-0.5 9.5h-36q0 -4 -0.5 -9.5t-0.5 -10.5h1v-10zM682 159v5h-52v-5h-7v-5h-6v-10t1 -10h-21v-1q1 -2 1 -4.5t1 -4.5h23q3 -14 15 -20q12 6 15 20h17q1 3 1 9v1h7q1 5 1 10t1 10h-5v5h8zM617 104q3 -1 8 -1t7 1h-15z" />
<glyph unicode="&#x26;" horiz-adv-x="783" d="M782 24q2 -4 2 -7q0 -8 -7 -13h-34q-6 -4 -11 -4h-204q-1 0 -2 -0.5t-3 -0.5h14q-7 -1 -14 -2.5t-14 -2.5h-67q-16 -2 -34 -3t-37 -1q-17 0 -33.5 1t-32.5 3h67q-8 1 -15.5 2.5t-15.5 2.5h-13q-5 1 -10.5 2.5t-10.5 2.5h-75q-15 4 -28 9t-26 11h-48q-12 5 -18 10l-15 10 h-1l-18 15h14q-2 2 -4.5 5t-5.5 5h-1q-7 8 -12 15h24q-4 5 -7 10l-6 10h3q-1 4 -3 7.5t-4 7.5h-10l-6 15h-19q-1 4 -2 7.5t-2 7.5h-5q0 3 -1 5h46l-3 20h-57q-1 2 -1 5h8q0 5 -0.5 10t-0.5 10h-24v15h19v7.5t1 7.5h-25q0 4 0.5 7.5t1.5 7.5h4q0 4 2 10h33q1 2 2 5t2 5h-14 l2 5h19l4 10h2q2 5 4.5 10.5t5.5 9.5h-2q3 5 6.5 10.5t7.5 9.5h-1q2 2 4 5t4 5h-7q9 11 20 20h8q6 5 12.5 10.5t13.5 9.5h-36q5 4 11 7.5t12 7.5h92l12 7q-1 2 -3 4l-4 4h-70q-1 2 -4 5h14q-3 3 -4 5h14q-1 2 -4 5h-66l-10 15l-6 10t-5 10h-24l-4 10l-4 10h40l-3 10h18 q0 2 -0.5 3t-0.5 2q0 3 -1 5h-7l-3 15h12q0 2 -0.5 3t-0.5 2h11q0 4 -0.5 7.5t-0.5 7.5q0 3 1 5h32v7.5t1 7.5h-63q0 4 0.5 7.5t1.5 7.5h-13q1 5 2.5 10t2.5 10h37l6 15h-5q2 2 3 5t2 5h-105l6 10h-10q6 10 14 20h55q3 4 6.5 7.5l7.5 7.5h67q10 10 25 20h5q9 6 19 11t21 9h1 q24 9 54 15h9q33 6 72 6q35 0 65 -6h-9q14 -3 26 -6.5t24 -8.5h-2q11 -4 20 -9t17 -11h-5q15 -10 25 -20h-66q4 -4 7 -7.5t6 -7.5h-55q5 -4 8 -9.5t7 -10.5h10q3 -5 5 -10h105q2 -2 3 -5t2 -5h5q2 -4 3 -7.5t2 -7.5h-37l5 -20h13q1 -4 1.5 -7.5t0.5 -7.5h-14v-15h51v-10 t-1 -10h-6q0 -1 -0.5 -2t-0.5 -3h34l-3 -15h-62q-1 -2 -1 -5h30q0 -1 -0.5 -2t-0.5 -3h-36q-1 -2 -1.5 -5t-2.5 -5h-40q-1 -5 -4 -10t-5 -10h23l-6 -10t-7 -10q-3 -4 -6 -7.5t-7 -7.5h66l-2 -2l-3 -3h-14q-1 -1 -2.5 -2t-2.5 -3h-14l-5 -5h69q-7 -7 -18 -15h-92 q-9 -7 -21 -15h36l-27 -17l3 -3h-8l19 -20h7l10 -10h1l19 -20h3l19 -20h-2l5 -5l1.5 1.5t2.5 3.5h-2l15 20h2q3 5 6 9.5t6 10.5h-28q2 2 3.5 4.5t2.5 5.5h33q2 5 5 10t5 10h-7l3 7q4 10 20 10h151q18 0 18 -17h7v-1q0 -10 -4 -19h-33q-1 -2 -1.5 -5t-2.5 -5h28 q-3 -10 -9 -20h-3l-11 -20h3l-6 -10h-19l-3 -5h13l-6 -10h26l-7 -10h-7l-11 -15h11l-11 -15h-18q-3 -4 -6 -7.5t-5 -7.5h-24l-8 -10l-8 -10h-10l-5 -5h68q-4 -5 -8.5 -10t-8.5 -9l1 -1h-46l4 -5h5l15 -15h19l14 -15h11l14 -15h-3l19 -20h-24l15 -15h1l10 -10h-14l14 -15h1 l13 -13q4 -4 5 -7h26zM316 557q-16 0 -29 -13h58q-10 13 -29 13zM310 484q1 -2 4 -5h-19l7 -7q4 2 7.5 4t6.5 3h36q2 2 4.5 3t3.5 2h-30q2 2 4 3t3 2h62q8 7 13 15h-33q0 1 2 5h6q1 3 1.5 6t0.5 6q0 5 -1 8h-77q-2 -6 -2 -9t2 -11h-11l2 -5h-11q2 -4 4 -7.5t4 -7.5h7 q3 -3 4 -5zM246 179l2 -2t2 -3h58q19 -17 42 -17q20 0 34.5 2.5t25.5 9.5l-5 5h-67l-5 5h11l-20 20h24l-15 15h18l-14 15h-11l-14 15h7l-10 10h-26l-6 6l-9 -6h-33q-6 -4 -10 -10h-4q-2 -4 -4 -7.5t-4 -7.5h25q-1 -4 -2 -7.5t-1 -7.5h-18v-2q0 -4 0.5 -7t1.5 -6h24 q3 -10 11 -20h-8zM483 34q-9 -6 -17 -10h28zM545 4q-6 4 -8 6l-16 14h-6q-12 -7 -24 -11.5t-24 -8.5h78z" />
<glyph unicode="'" horiz-adv-x="264" d="M210 459h-18l-1 -5h42l-1 -10h-13v-4q-1 -3 -1 -5.5t-2 -5.5h-20q-3 -10 -10 -15h5q-6 -4 -12 -5h5q-3 -1 -10 -1h-82q-7 0 -10 1h-6q-6 1 -11 5h-6q-7 5 -10 15h20q-1 3 -1.5 5.5t-0.5 5.5l-1 4h13l-1 10h-42l-1 5h19l-3 20h9l-2 20h26l-2 10h-21l-3 20h9l-1 10h-13 l-1 5h-7l-2 20h-2l-1 10h2l-2 15h-74l-2 20h89l-1 5h-31l-2 10h-16l-1 10h3l-2 20h-9l-1 5h-12l-2 15q0 2 -0.5 3t-0.5 2v5q1 2 1 5h45q3 9 9 15h-46q6 6 18 6h152q11 0 18 -6h46q4 -3 6 -6.5t3 -8.5h-45q0 -3 0.5 -6.5t-0.5 -8.5l-2 -15h13l-1 -5h9l-2 -20h-3l-1 -10h16 l-1 -10h32l-1 -5h-89l-3 -20h74l-1 -15h-2l-1 -10h1l-2 -20h7v-5h13l-1 -10h-9l-3 -20h22l-1 -10h-26l-2 -20h-8z" />
<glyph unicode="(" horiz-adv-x="423" d="M348 776q23 0 26 -22h-153q57 22 127 22zM431 739h100v-20h-15v-5h-114v-5h84v-20h-112v-10h39v-20h-37v-15h21v-10h32v-15h-28q-2 -14 -14 -20h3q-3 -1 -6 -2.5t-7 -1.5q-2 0 -4 -0.5t-4 -0.5h-20q-27 -4 -49 -20h41q-8 -5 -16 -15h8l-5 -5h-107q-3 -4 -6 -7.5t-5 -7.5 h113q-7 -10 -11 -20h-54q-2 -4 -2 -5h9q-2 -4 -4 -9.5t-4 -10.5h-8l-6 -20q-1 -4 -2 -9.5t-3 -10.5h9q-1 -2 -1 -5t-1 -5h11q-1 -4 -1 -7.5t-1 -7.5h6q-1 -2 -1 -5t-1 -5h-1l-3 -20h-3q0 -5 -0.5 -10t-1.5 -10h-16v-5h14q-1 -5 -1 -10v-10h7v-10h-14v-15h1v-5h-11v-10h12 v-10h11v-5h11v-15h-39q0 -5 0.5 -10t0.5 -10h75q0 -4 0.5 -7.5t0.5 -7.5h-48l2 -20h-125q1 -2 1 -5v-5h160v-5h-34v-5h-34q0 -4 0.5 -7.5t1.5 -7.5h15l3 -15h4q0 -3 1 -5h-6l2 -10l2 -10h1q2 -5 3 -10l2 -10h9q1 -4 2 -7.5t2 -7.5q3 -9 8 -20q4 -10 11 -20h-1q4 -5 7.5 -10 t7.5 -10h1q7 -8 17 -15h-8q20 -16 45 -20h13q8 -2 13 -2q11 0 19 -8h-5q2 -1 4 -5h1q4 -5 4 -14v-1h4v-15h2v-20h-7v-10h-19v-10h35v-15h-26v-5h5v-5h-16v-20h65v-15h-87v-11q0 -6 -1 -9h32q-5 -11 -13 -15h5q-6 -3 -13 -3q-25 0 -49 3h-5q-34 5 -66 15h-32q-12 4 -23.5 9 t-22.5 11h87l-25 15h-65q-7 5 -13 10t-13 10h16l-6 5h-4l-5 5h25l-14 15h-35l-9 10h19q-2 2 -4 5t-4 5h7q-4 5 -7 10t-7 10h-2l-3 5l-2.5 5t-3.5 5h-4q-1 4 -3.5 7.5t-4.5 7.5h-1l-2 5h5q-3 5 -5 10h-13l-9 20h8l-6 15h-1q-4 9 -7 20h1l-6 20q-1 5 -2.5 10t-3.5 10h1l-3 15 h-8l-2 10l-2 10h-1l-3 20h6q-1 2 -1 5h-4q-1 4 -1 7.5t-1 7.5h-16q-1 4 -1 7.5t-1 7.5h35v5h34q0 3 -1 5h-159v5t-1 5h125l-2 20h48q0 4 -0.5 7.5t-0.5 7.5h-75q0 5 -0.5 10t-0.5 10h39v15h-11v5h-11v10h-12v10h11v5h-1v15h14v10h-7v10t1 10h-14v5h16l2 20h3q1 5 1.5 10 t0.5 10h2v5t1 5h-6q1 4 1 7.5t1 7.5h-11l1 10h-8l3 20l2 10l2 10h9l2 10l2 10h-9q1 2 1 5h54l6 20h-113q2 4 3 7.5t2 7.5h108q0 2 0.5 3t0.5 2h-8l6 15h-41q3 9 8 20h20l3 5h-3q2 5 5 10.5t5 9.5h28l9 15h-32q2 2 3.5 5t3.5 5h-21l11 15h37q8 11 17 20h-40q2 2 4.5 5t5.5 5 h112l10.5 10.5t11.5 9.5h-84l6 5h115l6 5h15q16 12 32 20h-100q3 2 5.5 3t4.5 2h98q5 3 11 5.5t12 4.5h153q1 -2 1 -5v-5h-98v-5z" />
<glyph unicode=")" horiz-adv-x="423" d="M423 -11h-122q-3 -3 -4 -5h44l-6 -10h-57l-10 -15h73l-12 -15h58q-3 -4 -6.5 -7.5l-7.5 -7.5h-99l-7.5 -7.5t-8.5 -7.5h129l-12 -10h-80q-1 -1 -3 -2t-4 -3h9l-23 -15h-42q-4 -3 -8.5 -5.5t-9.5 -4.5h-13q-18 -9 -36 -15h-6q-9 -3 -18 -5.5t-18 -4.5h-11 q-7 -1 -14.5 -2.5t-15.5 -2.5h23q-24 -3 -50 -3q-6 0 -12 3h-23q-3 1 -7 5h11q-5 5 -6 10h6q-2 6 -2 9v6h13v10h42v15h-9v5h80v10h-128v15h99v15h-59v15h-73v15h56v10h-43v5h122v6q0 6 1 9h-87q1 5 6 10h21q8 8 19 8q12 1 22.5 4.5t19.5 7.5h-28q4 2 8 4.5t8 5.5h-7l6 5h4 q5 4 8 7.5t7 7.5h4q8 10 14 20h-19q3 5 5.5 10t4.5 10h15q5 11 8 20h-2l3 10h-3q2 6 2 10h4l3 10h-2q1 2 1 5h18q2 4 2.5 7.5t1.5 7.5h15q1 4 1 7.5t1 7.5h-30q1 4 1 7.5t1 7.5h-25q1 5 1.5 10t0.5 10h10v5h13l1 10h1q0 5 0.5 10t0.5 10h-5q1 2 1 5h-13l1 10h23v10h-3v10h6 v20h-9v15h-6v7.5t-1 7.5h6l-1 10h-11q0 5 -0.5 10t-0.5 10h12q0 4 -0.5 7.5t-0.5 7.5h-8l-3 20h26q-1 4 -1.5 7.5t-0.5 7.5h-18q0 2 -0.5 3t-0.5 2h-20l-3 20h9q-1 2 -1 5h37q-1 5 -2 10.5t-3 9.5h-20q0 2 -0.5 3t-0.5 2h4q-1 4 -2 7.5t-2 7.5h-19l-4 10h9q-1 4 -3 7.5 t-4 7.5h-3q-4 10 -11 20h3l-3 5q-4 8 -12 15h-1q-1 2 -2.5 3t-2.5 2q-3 3 -6 5.5t-6 4.5h2q-22 16 -49 20h3q-1 0 -3.5 0.5t-4.5 0.5q-17 2 -23 14h-5q-2 4 -2 5h-9q-1 2 -1 5h9v15h7v5h-11v5h19v15h-16v10h2v20h6v10h-7v5h-46v15h24v15h22v10h-4v5q0 2 0.5 3t0.5 2h23 q0 3 1 5h-12q1 3 3 5.5t4 4.5h-36q9 7 18 7q20 0 38.5 -1.5t36.5 -5.5h35q21 -5 39 -10h12q4 -1 7.5 -2t6.5 -3h-23q6 -2 12 -4.5t11 -5.5h4q5 -2 10 -4.5t9 -5.5h-22q6 -4 12 -7.5t11 -7.5h-24q5 -4 10 -7.5t9 -7.5h46l6 -5h6q3 -2 5.5 -5t5.5 -5h-6q10 -8 18 -20h-2 q2 -2 4 -5t4 -5h17q2 -4 5 -7.5t6 -7.5h-20l3 -5h11l3 -5h-6l9 -15h-10l3 -5h9l2 -5h5l8 -15h-4q3 -4 5 -9.5t4 -10.5h-2q2 -2 2.5 -5t1.5 -5l2 -5h2q1 -4 2.5 -7.5t2.5 -7.5h-1l2 -5h-3l6 -20h3q1 -4 2 -7.5t2 -7.5h-9l3 -10h18q1 -4 2 -7.5t2 -7.5h-5q0 -1 0.5 -2t0.5 -3 h20l2 -10l2 -10h-38q1 -2 1 -5h-9l3 -20h20v-5h18q1 -4 1.5 -7.5t0.5 -7.5h-25l2 -20h8q0 -4 0.5 -7.5t0.5 -7.5h-12q0 -5 0.5 -10t0.5 -10h11l1 -10h-6q1 -4 1 -7.5v-7.5h6v-15h9v-20h-6v-10h3v-10h-23l-1 -10h13q0 -3 -1 -5h5q0 -5 -0.5 -10t-0.5 -10h-1v-5t-1 -5h-13v-5 h-10q0 -5 -0.5 -10t-1.5 -10h25q0 -4 -0.5 -7.5t-0.5 -7.5h30q-1 -4 -1 -7.5t-1 -7.5h-15l-3 -15h-18q0 -3 -1 -5h2q-2 -6 -2 -10h-4q0 -4 -2 -10h3q0 -4 -2 -10h3q-1 -5 -2.5 -10t-2.5 -10h-15l-6 -20h19q-3 -11 -7 -20h-4l-6 -15h-4l-2 -5h7q-1 -2 -2 -5t-3 -5h29l-9 -20 h-21q-3 -5 -5 -10h87q-1 -4 -3.5 -7.5t-4.5 -7.5z" />
<glyph unicode="*" horiz-adv-x="444" d="M395 539h19q-2 -17 -16 -20l-7 -2l-73 -2l15 -11h-2l13 -10h2l20 -15h-2l11 -8q5 -5 5 -6v-1h-17l3 -10h9q0 -13 -9 -19l-1 -1h9l-7 -5h3l-27 -20l-6 -5h3l-20 -15h4l-20 -15h29l-14 -11q-8 -4 -17 -2.5t-14 8.5l-5 5h-28l-1 1l-5 14h-5l-5 15h-3l-2 5l-7 20h-3l-1 5h-4 l-2 -5h-1l-7 -20h9l-2 -5h18l-5 -15h14l-5 -14v-1h-20l-4 -5q-4 -7 -13.5 -8.5t-17.5 2.5l-15 11h20l-20 15h-15l-20 15h-18l-6 5h-9l-27 20h1l-7 5h-12l-1 1q-5 3 -7 8.5t-2 10.5h-9l3 10h18v0.5t1 0.5q0 1 5 6l10 8h2l20 15h-3l14 10h2l14 11l-73 2l-7 2q-15 4 -15 20h-19 v8l1 2h16l5 15h-18l5 15h4l4 10h9l5 15h-42l2 5h63l4 10h-3l5 15h-34l2 5h24l5 15l2 7q2 5 5 8h-5q10 10 22 6q2 0 8 -3l4 -3h5l22 -15l21 -15h-23l7 -5h34l4 -3l-1 3h3l-1 5h-16l-4 15h10l-5 15h-15l-2 10h29l-6 20h-8l-1 1q-1 3 -1 5v3v1h-4q1 2 2 5t2 5h3q7 11 19 11h120 q12 0 19 -11h-4q3 -4 3 -10h4v-1v-3t-1 -5v-1h9l-6 -20h-30l-3 -10h15l-5 -15h12l22 15h29l5 3q6 3 8 3q12 4 22 -6h-30q4 -3 5 -8l2 -7h-20l5 -15h34l2 -5h4l5 -15h3l3 -10h-63l1 -5h42l5 -15h-9l3 -10h-4l5 -15h18l5 -15h-16v-2q1 -3 1 -8zM206 434h7l-3 10z" />
<glyph unicode="+" horiz-adv-x="594" d="M563 274h-7v-5h10v-10h1v-11q0 -6 -1 -9h-3q0 -1 -2 -5h-2q-5 -7 -11 -10h6q-4 -3 -12 -3h-153v-12h-9v-20h6v-25h2v-15h8v-5h-2v-20h2v-15h-25v-5h9v-25h5v-20h2q0 -8 -5 -15h-1q-5 -7 -15 -10q-3 -1 -8 -1h-122q-5 0 -7 1h1q-10 3 -15 10h2q-4 6 -6 15h-2v20h-5v25h-9 v5h25v15h-2v20h2v5h-8v15h-2v25h-6v20h9v12h-155q-7 0 -12 3h-7q-6 3 -11 10h3q-2 4 -2 5h2q-2 6 -2 9v11h-1v10h-10v5h7v20h3v15h31v5h-46v5h13v20h-10v20h16q2 9 6 15h3q8 10 21 10h155v5h-70v15h81v5h-48v10h30v5h27v5h1v5h21v5h-34v15h-1v5h41v15h-43v30h-6v5h-6v30h-8 v1q0 3 2 9q1 5 6 10h-3q8 8 19 8h122q13 0 19 -8h4q2 -2 3.5 -4.5t2.5 -5.5t1 -9v-1h8v-30h6v-5h6v-30h43v-15h-41v-5h1v-15h34v-5h-21v-5h-1v-5h-27v-5h-30v-10h48v-5h-81v-15h70v-5h153q14 0 21 -10h-3q2 -3 4 -6.5t2 -8.5h-16v-20h10v-20h-13v-5h46v-5h-31v-15h-3v-20z " />
<glyph unicode="," horiz-adv-x="303" d="M263 199l-2 -5h29l-4 -10h-42l-3 -10h27l-4 -10h-29l-4 -10h32l-2 -5h1l-8 -20h-2l-6 -15h-6l-6 -15h6l-10 -25h3l-8 -20h1l-2 -5h8l-6 -15h15l-4 -10h-20l-6 -15h-3l-6 -15h-3l-4 -10h-3l-2 -5h-14l-4 -10h16l-5 -12q0 -1 -0.5 -1.5t-0.5 -1.5h-16l-3 -5h-8 q-6 -13 -21 -20h30q-4 -1 -9 -2.5t-10 -1.5h-101q-8 0 -13 4h-30q-11 7 -8 18v2h8l1 5h16l3 15h-17l2 10h14l1 5h3l1 10h3l3 15h3l3 15h20l1 10h-14l2 15h-9l1 5h-1l3 20h-3l2 15h1l2 10h-6l2 15h6l2 15h3l3 20h-1v5h-31l1 10h29l1 10h-27l2 10h41l1 5q0 3 1 5h-29q2 8 6 15 h54q1 2 2 3l2 2h-18q5 6 13 10t18 4h160q14 0 21 -14h18q1 -2 1 -5h-53v-3q0 -4 -1 -7z" />
<glyph unicode="-" horiz-adv-x="471" d="M425 319h-27v-20h25v-15h13v-5h-74v-20h63v-20h17v-5h-22v-5q0 -8 -5 -15h-50q-2 -4 -4 -5h50q-2 -1 -4 -2.5t-4 -2.5h61q-6 -2 -10 -2h-325q-4 0 -10 2h-62q-4 2 -8 5h-49q-3 2 -5 5h50q-1 3 -2.5 7t-1.5 8v5h22v5h-17v20h-63v20h74v5h-13v15h-25v20h27v10h50v5h-73v10 h72v20h-102v10h12q2 14 13 20h34q5 4 14 4h325q9 0 14 -4h-34q11 -6 13 -20h-12v-10h102v-20h-72v-10h73v-5h-50v-10z" />
<glyph unicode="." horiz-adv-x="312" d="M200 39h129v-15h-140q-2 -14 -13 -20h58q-5 -4 -14 -4h-174q-10 0 -15 4h-57q-11 6 -13 20h140v15h-129v20h-18v15h142v15h-184v5h14v15h115v5h-94v5h82v10h-11v15h24v5h11v20h3v5h7v20h25v5h-44v2q0 9 7 18h33q8 9 20 9h174q13 0 20 -9h-32q6 -7 6 -18v-2h44v-5h-25v-20 h-7v-5h-3v-20h-11v-5h-24v-15h11v-10h-82v-5h94v-5h-115v-15h-14v-5h184v-15h-142v-15h18v-20z" />
<glyph unicode="/" horiz-adv-x="579" d="M514 654l-2 -5h35l-2 -5h-38l-4 -10h10l-4 -10h-8l-6 -15h-4l-6 -15h-13l-8 -20h37l-4 -10h-23l-6 -15h-7l-9 -20h6l-7 -15h8l-2 -5h-17l-2 -5h37l-4 -10h-24l-8 -20h9l-8 -20h5l-6 -15h-34l-5 -10h18l-6 -15h-36l-8 -20h49l-6 -15h-14l-9 -20h3l-6 -15h-1l-5 -10h1 l-6 -15l-3 -5h4l-4 -10h18l-8 -20h-34l-8 -20h7l-9 -20h65l-5 -10h10l-8 -20h-62l-4 -10h-22l-4 -10h12l-8 -20h5l-4 -10h-3l-6 -15h4l-9 -20h2l-2 -5h-30l-4 -10h-1l-8 -20h41l-7 -15h-9l-2 -5h-6l-8 -20h-1l-4 -10h2l-9 -20h11l-2 -5h-1l-6 -15h-12l-2 -5h-21l-4 -10h-7 l-4 -10h11l-3 -5h36l-4 -10h-23l-6 -15h5l-1 -3l-6 -12h-1q-4 -6 -10 -10h37q-6 -4 -10 -5h-30q-7 -3 -18 -3h-131q-6 0 -11 3h30q-2 1 -6 5h-37q-4 6 -4 10v4q0 4 2 9l1 2h-6l6 15h23l5 10h-36l2 5h-10l4 10h6l4 10h22l2 5h11l6 15h1l2 5h-10l8 20h-2l4 10h1l8 20h6l2 5h10 l6 15h-41l8 20h1l4 10h30l2 5h-2l9 20h-4l6 15h3l4 10h-6l9 20h-12l4 10h22l4 10h61l8 20h-9l4 10h-64l8 20h-7l9 20h33l8 20h-18l4 10h-3l12 30h1l6 15h-3l9 20h14l6 15h-49l8 20h35l7 15h-18l4 10h35l6 15h-6l9 20h-10l9 20h24l4 10h-37l2 5h16l2 5h-7l6 15h-5l8 20h7 l6 15h23l5 10h-38l8 20h13l6 15h4l6 15h8l4 10h-10l4 10h38l2 5h-35l2 5h-42l4 10h28l9 20h27l2 5h-24l8 20h-24l2 5h32l4 10h-15l4 10h-17l6 15h25l3 7q2 3 3.5 6.5t4.5 6.5h-15q5 7 14 12t22 5h134q17 0 22 -17h14q1 -2 1 -5q0 -4 -2 -9l-3 -6h-24l-7 -15h18l-5 -10h15 l-4 -10h-32l-2 -5h24l-8 -20h24l-2 -5h-27l-9 -20h-28l-4 -10h42z" />
<glyph unicode="0" horiz-adv-x="718" d="M737 454v-10h-109q0 -1 0.5 -2t0.5 -3h70v-5h-26q1 -4 1 -9.5v-10.5h-3v-15h-45v-15h41v-15h11v-15h-3v-15h-35v-20h53v-20h-51l-1 -10h21v-7.5t-1 -7.5h13q-1 -2 -1 -5v-5h20v-15h26v-3q-1 -4 -1 -8t-1 -9h-3l-1 -10h-57q-1 -5 -1.5 -10t-2.5 -10h36l-3 -15h-24l-6 -20 h-16l-6 -15h-20q-2 -5 -4.5 -10t-5.5 -10h-27l-6 -10l-6 -10h51q-4 -5 -7.5 -10t-7.5 -10h10l-5 -5h20l-9 -10h-35l-10 -10h-16q-13 -11 -26 -20h-67l-25 -15h87q-17 -9 -34 -15h30l-26 -8t-27 -7h2q-7 -1 -14.5 -2.5t-15.5 -2.5h102q-14 -2 -29.5 -3t-32.5 -1 q-16 0 -31.5 1t-29.5 3h-103q-7 1 -14.5 2.5t-15.5 2.5h-1q-30 6 -53 15h-30q-18 6 -33 15h-87q-7 4 -13.5 7.5t-12.5 7.5h67q-13 9 -26 20h16l-10 10h34l-9 10h-20q-3 3 -4 5h-10q-8 8 -15 20h-52l-6 10l-6 10h27q-2 5 -5 10t-5 10h21q-4 8 -6 15h15l-6 20h23q-1 4 -2 7.5 t-2 7.5h10q-1 5 -1.5 10t-2.5 10h-39l-1 10h-14l-2 17v3h60q-1 4 -1 7.5v7.5h-42l-1 10h4q-1 4 -1 7.5v7.5h-11l-1 10h-1q0 5 -0.5 10t-0.5 10h-4q0 5 -0.5 10t-0.5 10h6v15h17v15h-11v15h-3v15h-41q1 4 1 7.5v7.5h59v20h8q1 2 1 5h75v5h-61l1 10h-23l1 4q0 7 1 11h-12 q1 4 1 7.5t1 7.5h3q1 2 1 5t1 5h13q1 4 2 7.5t2 7.5h-61q2 4 3 7.5t2 7.5h15l6 15h-109l9 20h54l2 5h47q4 10 11 20h-27l3 5h37q4 5 7.5 10.5t7.5 9.5h30q2 2 4.5 5t4.5 5h3q3 2 5.5 5t4.5 5h-4l18 15h2l21 15h1l18 10q2 2 4.5 3t5.5 2h-20q2 2 5 3t5 2h10q6 3 12.5 5.5 t12.5 4.5h8q4 2 7.5 3t7.5 2h-2q5 2 9.5 3t9.5 2h2q23 5 47.5 8t51.5 3q51 0 98 -11h-2l10 -2t9 -3h3q4 -1 7.5 -2t7.5 -3h-7q7 -2 13.5 -4.5t12.5 -5.5h-10l11 -5h20q2 -1 4.5 -2t5.5 -3h-1l18 -10h-2q6 -4 11.5 -7.5t10.5 -7.5h-2q5 -4 9 -7.5t8 -7.5h4q3 -2 5.5 -5 t4.5 -5h-3l9 -10h-29q4 -4 7.5 -9.5t7.5 -10.5h-37l3 -5h28q3 -4 6 -9.5t6 -10.5h-47l3 -5h-54l9 -20h108l6 -15h-16q1 -4 2 -7.5t2 -7.5h-8l3 -15h47q2 -6 2 -10h7q1 -4 1.5 -7.5t0.5 -7.5h7q1 -4 1 -11q0 -3 1 -4h57zM312 517q-16 0 -29 -8h58q-11 8 -29 8zM477 444 q0 5 -1 8v2h-57q0 4 -0.5 7.5t-1.5 7.5h-7q-1 4 -1.5 7.5t-2.5 7.5h-7q-1 4 -5 10h-47l-4 6t-5 5q-5 -5 -8 -11h-14q-1 -2 -2 -4.5t-3 -5.5h-3q-1 -4 -2 -7.5t-2 -7.5h12q-1 -4 -1.5 -7.5t-0.5 -7.5h22v-10h141zM439 434q0 3 -1 5h-117v-5h-8q0 -4 -0.5 -9.5t-0.5 -10.5h-59 v-15h41q0 -4 -0.5 -7.5t-0.5 -7.5h4v-15h11v-15h-17v-15h-6v-20h5v-20h2v-10h12v-15h-3v-10h42q1 -3 1 -6.5v-6.5v-2h-60l3 -20h14l3 -10h39q5 -13 13 -20h-10q13 -13 35 -13q23 0 36 13h-36q7 7 12 20h57l3 10h3l3 20h-27v2q1 3 1 6.5v6.5h-20v10h-12v15h-20v10h51v20h-53 v20h35v15h3v15h-10v15h-42v15h45v15h3v20h26z" />
<glyph unicode="1" horiz-adv-x="557" d="M675 479h-104v-10h9v-10h-38v-20h-51v-10h26v-10h2v-10h-22v-20h-1v-15h16v-20h-39v-15h27v-15h15v-20h-78v-10h-37v-20h129v-5h-90v-20h102v-10h-117v-15h81v-20h-1v-20h9v-10h15v-15h14v-15h-12v-15h-28v-15h-1v-20h-1v-5h-8v-20h4v-5h8v-5h13v-20h15v-12q0 -5 -1 -8h2 q-2 -9 -11 -15h-27q-5 -4 -14 -4h-196q-9 0 -14 4h26q-7 5 -11 15h-3q0 2 -0.5 4t-0.5 4v12h-15v20h-13v5h-8v5h-4v20h8v5h1v20h1v15h28v15h12v15h-14v15h-15v10h-9v20h1v20h-81v15h117v10h-102v20h90v5h-129v20h37v10h78v20h-15v15h-27v15h39v20h-16v15h1v20h22v10h-2v3 l-4 -3h-10l-13 -10h-20l-26 -20h2l-19 -15h-9l-26 -20h22l-12 -9q-10 -7 -20 -4.5t-18 12.5l-1 1h-21l-16 20h9l-12 15h-2l-16 20h20l-8 10h10l-8 10h-37l-8 10h52l-15 20h37l-6 8q0 1 -0.5 1t-0.5 1h-9q-2 6 -2 10h104q-1 7 2 15h-14q3 6 8 10h-204l3 2l23 18h44l19 15 l13 10h39l20 15h-23l6 5h-20l20 15h3l19 15h3l13 10h1l6 5h4l25 20h-66l25 20h99l6 5h-257l7 5h249l13 10l24 19l1 1h75q9 6 20 6h189q11 0 17 -6h-74q10 -8 10 -21v-9h-249v-5h257v-5h-98v-20h66v-20h-3v-5h-1v-10h-3v-15h-3v-15h20v-5h23v-15h-40v-10h1v-15h-44v-20h203 v-10h14v-15z" />
<glyph unicode="2" horiz-adv-x="704" d="M654 29v-5h104q0 -5 -3 -10h-109q-3 -7 -10 -10h46q-5 -4 -14 -4h-576q-9 0 -14 4h-46q-3 2 -5.5 4.5t-4.5 5.5h110q-2 4 -4 10h-104v5h109v15h-85v5h-57v15h118v15h-109v20h37v10h30v20h-15v2q0 2 0.5 7t1.5 11h49q1 4 2.5 7.5t2.5 7.5h-66q2 2 3.5 5t3.5 5h4q5 6 11 11 l11 8q1 0 1 0.5t1 0.5h-1q4 2 7 5t7 5h5q2 2 4 3t3 2h1q5 4 10.5 7.5t9.5 7.5h-9q4 2 7 5t7 5h3l21 15h10q7 5 13.5 10.5t13.5 9.5h-39q7 5 13.5 10.5t13.5 9.5h40q2 2 4 3t3 2h5q4 2 7 5t7 5h-48q8 5 14.5 10.5t12.5 9.5h-5l6 5h37q2 2 4 3t3 2h-82l26 20h96l6 5h-74l18 15 h44l12 10h-55q6 5 11.5 10.5l9.5 9.5h100l3 3l2 2h-28q3 2 5.5 5t4.5 5h-107q8 8 12 15h67l11 20h34q5 12 5 20h32v5h25v7.5t-1 7.5h-35l-2 5h-59l-3 -5h23q-2 -4 -3.5 -7.5t-3.5 -7.5h-39l-2 -5h-20q-1 -2 -1 -4t-1 -4q-1 -4 -3 -7t-4 -5h-77q-6 -7 -14.5 -9t-18.5 -2h-188 q-13 0 -19 11h77q-3 5 -3 11v9h20v5h39q0 4 0.5 7.5t0.5 7.5h-23q0 3 1 5h-36q0 2 0.5 3t0.5 2h-76q1 2 1 5t1 5h79l5 20h-14q0 1 2 5h-103q1 4 2.5 7.5t2.5 7.5h154q2 4 4 7.5t3 7.5h-111q3 5 6 10.5t6 9.5h21q2 2 4 5t3 5h63q3 3 4 5h-58q2 2 4 5t4 5h51l5 5h-7 q9 11 20 20h23l6 5h-48l6 5h34q4 2 7.5 5t6.5 5h60l16 10h40q10 6 20.5 11t21.5 9h-98q3 2 6.5 3t6.5 2h-37q5 2 8.5 3t7.5 2h178q51 15 111 15q69 0 123 -15h-178q5 -1 9 -2t8 -3h37q4 -1 7.5 -2t6.5 -3h98q12 -4 22.5 -9t20.5 -11h-40q4 -2 8 -5t8 -5h-60l13 -10h-35l6 -5 h49l6 -5h-24q5 -4 10 -9.5t9 -10.5h7l2 -2t2 -3h-51q2 -2 3.5 -5t3.5 -5h58l3 -5h-63q3 -5 5 -10h-21l9 -20h111q2 -4 3 -7.5t2 -7.5h-154q2 -4 2.5 -7.5t1.5 -7.5h103q0 -1 0.5 -2t0.5 -3h14q3 -10 3 -20h50l1 -10h-92q1 -2 1 -5h60v-5h35v-15h-25q0 -3 -1 -5h-32 q0 -5 -0.5 -10t-1.5 -10h-34l-2 -10t-3 -10h-66q-1 -4 -2 -7.5t-3 -7.5h106l-4 -10h28l-3 -5h-100q-2 -5 -5 -10t-5 -10h54l-2.5 -5t-3.5 -5h-44l-10 -15h73l-3 -5h-96l-17 -20h81l-2 -2t-2 -3h-37l-5 -5h6l-21 -20h47l-5 -5t-6 -5h-5l-5 -5h-40l-24 -20h39q-6 -5 -12.5 -10 t-13.5 -10h-9l-21 -15h-3q-4 -2 -7.5 -5t-6.5 -5h9q-4 -3 -9 -6.5t-10 -6.5l-2 -2h-1l-4 -3h211q4 0 10 -2h-5q6 -3 12 -10h1q4 -5 4 -15v-5h-4v-10h66v-15h-49v-20h15v-20h-30v-10h-37v-20h109v-15h-118v-15h57v-5h85v-15h-109zM345 504h91q-4 7 -12 10h-50q-6 3 -19 3 q-10 0 -18 -3h-79q-5 -1 -9 -4l-8 -6h76l-2 -2t-2 -3h34q0 1 -2 5z" />
<glyph unicode="3" horiz-adv-x="709" d="M782 194h155q-1 -2 -1 -5t-1 -5q0 -3 -1 -5h-92l-3 -10h-172l-3 -10h123q-1 -2 -1.5 -5t-2.5 -5h-109l-2 -5h58q-1 -4 -3 -7.5t-4 -7.5h-70l-3 -5h20l-3 -5h-180q-4 -5 -7 -10t-7 -10h60q-4 -6 -8 -10h-127l-15 -15h281l-12 -10t-13 -10h-92q-5 -4 -11 -7.5t-12 -7.5 h-154q-4 -3 -9.5 -5.5t-10.5 -4.5h64q-6 -3 -12 -5.5t-12 -4.5h124q-22 -9 -48 -15h-85q-13 -3 -27 -5.5t-28 -4.5h-31q-16 -2 -33 -3t-34 -1q-19 0 -36.5 1t-33.5 3h30q-15 2 -28.5 4.5t-26.5 5.5h85q-25 6 -48 15h-123q-6 2 -12 4.5t-11 5.5h-63q-5 2 -9.5 5t-9.5 5h154 q-7 4 -12.5 7.5t-11.5 7.5h92q-12 8 -24 20h-281q-9 8 -15 15h127l-9 10h-60q-4 5 -7.5 10t-6.5 10h181l-3 5h-20l-3 5h70q-2 4 -4 7.5t-4 7.5h-57q-2 4 -2 5h109l-4 10h-122l-3 10h172q-2 6 -2 10h93q-1 2 -1 5h324q26 0 43 10h-154q2 2 3.5 3t3.5 2h-68l4 -2t3 -3h-245 q9 -4 22 -7t34 -3h-325v5t-1 5h245v5h-175q0 14 15 20h113q2 1 7 1h201q7 0 10 -1h157l2 5h-76q1 3 1 6.5v6.5v7h-17q-2 13 -9 20h-1l-5 5h-66q-16 12 -51 12h-125q-13 0 -19 8h79l-3 5h-12q-4 5 -4 14v6h-2v20h12v15h-32v15h54v15h10v20h-61l3 10h36l2 5h34l3 5h-31 q3 3 5.5 6t5.5 4l9 5h-14l36 20h-6l18 10h-2l18 10h-4l37 20l9 5h-5l11 6h-263q-9 0 -14 4h34q-7 3 -10 10h-38q-2 4 -4 10h18v5h5v5h-20v15h13v20h5v10h-4v15h-8v5h14v15h-37v20h40v5h-43v20h5v9q0 8 2 11h35q9 16 25 16h512q18 0 25 -16h-36q3 -4 3 -11v-9h-5v-20h43v-5 h-40v-20h37v-15h-14v-5h8v-15h4v-10h-5v-20h-13v-15h19v-5h-6q0 -1 -0.5 -2t-0.5 -3h-18q-1 -4 -5 -10h39q-1 -3 -3.5 -5.5l-4.5 -4.5h-34q-2 -1 -4 -3l-11 -7h5l-7 -5l-30 -20h4l-15 -10h2l-15 -10h7l-30 -20h14l-9 -6v-3l22 -6h31q4 -1 7.5 -2t7.5 -3h-33q3 -1 6.5 -2 t6.5 -3h-36q12 -4 23 -10h61q16 -8 32 -20h-9l18 -15h-54q3 -4 6.5 -7.5l7.5 -7.5h32l11 -15h-12q7 -10 11 -20h2q5 -11 8 -20h12l2 -5h-80q2 -4 3 -9.5t2 -10.5h65q1 -2 1 -5h2q1 -4 1.5 -9.5t0.5 -10.5h17q1 -4 1 -9.5v-10.5h76v-5h-191q0 -5 -0.5 -10t-0.5 -10h207 q-1 -2 -1 -5zM265 199h36q9 9 13 20h-78q8 -1 13 -5.5t10 -9.5z" />
<glyph unicode="4" horiz-adv-x="735" d="M707 149h249v-10q0 -4 -2 -10h-164q0 -1 -2 -5h-101q-1 -2 -4 -5h-59q-9 -7 -18 -7h-88v-8h184v-5h-83v-5h-14v-10h-13v-20h-19v-5h-19v-15h-106v-5h-37v-12q0 -2 -1 -3h57l-3 -10h65q-1 -2 -4 -5h-89q-4 -4 -6 -5h62q-5 -4 -15 -4h-186q-9 0 -14 4h-61q-4 1 -6 5h89 l-3 5h-66l-3 10h-56v15h37v5h106v15h19v5h19v20h13v10h14v5h83v5h-184v8h-299q-11 0 -18 7h58q-3 3 -4 5h101l-3 5h164q-2 6 -2 10v10h-249v20h124v15h42v5h-195v5h153v5h-98v20h8v5h24v15h-60v20h19v20h4v3q0 6 2 12h-27q1 3 2 5.5t2 4.5q3 6 6 9l5 6h-12l16 20h61l15 20 h-159l16 20h49l11 15h-68l15 20h50l16 20h131l4 5h-127l4 5h57l15 20h-100l4 5h66l8 10h55l4 5h7l7 10h20l11 15h-47l15 20h135l7 10h-192l11 15h218l16 20h-101l12 15h-49l4 5h106l4 5h-138l12 15h32l12 15h67l8 10h-14l11 15h5l4 5h-23l11 15h-26l4 5h-5l4 4q5 7 13 11 h-12q11 6 24 6h208q10 0 17 -6h12q3 -3 5.5 -6.5t3.5 -8.5h4q0 -1 0.5 -2t0.5 -3h26v-15h24v-5h-6v-15h15v-10h-68v-15h-33v-15h138v-5h-106v-5h48v-15h101v-20h-218v-15h192v-10h-134v-20h47v-15h-19v-10h-7v-5h-55v-10h-67v-5h101v-20h-103v-5h88v-5h-1v-20h-88v-20h61 v-15h111v-20h-111v-20h66v-20h-2v-4h87q15 0 23 -11h-5q4 -6 4 -10h27v-15h-4v-20h-19v-20h60v-15h-24v-5h-8v-20h98v-5h-153v-5h195v-5h-42v-15h-124v-20zM322 434h-56l-15 -20h71v20zM201 414l-14 -20h47v20h-33zM195 379l-15 -20h226v20h-111v15h-40l-11 -15h-49z M263 339l-14 -20h11l-11 -15h110v15h2v20h-98z" />
<glyph unicode="5" horiz-adv-x="690" d="M715 184h-18q0 -1 -0.5 -2t-0.5 -3h2l-3 -10h-41q-1 -5 -3.5 -10t-4.5 -10h-5q-2 -4 -2 -5h-4l-3 -5h11l-3 -5h-33l-3 -5h44l-3 -5h-12l-3 -5h1l-6 -10q-4 -5 -7.5 -10t-7.5 -10h2q-4 -5 -9 -10l-10 -10h-3q-4 -4 -8.5 -7.5t-9.5 -7.5h9q-3 -2 -6.5 -5t-7.5 -5h6l-8 -5 h-66q-9 -5 -18.5 -10t-20.5 -10h67q-6 -3 -12.5 -5.5t-13.5 -4.5h-62q-50 -17 -108 -20h2q-7 -1 -16 -1h-17h-18t-17 1h-3q-62 3 -113 20h62q-7 2 -14 4.5t-13 5.5h-67q-11 5 -21 10t-19 10h66q-1 2 -3.5 3t-4.5 2h-5l-15 10h-9q-4 4 -8.5 7.5t-8.5 7.5h3q-11 9 -20 20h-2 q-8 8 -15 20q-4 4 -6 10h-1l-3 5h12l-3 5h-44q0 1 -2 5h34l-3 5h-10l-2 5h4l-2 5h6q-5 11 -6 20h41l-3 10h-1q-1 2 -1 5h53v5h-61l-2 20h7v5h-40q0 6 3 10h2q7 10 18 10h202q11 0 18.5 -3t11.5 -7h-1q4 -4 5 -6q2 -1 2.5 -2t1.5 -2h40l2 -2t2 -3h-6q5 -7 10.5 -12t12.5 -8 h60l6 -2l6 -2l6 2l6 2h-9q14 6 23 20h-51l3 5h3q2 4 4 10h8q3 8 3 15h-9v15h-5q0 4 -1 7.5t-3 7.5h-1q-2 5 -5 10h-4q-5 8 -14 15h8q-3 4 -8 5h3q-7 3 -14.5 5t-15.5 2q-11 0 -19 -2t-14 -5h5l-9 -5h-1q-7 -4 -11.5 -8t-11.5 -4h-199q-12 0 -19 12h1l-2 5h-4q-1 2 -1 5l1 5 h4l1 5h-6l1 10h14l1 10h-8v5h-3l1 10h-5l1 10h6l2 15h9l1 5h-8l1 5h-4l1 10h5l2 20h-56l4 40h91l1 10h-9v5h-86v5h59l1 10h-8l2 15h-14l1 5h-30l1 15h38l1 10h4l2 15h-3l1 10h11v5h12l1 5h7l3 20h-28l2 20h9l2 15h-1l4 40h-2v5h3v2q0 4 2 8h9q2 3 3 5.5t2 4.5h-14 q12 16 33 16h447q18 0 25 -16h13q3 -4 3 -10h-10v-10h-3v-5h3v-40h1v-15h-9v-20h28v-20h-8v-5h-12v-5h-11v-10h4v-12q0 -2 -1 -3h-4q0 -5 -3 -10h-38q-7 -14 -24 -14h-292v-1h31l-1 -5h14l-2 -15h8l-1 -10h-59l-1 -5h87v-5h62q23 4 61 4q11 0 22 -1t21 -3h-61q10 -1 19 -4 l18 -6h-12q22 -7 44 -20q14 -9 29 -20h57q5 -4 11 -9.5t11 -10.5h-4l9 -10h4l2 -2t2 -3h8l2 -2t2 -3h-10q3 -4 6 -7.5t5 -7.5h-6q2 -2 3.5 -5t3.5 -5h5l6 -10h3l3 -5h8l4 -10h-14q2 -2 3 -5t2 -5h6q0 -1 2 -5h-5l3 -10h-2q0 -3 1 -5h-8l3 -15h5l1 -10h2q0 -4 0.5 -7.5 t0.5 -7.5h5v-15h9v-15h-8q-1 -2 -1 -5v-5h-4v-5h51q-1 -5 -1.5 -10t-2.5 -10h10q0 -1 -0.5 -2t-0.5 -3zM271 454h-34l-2 -20q9 6 18 11t18 9zM396 184h-27q4 -1 7.5 -1h7.5h6t6 1z" />
<glyph unicode="6" horiz-adv-x="692" d="M715 224h-151q-1 -2 -1 -5t-1 -5h78q-1 -5 -1.5 -10t-2.5 -10h28l-3 -10h3q0 -1 -0.5 -2t-0.5 -3h-8q-3 -11 -7 -20h-11l-4 -10h37q-4 -10 -11 -20h16l-3 -5h-36l-7 -10h-12l-12 -15h10q-3 -3 -4 -5h-14l-15 -15h23q-4 -4 -8 -7.5t-9 -7.5h-54l-20 -15h-6 q-15 -10 -34 -20h39q-9 -5 -22 -10q-3 -1 -6.5 -2t-6.5 -3h4q-19 -7 -39 -12t-42 -8h10q-14 -2 -29 -3t-31 -1q-17 0 -33 1t-32 3h-10q-23 3 -45 8t-42 12h-4q-3 2 -6.5 3t-6.5 2q-13 5 -22 10h-39q-17 8 -35 20h5q-5 4 -10 7.5t-10 7.5h54l-17 15h-22l-15 15h14q-1 2 -2 3 l-2 2h-9l-12 15h13q-2 2 -3.5 5t-3.5 5h36l-3 5h-16q-3 5 -5.5 10t-4.5 10h-37q-1 2 -2 5t-2 5h10q-1 5 -3 10l-4 10h8l-2 5h-3q-1 2 -1 5t-1 5h-53l-2 10l-2 10h19q-1 2 -1 5v5h50v5h-13v15h-67v15h41q1 2 1 5h22v5h1q0 4 0.5 7.5t1.5 7.5h7q0 3 1 5h6q1 4 2 7.5t2 7.5h-18 l3 10h26q2 4 2 5h-20q1 2 2 5t2 5h-10l4 10l4 10h-57q2 4 3.5 7.5t3.5 7.5h13q2 5 5 10h59l3 5h-4l9 15h15l9 15h-12q4 5 7 10.5t6 9.5h-5q1 2 4 5h-3l7 10h-3q3 5 6 8.5t5 6.5h2q4 6 6 8l5 7h-20l8 10h41l7 10h7l12 15h-23l15 20h2l3 5h-3l3 5h2l7 10h-12l12 15h-13l4 5h18 l15 20h87l8 10h-21l8 10h-7l8 10h-24l16 20h-9l15 20h-24l8 10h1l8 10h-1l1 1q2 3 6 7t9 7h-1q5 2 11 4t13 2h201q9 0 15 -6h1q7 -7 7 -15v-1q0 -7 -1 -9h-2q0 -2 -2 -4l-4 -6h23l-15 -20h10l-16 -20h24l-8 -10h7l-7 -10h20l-8 -10h-86l-16 -20h-18l-3 -5h12l-11 -15h12 l-7 -10h-2l-3 -5h3l-3 -5h-2l-15 -20h23l-8 -11h7q6 -1 13 -1.5t14 -2.5h-8q9 -1 18.5 -4t19.5 -6h-41q6 -2 12.5 -4.5t13.5 -5.5h20q15 -6 30 -15h-1l24 -15h3q4 -2 7 -5t7 -5h2q2 -1 3.5 -2t3.5 -3h5q5 -4 11 -9.5t11 -10.5h12l13 -15h-15q3 -4 6 -7.5t5 -7.5h4l3 -5h-59 l6 -10h-13q2 -4 4.5 -7.5t3.5 -7.5h57l9 -20h10l3 -10h20q2 -4 2 -5h-2l3 -10h1q3 -7 3 -15h-46v-5h25q1 -4 1 -7.5t1 -7.5h-1v-5h-3v-5h11v-15h20q0 -4 -0.5 -7.5t-0.5 -7.5h18v-5zM379 214h-78q2 2 3 4.5t2 5.5h151q0 2 0.5 3t0.5 2h-18q3 8 3 15h-20v15h-12v5h3q0 3 -1 5 h1q-1 4 -2.5 7.5t-3.5 7.5h-25l-3 5h46q-6 9 -15 15h-2q-6 4 -13 6.5t-15 3.5h2q-3 1 -6.5 1h-7.5h-6.5t-6.5 -1h-27q-7 -1 -14.5 -3.5t-13.5 -6.5h18q-8 -5 -16 -15h-6l-3 -5h-7q-4 -7 -6 -15h-1q0 -3 -1 -5h-22v-5h-42v-15h67q0 -4 0.5 -7.5t1.5 -7.5h13q0 -1 2 -5h-51 q2 -3 3 -5.5t2 -4.5h-18q8 -13 21 -20h54q15 -9 37 -9t38 9h-28q12 7 22 20z" />
<glyph unicode="7" horiz-adv-x="625" d="M703 529h-104q0 -1 -0.5 -2t-0.5 -3h91q-1 -4 -2 -7.5t-2 -7.5h-67l-6 -15h-24q-1 -1 -1 -2t-1 -2v-1h-21l-5 -10h-31l-3 -5h57l-2 -5h9l-2 -5h-87l-7 -15h23l-4 -10h43l-7 -15h2l-9 -20h3l-9 -20h1l-5 -10h2l-7 -15h-10l-7 -15h8l-10 -20h43l-5 -10h-10l-2 -5h-9l-5 -10 h-55l-9 -20h54l-7 -15h-13l-10 -20h-9l-7 -15h-4l-7 -15h5l-5 -10h-1l-2 -5h-34l-2 -5h16l-7 -15h6l-3 -5h11l-2 -5h4l-7 -15h4l-10 -20h-6l-7 -15h-20l-2 -5h19l-7 -15h2l-10 -20l-4 -10h-11l-7 -15h16l-4 -10h13l-3 -5h-42l-5 -10h28l-3 -5h-5v-1q-2 -4 -7 -9.5t-14 -9.5 q-4 -1 -9 -2.5t-11 -1.5h-193q-8 0 -13 4q-9 7 -9 18v2h5q0 4 1 5h-28q0 1 0.5 1t0.5 1l4 8h43l2 5h-13l5 10h-17l7 15h11l5 10l9 20h-2l7 15h-19l2 5h20l7 15h6l10 20h-4l7 15h-4l2 5h-10l2 5h-6l7 15h-16l2 5h34l2 5h1l5 10h-5l7 15h4l7 15h9l10 20h13l7 15h-55l10 20h55 l5 10h9l2 5h10l4 10h-42l10 20h-8l7 15h10l7 15h-2l4 10h-1l10 20h-3l9 20h-2l7 15h-44l5 10h-23l7 15h86l3 5h-10l3 5h-57l2 5h32l5 10h20l3 5h24v1h-275q-15 0 -24 14h67q-3 6 -3 13v2h-90v5h104v5h-47v20h-40v5h-18v5h-14v5h1v5h13v10h14v15h-11v10h-3v10h4v15h-6v5h-4 v20h12v10h-7v4q0 9 5 16h1q8 11 22 11h517q14 0 22 -11h-1q5 -7 5 -16v-4h7v-10h-12v-20h4v-5h6v-15h-4v-10h3v-10h11v-15h-14v-10h-13v-5h-1v-5h14v-5h18v-5h40v-20h47q0 -3 -1 -5z" />
<glyph unicode="8" horiz-adv-x="712" d="M671 159h102q-3 -11 -7 -20h-96q-2 -4 -3.5 -7.5t-3.5 -7.5h-9q-2 -5 -5 -10t-7 -10h-15q-2 -4 -5 -7.5t-6 -7.5h12q-4 -5 -9 -10l-10 -10h21l-6 -5h-8q-7 -5 -13 -10t-14 -10h-9q-4 -2 -8 -5t-9 -5h16q-10 -5 -21.5 -10t-24.5 -10h48q-19 -7 -41.5 -12t-48.5 -8h24 q-16 -2 -34 -3t-38 -1q-19 0 -37 1t-35 3h-24q-25 3 -47.5 8t-42.5 12h-48q-13 5 -24 9.5t-22 10.5h-16l-16 10h9l-14 10t-13 10h9q-1 2 -2.5 3t-2.5 2h-21q-5 5 -9.5 10t-9.5 10h-12q-3 4 -6 7.5t-5 7.5h15l-6 10t-5 10h8q-1 4 -3 7.5t-4 7.5h97q-4 9 -7 20h-100l-5 20h1 q0 3 -1 5h-5q-1 4 -1.5 7.5t-0.5 7.5h-30v7.5t-1 7.5h9v5h47v10h-12v10h-43l3 15h-56q0 2 0.5 3t0.5 2h86l6 20h40q3 11 9 20h-74l3 5h74q6 10 14 20h-68q3 3 4 5h72q4 5 9 10.5t9 9.5h-91q3 3 6 5.5t6 4.5h93q4 3 7.5 5.5t7.5 4.5h2q1 0 1 0.5t1 0.5q-9 6 -17 14h-59l-9 10 h21q-4 5 -7.5 10t-6.5 10h13q-3 5 -5.5 10t-4.5 10h-4q0 1 -2 5h-17l-2 5h11q-1 4 -2 7.5t-2 7.5h1q-1 2 -1 5h-11q-3 9 -3 20h5q0 4 -0.5 8t-0.5 8l1 4h-17v10h-23v5h-106q1 2 1 5v5h-42l3 15h266q2 4 2.5 7.5t1.5 7.5h-100q2 4 3 7.5t2 7.5h60q2 2 3 5t2 5h-12q4 10 11 20 h-52l3 5h-142q4 5 8 10.5t8 9.5h-9q3 2 5.5 5t4.5 5h197l12 10h-30l6 5h-19l15 10h21q9 5 19 10.5t21 9.5h92q35 14 77 20h16q38 6 85 6t84 -6h-15q22 -3 41 -8t35 -12h-92q21 -9 41 -20h-21l15 -10h19l6 -5h31q3 -2 6 -5l5 -5h-197q3 -2 5.5 -5t4.5 -5h9q5 -4 8.5 -9.5 t7.5 -10.5h142l3 -5h52q7 -10 11 -20h12q1 -2 2 -5t2 -5h-60q2 -4 3 -7.5t2 -7.5h100q1 -4 2 -7.5t2 -7.5h-267l3 -15h64q1 -2 1 -5v-5h-10v-5h45v-10h83v-2v-8.5t-1 -9.5h-2q0 -5 -0.5 -10t-1.5 -10h1q0 -3 -1 -5h32q-1 -4 -1.5 -7.5t-2.5 -7.5h-24l-2 -5h-13l-2 -5h28 q-3 -11 -9 -20h-13l-6 -10t-8 -10h-20l-9 -10h58q-3 -4 -7 -7.5t-8 -6.5l0.5 -0.5t1.5 -0.5h-2q4 -2 8 -4.5t8 -5.5h-93q8 -4 13 -10h91q12 -10 19 -20h-71q3 -3 4 -5h67q4 -4 7 -9.5t6 -10.5h-75l3 -5h73q6 -9 9 -20h-40q2 -4 3.5 -9.5t2.5 -10.5h-45q0 -3 1 -5h-2 q1 -4 1 -7.5t1 -7.5h30v-5t1 -5h12v-10h11v-5h-4q0 -4 -0.5 -7.5t-0.5 -7.5h-39q-1 -4 -1 -7.5t-1 -7.5h36q-1 -2 -1 -5h5q-1 -5 -1.5 -10t-2.5 -10zM165 519h106l-3 -5h18l-3 5h10q-2 3 -5 5.5t-6 4.5h-64q-16 12 -42 12q-27 0 -42 -12h42q-3 -2 -6 -4.5t-5 -5.5zM344 439 q4 -1 8.5 -2.5t9.5 -2.5h2q5 1 9.5 2.5t8.5 2.5h13q4 1 10 5h24q9 6 15 15h-31q2 4 2 5h-1q5 10 5 20h2v3q0 10 -3 17h-83q-1 4 -5 10h-39q-1 -2 -2 -4.5t-3 -5.5h17q-3 -7 -3 -17q0 -1 0.5 -1.5t0.5 -1.5h-6l2 -10t3 -10h11l3 -5q4 -8 14 -15h-11q6 -4 10 -5h17zM379 433 q9 0 13 1h-27q3 -1 6.5 -1h7.5zM304 179q15 -17 42 -20h26q27 3 41 20h-5q1 2 2 3l2 2h-36q5 7 8 15h39l3 15h4v5h-11v5t-1 5h-12l-3 10h-30q-3 9 -9 15h2q-1 2 -2 3t-3 2h46q-20 17 -52 17t-52 -17h-86l-2 -2l-3 -3h56q-6 -6 -9 -15h43l-3 -10h13l-1 -10h-47v-5h-8 q0 -4 0.5 -7.5t1.5 -7.5h30q1 -7 7 -15h6q1 -2 4 -5h-1zM474 159h-28q3 -1 6.5 -1h7.5h7.5t6.5 1z" />
<glyph unicode="9" horiz-adv-x="683" d="M735 424h13q-1 -5 -1.5 -10t-2.5 -10h-68q-1 -4 -2 -7.5t-3 -7.5h-22l-4 -10h-5q-1 -2 -1.5 -5t-2.5 -5h9q0 -1 -2 -5h6q0 -1 -2 -5h-10q-1 -4 -3 -7.5t-4 -7.5h-3l-6 -10h10q-3 -5 -5 -10h9l-9 -15h-3q-2 -4 -4.5 -7.5t-5.5 -7.5h-12l-11 -15h6q-2 -2 -3.5 -5t-3.5 -5h9 l-15 -20h-31q-2 -2 -4 -5t-4 -5h25q-2 -2 -4 -5t-4 -5h-4l-15 -20h17q-1 -2 -3 -5t-4 -5h-79q0 -1 -2 -3l-13 -17h28l-7 -10h-1l-15 -20h-54l-12 -15h63l-15 -20h6l-4 -5h-40l-11 -15h80l-15 -20h-64l-11 -15h22l-11 -15h13l-7 -10l-11 -14v-1h-4l-5 -5h10q-4 -5 -14 -10h2 q-4 -1 -8.5 -2.5t-10.5 -1.5h-201q-8 0 -13 4h-3q-5 4 -7 10h-10q-1 2 -1 5h4q0 1 -0.5 1.5t-0.5 1.5q0 6 4 12v1l7 9h-13l11 15h-22l11 15h64l15 20h-81l12 15h39l4 5h-6l15 20h-62l11 15h55l15 20l8 10h-28l15 20h79l7 10h-17l1 1q-5 0 -8 1q-17 2 -35.5 6.5t-38.5 11.5h4 q-5 2 -11.5 4.5t-11.5 5.5h-25l-9 4.5t-10 5.5h31q-17 10 -31 20h-9q-4 2 -7 5t-6 5h-6l-16 15h13l-7.5 7.5t-6.5 7.5h3l-12 15h-10l-6 10h-10l-6 10h3l-8 15h10q0 1 -2 5h-6l-2 5h-9l-4 10h5l-3 10h-5q-1 4 -2 7.5t-2 7.5h-31l-3 20h48q0 5 -0.5 10t-0.5 10h-55v10h51v10h8 v5h-24q1 4 1 7.5t1 7.5h-16l2 10l2 10h64q1 4 2 7.5t2 7.5h-112q1 2 2 5t2 5h124q2 2 2.5 5t1.5 5h-32q2 2 2.5 5t1.5 5h-112q2 4 3.5 7.5t3.5 7.5h173l6 10h23q3 5 6 10.5t7 9.5h-26q2 2 4 5t4 5h-56q5 5 9.5 10.5t8.5 9.5h-41q11 11 23 20h69q2 2 4 3t3 2h-105l15 10h-11 q9 5 18.5 10.5t19.5 9.5h104q3 2 6 3l6 2h-56l14 5h18q29 10 63 15.5t72 5.5q84 0 147 -21h-18q4 -1 7.5 -2t7.5 -3h55q4 -1 7 -2t6 -3h-104q11 -4 20.5 -9.5t18.5 -10.5h11q5 -2 8.5 -5t7.5 -5h104l4 -2t3 -3h-69q12 -9 23 -20h41q10 -8 18 -20h56q2 -2 4 -5t4 -5h25 q4 -4 7 -9.5t6 -10.5h-23q2 -2 3 -5t2 -5h-173l6 -15h113l4 -10h32l3 -10h-125l3 -10h111l3 -15h-14l3 -20h-13q1 -4 1 -7.5v-7.5h-11v-5h28v-20h48zM410 404h68q9 10 11 20h-13q2 5 3 10t1 10h-48v10l-1 10h-28q0 2 -0.5 3t-0.5 2h11q-1 4 -2 7.5t-3 7.5h13q-4 6 -8 11 t-10 9h14q-17 11 -39 11q-23 0 -40 -11h-63q-6 -4 -10 -9t-8 -11h16q-1 -4 -2.5 -7.5t-2.5 -7.5h23q0 -3 -1 -5h-7q-1 -2 -1 -5v-5h-51v-10h55l2 -10l2 -10h-48q2 -10 11 -20h31q9 -10 23 -15h6q9 -4 25 -4q15 0 26 4h23q14 5 23 15z" />
<glyph unicode=":" horiz-adv-x="322" d="M319 554h-15q3 -6 3 -13v-12h-42v-10h10v-20h-20v-10h21v-20h-3v-5h2v-10h1v-5h-30v-10h44v-15h-32v-20h-24v-20h-33v-7q0 -7 -3 -13h78q-7 -14 -24 -14h-174q-16 0 -23 14h-79q-3 6 -3 13v7h33v20h24v20h32v15h-44v10h30v5h-1v10h-2v5h3v20h-21v10h20v20h-10v10h42v12 q0 7 3 13h16q7 14 24 14h174q16 0 23 -14zM261 84v-15h22v-20h-6v-15h-2v-10h2q0 -4 -2 -8t-4 -7h-18q-2 -4 -6 -5h14q-5 -4 -14 -4h-174q-8 0 -15 4h-13q-2 1 -6 5h17q-2 3 -4 7t-2 8h-3v10h2v15h6v20h-22v15h7v5h13v15h-6v5h-1v20h8v20h-64v20h7v5h15v15h42v2q0 11 7 18 h-20q8 9 21 9h174q13 0 20 -9h19q7 -9 7 -18v-2h-42v-15h-15v-5h-7v-20h64v-20h-8v-20h1v-5h6v-15h-13v-5h-7z" />
<glyph unicode=";" horiz-adv-x="325" d="M62 464v15h-20v5h9v10h19v10h-3v10h-6v20h5v10h1q0 6 3 10h-7q2 3 4.5 6t5.5 4h3q5 4 14 4h174q8 0 15 -4h-4q7 -3 10 -10h6q2 -4 4 -10h-1v-10h-5v-20h6v-10h3v-10h-19v-10h-9v-5h20v-15h-5v-20h2v-20h9v-10h-7v-20h-5v-20h-11q0 -5 -3 -10h15l-3 -5h3q-2 -4 -6 -5h12 q-5 -4 -14 -4h-174q-9 0 -14 4h-12q-2 1 -6 5h-4l-3 5h-15q-3 5 -3 10h10v20h5v20h7v10h-9v20h-2v20h5zM229 129h143l-6 -15h-6l-6 -15h-124l-4 -10h52l-8 -20h20l-8 -20h51l-2 -5h-123l-4 -10h45l-6 -15h-34l-8 -20h-37l-2 -5h-1l-2 -5h53l-2 -5h-29l-4 -10h13l-7 -17 q0 -1 -0.5 -1.5t-0.5 -1.5h-78q0 -1 -2 -5h86q-4 -6 -8 -10h7q-5 -5 -13 -10h-32q-4 -1 -8.5 -2.5t-9.5 -1.5h-101q-8 0 -13 4h31q-4 3 -8 10h-6q-2 4 -2 8l1 2h-86l1 5h77l3 20h-12l1 10h29l1 5h-54l1 5h1l1 5h38l3 20h34l2 15h-45l2 10h122l1 5h-50l3 20h-20l3 20h-52 l1 10h125l2 15h6l3 15h-144l2 10h57l1 5h-74l2 15h39l1 10h48l3 20q1 10 8 20h-66q5 8 14 13.5t22 5.5h160q19 0 21 -19h66v-3q0 -4 -1 -7l-12 -30h-48l-3 -10h-39l-6 -15h74l-2 -5h-57z" />
<glyph unicode="&#x3c;" horiz-adv-x="538" d="M458 64h70v-20h-2v-10h-54v-20h46v-5h-38q-2 -11 -9 -15q-6 -3 -12 -3q-1 0 -4 0.5t-7 2.5l-22 15h38l-8 5h-46l-29 20h54l-15 10h2l-30 20h-70l-29 20h19l-7 5h27l-22 15h-17l-23 15h-2l-15 10h-4l-22 15h-4l-8 5h-12l-7 5h6l-8 5h2l-23 15l-22 15h25l-7 5h-52l-15 10 h31l-7 5h6l-14 10h2l-15 10h8l-15 10h-6l-22 15h-2l-15 10q-4 2 -7.5 5t-6.5 5h-1q-7 6 -12 15h-11q-2 6 -2 10h-28v5h22v5h35v10h-24v20h6v10h12q0 3 0.5 5.5t0.5 4.5h-20q1 8 8 15h-9q2 3 5 5.5t6 4.5h51l9 6l20 14h-56l15 10h68l15 10h-18l29 20h-23l7 5h-4l8 5l15 10h2 l14 10h1l8 5h-2l7 5h-3l7 5h5l7 5h-6l7 5h-1l8 5h-3l15 10h6l8 5h1l8 5h2l29 20h2l8 5h4l22 15h-9l23 15h8l8 5h-10l22 15h6l23 15h-7l15 10h10l8 5h-9l15 10h-16l30 20h-8l2 1q4 2 7 2.5t4 0.5q8 0 13 -4h7q9 -7 9 -17v-3h15v-10h9v-5h-11v-10h7v-15h-6v-15h9v-5h-8v-15h8 v-15h-4v-5h-2v-20h-2v-5h-2v-5h-6v-10h3v-5h1v-5h6v-5h-4v-5h3v-5h2q0 -1 -0.5 -2t-0.5 -3l-3 -10h-2q-1 -5 -6 -10l-2 -2t-2 -3h4l-6 -5h23q-4 -2 -7 -4l-6 -4l-19 -12h18l-16 -10h-68l-16 -10h56l-32 -20h-51l-16 -10h9l-24 -15h21l-16 -10h-13l-16 -10h-6l-19 -12l12 -8 h25l16 -10h-36l8 -5h-21l7 -5h28l15 -10h12l23 -15h1l32 -20h2l24 -15h6l16 -10h-8l16 -10h-2l3 -2q3 -1 6 -3.5t7 -4.5h-7q3 -1 7 -5h-32l4.5 -4.5t3.5 -5.5h52q2 -4 2 -5h-25q3 -6 3 -15v-15h-1v-5h-6v-5h12v-5h4v-15h4v-10h2v-15h18v-15h-27v-5h-20v-20z" />
<glyph unicode="=" horiz-adv-x="563" d="M513 444h13v-20h-10v-10h-5v-10h-7v-5h11v-10h-12v-22q0 -5 -1 -8h6l-2 -5q-2 -3 -4.5 -5.5t-5.5 -4.5h-6q-5 -4 -14 -4h-405q-9 0 -14 4h6q-7 3 -10 10q0 1 -2 5h-6q0 2 -0.5 4t-0.5 4v22h12v10h-11v5h7v10h5v10h10v20h-13v5h-3v20h-29v15h23q0 6 3 10h20q7 16 24 16 h405q18 0 25 -16h-20q2 -6 2 -10h-23v-15h29v-20h3v-5zM512 174v-20h14v-10h-15v-10h3v-20q-2 -14 -13 -20h1q-5 -4 -15 -4h-405q-9 0 -14 4q-11 6 -13 20v20h-3v10h15v10h-14v20h-2v15h-26v5h-7v15h3v10h29v5h-10v10h2q0 3 1 5h10q0 4 4 10h-2q2 3 5 5h5q5 3 10 5h-3 q3 1 8 1h405q5 0 7 -1h3q5 -2 10 -5h-6q3 -3 4 -5h3q4 -6 4 -10h-10q1 -2 1 -5h-2v-10h10v-5h-29v-10h-3v-15h7v-5h26v-15h2z" />
<glyph unicode="&#x3e;" horiz-adv-x="538" d="M514 304h3q0 -9 -3 -15h-2q0 -1 -2 -5h-1q-3 -4 -6.5 -7.5t-8.5 -7.5h-1q-1 -1 -3 -2t-4 -3h15q-1 0 -1 -0.5t-1 -0.5l-13 -9h10l-7 -5h-12l-23 -15h-12l-15 -10h7l-44 -30h-20l-22 -15h12l-7 -5l-58 -40h-3l-15 -10h1l-30 -20l-7 -5h-7l-8 -5h19l-15 -10h20l-29 -20h-3 l-30 -20h39l-30 -20h-57l-29 -20h38l-15 -10h-25q-3 2 -4.5 4.5t-3.5 5.5h-37q-2 4 -2 7v13h57v20h-38v20h2v20h-20v10h-18v5h7v25h-1v10h3v20h-1v25h-12q1 8 5 15h20q6 9 15 15l6 4t5 3l13 8h-7l15 10h13l24 15h12l8 5h-10l16 10h-15l32 20h1l8 5h2l24 15h-3l32 20h-1l4 2 l-5 3h-1l-16 10h-2l-8 5h4l-32 20h-15l-33 20h12l-24 15h3l-16 10h-10l-8 5h6l-16 10l-18 11q-7 4 -14 9h-12l-8.5 8.5t-7.5 11.5h33l-3 10h-63q-1 2 -1 5v5h86v10h6v20h-37v15h-43v15h-34v20h99v5h-64v20h-15v15h81v15h-15v15h-1v10h-13q2 18 21 18q2 0 4.5 -0.5t6.5 -2.5 l22 -15h13l15 -10h1l23 -15h15l22 -15h-81l22 -15h15l29 -20h65l7 -5h-100l30 -20h34l22 -15h44l22 -15h37l30 -20h-7l15 -10h-85l14 -10h64l15 -10h-32l29 -20h13l29 -20h1l15 -10h-7l8 -5h9l15 -10h-2l15 -10l4 -2t3 -3h-12q6 -4 11 -9t7 -11h16q3 -7 3 -17v-3h-4v-5h2 v-10h1v-25zM85 -10q-8 0 -13 4h26l-2 -1q-4 -2 -6.5 -2.5t-4.5 -0.5z" />
<glyph unicode="?" horiz-adv-x="653" d="M724 479h-55q0 -1 -0.5 -2t-0.5 -3h6q0 -1 -0.5 -2t-0.5 -3h-16l-3 -10h-38q-3 -11 -9 -20h22q-1 -4 -3.5 -7.5t-4.5 -7.5h-92q-4 -5 -7 -10t-7 -10h82l-12 -15h-51l-9 -10h-50q-3 -4 -6.5 -7.5l-7.5 -7.5h119l-9 -10h-81q-2 -2 -4.5 -5t-5.5 -5h45l-7.5 -7.5t-6.5 -7.5 h-12l-15 -15h27l-9 -10h-8q-1 -2 -3 -4l-4 -4q-2 -3 -6 -7h19l-2 -2t-2 -3h33q0 -1 -0.5 -1t-0.5 -1q-2 -4 -4.5 -7t-4.5 -6h-96q-6 -8 -11.5 -12t-15.5 -4h-214q-7 0 -12.5 5t-6.5 11h96v2q0 5 1 8l2 5h-33q0 2 0.5 3t0.5 2h-18l6 15h8l6 10h-27l10 15h12l11 15h-45l9 10 h80l9 10h-119l15 15h50l10 10h52l15 15h-81l20 20h93l15 15h-23q5 5 9 10.5t7 9.5h38q3 5 5 10h16q0 1 2 5h-7q1 2 1 5h55v10h-93q0 2 -0.5 3t-0.5 2h64l-3 5h-61q-3 -3 -4 -5h-49l-3 -5h-73l-6 -10h7v-1q-1 -1 -1.5 -2t-1.5 -2h48l-3 -5h-26q-3 -5 -9 -10h10q-9 -6 -22 -6 h-186q-9 0 -15 6h-10q-4 4 -7 10h26q0 2 -0.5 3t-0.5 2h-48q-1 2 -1 5h-7v10h73q1 2 1 5h48q0 3 1 5h-154v5h90q2 6 2 10h-39q2 4 2.5 7.5t1.5 7.5h-9l2 5h33l6 15h-7q2 4 3.5 7.5t3.5 7.5h19q3 5 5.5 10t6.5 10h8q1 2 2 3l2 2h-29l8 10l8 10h5l15 15h-4l5 5t6 5h10l6 5h-64 l6 5h4l15 10h31q6 4 12.5 7.5t13.5 7.5h18q9 5 22 10h26q3 2 6.5 3t6.5 2h-34q3 2 6.5 3t7.5 2h95q9 3 18 5.5t19 4.5h-105q6 2 12.5 3t13.5 2h63q36 6 80 6q46 0 82 -6h-62q7 -1 13.5 -2t12.5 -3h105q21 -5 35 -10h-95q3 -1 6.5 -2t6.5 -3h35l11 -5h-26q11 -5 19 -10h-19 q7 -4 12.5 -7.5t10.5 -7.5h-31q4 -2 7 -5l5 -5h-3l5 -5h64q2 -1 3 -2t2 -3h-10l9 -10h4q3 -4 6 -7.5t5 -7.5h-5q4 -5 7 -10t5 -10h28q2 -4 2 -5h-8q4 -9 7 -20h-19q1 -4 2 -7.5t1 -7.5h8q1 -4 1 -7.5t1 -7.5h-34q1 -2 1 -5h9v-15h17v-5t-1 -5h9q0 -1 -0.5 -2t-0.5 -3h64 q-1 -2 -1 -5h-64q0 -3 -1 -5h93q0 -4 -2 -10zM312 515h-7.5t-6.5 -1h23q-3 1 -9 1zM216 499h152l-3 5h-9q-5 7 -17 10h-3q-17 -3 -25 -10h-90zM497 213q15 0 24 -14h-96q3 -6 3 -13v-2h-27v-10h20v-20h30v-10h-5v-5h-19v-20h27v-15h12v-20h-129v-20h60v-15h-33v-5h29v-5h40 v-10h9v-2q0 -9 -7 -18h-56q-4 -4 -6 -5h-7q-5 -4 -14 -4h-183q-10 0 -15 4h7q-2 1 -6 5h57q-7 9 -7 18v2h-9v10h-40v5h-29v5h33v15h-60v20h129v20h-12v15h-27v20h19v5h5v10h-30v20h-20v10h27v2q0 7 3 13h96q9 14 24 14h183z" />
<glyph unicode="@" horiz-adv-x="856" d="M81 409q1 4 2 7.5t2 7.5h-62q2 4 3 7.5t2 7.5h47q3 11 7 20h-50l4 10l4 10h35l8 15h-2q3 5 5 10h41l12 20h-22q2 2 3.5 5t3.5 5h30q1 2 4 5h-54l7 10h6q4 6 8 10h4l9 10h5q1 2 2 3l2 2h-36l3 3l2 2h-5q4 4 8 7.5t8 7.5h32l6 5h-25l13 10h28q8 5 15.5 10.5t14.5 9.5h-37 l18 10h33q11 5 22.5 10.5t23.5 9.5h-4q34 12 72 18.5t81 6.5q56 0 101.5 -6.5t82.5 -18.5h4q14 -4 26 -9t23 -11h-33l19 -10h36q8 -4 15.5 -9.5t14.5 -10.5h-28l12 -10h25l6 -5h-33q5 -4 8.5 -7.5l7.5 -7.5h5l5 -5h36l2 -2t2 -3h-4q4 -6 8 -10h-5l7 -10h6l7 -10h11l3 -5h58 l6 -10h-107q2 -5 5 -10t5 -10h10q2 -2 3 -5t2 -5h-21l6 -15h55l4 -10t3 -10h27q2 -5 3 -10l2 -10h-50l3 -15h11l3 -15h-124q-1 4 -2 7.5t-2 7.5h-11q-1 4 -2 7.5t-2 7.5h50q-3 9 -8 20h-27q-4 10 -11 20h-55q-3 4 -5.5 7.5t-6.5 7.5h21l-9 10h-11q-10 10 -25 20h107 q-8 5 -19 10h-57q-3 2 -6 3l-6 2h-11q-7 3 -15 5.5t-16 4.5h-6q-13 3 -26.5 6t-29.5 4h5q-18 2 -37.5 3t-42.5 1q-16 0 -30.5 -1t-28.5 -3h-4q-12 -1 -23.5 -4t-22.5 -6h-5q-7 -2 -13.5 -4.5t-13.5 -5.5h54l-11 -5h-30q-4 -2 -8.5 -4.5t-9.5 -5.5h23q-7 -4 -14 -9.5 t-13 -10.5h-40q-3 -2 -5.5 -5t-5.5 -5h2l-13 -15h-35q-4 -4 -7 -9.5t-6 -10.5h50q-3 -4 -5.5 -9.5t-5.5 -10.5h-47l-6 -15h62q-1 -4 -2.5 -7.5t-2.5 -7.5h-130zM888 374h2q1 -4 1.5 -8.5t0.5 -9.5v-2h-38q1 -2 1 -5v-5h-40q1 -4 1 -7.5v-7.5h-110v-20h107v-15h25v-10h-18 v-15h6v-20q0 -3 -1 -5h3q-1 -2 -1 -5v-5h-58q0 -5 -0.5 -10t-1.5 -10h104l-2 -10t-3 -10h-11q0 -1 -2 -5h-37q-3 -9 -8 -20h-30l-3 -5h-58q-3 -5 -6.5 -10t-6.5 -10h-104l-9 -10h260l-2 -2l-3 -3h-215q-4 -4 -8 -7.5t-9 -7.5h115q-1 -1 -3 -2t-4 -3h-6q-13 -9 -27 -15h40 l-6 -2t-6 -3h1q-13 -5 -28 -7.5t-29 -2.5q-20 0 -38 3t-32 7h-2q-4 2 -7.5 3t-6.5 2h-41q-6 2 -11.5 5t-10.5 6q-2 -3 -5.5 -5.5t-6.5 -5.5h-7q-1 -1 -3 -2t-4 -3h21q-8 -5 -22 -10h-12q-14 -4 -32.5 -7t-43.5 -3q-32 0 -56 10h12q-5 2 -10 4.5t-10 5.5h-22q-1 2 -3 3l-4 2 h6q-9 6 -18 15h-82l-5 5h-66q-7 8 -12 15h215l-3 5h-221l2 -5h-11l6 -15h-1l2 -5h72l8 -15h-2l3 -5h-1l6 -10h64q4 -5 7.5 -10t7.5 -10h61l10 -10t11 -10h-150l13 -10h68q4 -3 7.5 -5.5t7.5 -4.5h-89q16 -9 31 -15h86q3 -1 6.5 -2t6.5 -3h-40q30 -10 66 -15h-6 q15 -2 31.5 -3t35.5 -1q27 0 48.5 1t38.5 3h37q34 4 60 15h-37q2 2 5 3t5 2h94q7 3 12.5 7t11.5 8l6 4q6 4 8 6h-35q7 5 12.5 7t13.5 2h98q14 0 21 -9h36q4 -6 5 -10q1 -3 1 -9q0 -1 -0.5 -2.5t-0.5 -3.5h-95l-3 -5h37l-3 -4q-2 -3 -4.5 -5.5t-4.5 -5.5h-37q-9 -10 -20 -20 h22q-12 -12 -24 -20h-14l-13 -10h-5q-1 -1 -3 -2t-4 -3h-41l-16 -10h39q-7 -4 -13.5 -7.5t-14.5 -7.5h8q-6 -2 -11.5 -5t-11.5 -5h-28q-15 -6 -31 -11t-33 -9h-48q-13 -3 -27 -5.5t-28 -4.5h-42q-19 -2 -39 -3.5t-42 -1.5t-42.5 1.5t-39.5 3.5h42q-15 2 -28.5 4.5t-26.5 5.5 h48q-32 7 -62 20h28q-13 5 -22 10h-8q-7 4 -14 7.5t-14 7.5h-39l-15 10h41q-1 2 -3 3l-4 2h4l-13 10h14q-6 5 -11.5 10t-10.5 10h-22q-4 5 -8.5 10t-9.5 10h7l-12 15h41q-1 2 -2 3l-2 2h-86q-2 4 -4.5 7.5t-5.5 7.5h89l-6 10h-68q-1 2 -2 5t-3 5h149q-2 5 -5 10t-5 10h-61 l-4 10l-4 10h-64q-1 2 -2 5t-2 5h1q0 2 -0.5 3t-0.5 2h1q-1 4 -2 7.5t-2 7.5h-73q0 2 -0.5 3t-0.5 2h1q-1 4 -2 7.5t-2 7.5h11q-1 2 -1 5h90l-6 10h104q-3 5 -5.5 10t-4.5 10h-104q-1 2 -1 5h-6q0 4 -0.5 8t-0.5 8v4h-33v5h-11v10t-1 10h-26v20h35v10h-95q0 3 -1 5h118v20 h-9v15h21v10h-78v15h13v10.5t1 9.5h8q1 4 1 7.5v7.5h94v10h47v2q0 5 0.5 9.5t1.5 8.5h-38l3 20h129l-5 -20h38l-3 -20h-46q0 -2 -1 -3v-7h-94q0 -3 -0.5 -7t-0.5 -8h-9v-9.5t-1 -10.5h-12v-7.5t-1 -7.5h78v-10h-21v-15h10v-20h-118v-5h95v-10h-35q0 -5 0.5 -10t0.5 -10h26 q1 -5 1 -10t1 -10h10q0 -3 1 -4v-1h32l3 -20h5q1 -2 1 -5h35q0 1 -2 5h31q-2 5 -3.5 10t-3.5 10h37l-2 5h-13l-2 10l-2 10h-5l-3 20h-7q-1 2 -1 5v5h28q-1 2 -1 5h-49v20h7v15h41q1 2 1 5v5h-39q0 4 0.5 7.5t0.5 7.5h-19q0 5 0.5 10t1.5 10h61q0 4 0.5 7.5t1.5 7.5h-7 q0 4 2 10h50l6 20h-2q3 9 8 20h-84l3 15h16q2 4 4.5 7.5t5.5 7.5h5l13 15h-14q6 6 12.5 11t13.5 9h13q16 9 34 14t39 5q48 0 74 -19h-13q11 -7 21 -20h14l2 -2t2 -3v5h10v4q0 9 5 16h-25q8 11 22 11h72q14 0 22 -11h25q5 -7 5 -16v-4h-10v-15h-6v-15h-7v-15h80v-20h3v-20 h-56v-10h-28v-15h76v15h40q-1 2 -1 7v3h38q0 5 -0.5 10.5t-1.5 9.5h-2l-3 20h96l-3 15h125l3 -15h-96zM531 354q-10 3 -23 3t-22 -3h45zM702 234q0 2 0.5 4.5t0.5 5.5h-2v25h-87v15h-125l-1 10h-27l-3 15h8q-1 6 -3 11t-4 9h19q-3 5 -5.5 8.5t-6.5 6.5h28q-8 7 -19 10h-40 q-10 -3 -18 -10h8q-6 -6 -12 -15h-60q-4 -8 -7 -20h19q-1 -4 -1.5 -7.5t-0.5 -7.5h38v-10h-42v-15h-7v-10t1 -10h49q0 -3 1 -5h-28q1 -3 1 -5.5t1 -4.5h8q3 -11 8 -20h5q8 -14 24 -20h14q9 -4 25 -4t27 4h12q16 6 24 20h-100q3 4 5 9t3 11h47q0 2 0.5 4.5t1.5 5.5h-53v5h59 q0 5 0.5 10t0.5 10h126v-20h-58v-5h53q0 -3 0.5 -5.5t0.5 -4.5h-46q3 -13 9 -20h62q4 4 6 9t3 11h58zM712 294h-25v15h-99v-15h27v-10h97v10zM706 200q23 0 34 14h-67q11 -14 33 -14zM50 164q2 -5 3 -10l2 -10h-129l-3 20h127zM378 125q-2 -5 -7 -11h19q-4 3 -7 5.5t-5 5.5z M512 109q-1 2 -3 3l-4 2h-68q-1 -2 -4 -5h79z" />
<glyph unicode="A" horiz-adv-x="755" d="M767 54l7 -20h-17l2 -5q0 -1 0.5 -2.5t0.5 -2.5h-6v-2q0 -12 -9 -18h1q-5 -4 -13 -4h-185q-7 0 -11.5 1.5t-9.5 2.5q-8 4 -12 9.5t-6 10.5h5v1l-2 4l-2 5h17l-7 20h-19l-3 10h41l-7 20h-12l-3 7h-215l-2 -7h-12l-7 -20h-11l-4 -10h-6l-7 -20h1l-2 -5l-1 -4l-1 -1h-5 q-2 -5 -6 -10.5t-12 -9.5h30q-4 -1 -9 -2.5t-12 -1.5h-185q-8 0 -12 4h-30q-10 7 -10 18v2h6q0 3 1 5l1 5h-1l7 20h6l4 10h11l7 20h11l7 20h-39l4 10h-3l5 15h10l2 5h-22l7 20h34l3 10h-31l2 5h5l7 20h-3l5 15h4l7 20h13l5 15l2 5h50l2 5h-3l5 15h-56l7 20h18l2 5h-11l2 5 h32l7 20h-39l4 10h15l7 20h-9l5 15h11l7 20h-3l2 5h-23l4 10h22l5 15h-10l1 5h18l7 20h-22l5 15h-11l3 10h-69l3 10h-13l7 20h-13l6 15h39l7 20h100l5 15h-48l4 10h37l7 20h-33l5 15h21l7 20h-3l7 20h-28l1 5h96l7 20h-3l2 5h-35l4 13l3 7h10l6 10h-3q5 7 14 11.5t22 4.5 h217q13 0 22 -4.5t14 -11.5h4l6 -10h-10q2 -4 2 -7l5 -13h35l1 -5h3l7 -20h-95l2 -5h28l7 -20h3l7 -20h-21l5 -15h33l7 -20h-37l4 -10h48l5 -15h-100l7 -20h-39l5 -15h12l7 -20h-39l4 -10h159l3 -10h-8l5 -15h-20l7 -20h-24l1 -5h36l5 -15h1l4 -10h-33l2 -5h32l7 -20h11 l5 -15h-3l7 -20h16l4 -10h-29l7 -20h20l1 -5h-5l2 -5h-18l6 -20h57l5 -15h3l2 -5h-51l2 -5h1l5 -15h-13l7 -20h-5l6 -15h3l7 -20h-5l2 -5h31l4 -10h-35l7 -20h22l2 -5h-10l6 -15h2l4 -10h39l7 -20h12l7 -20h-41l3 -10h19zM349 449h12l-5 -15h41l-5 15h8l-3 10h-45zM382 414 l-5 17l-5 -17h10zM322 294l-2 -5h11l-1 -3h113l-1 3h5l-1 5h-20l-6 20h29l-3 10h-17l-6 20h3l-4 15h-11l-6 20h-32l-2 5h33l-3 10h-1l-5 15h-32l-4 -15h-22l-3 -10h22l-1 -5h3l-6 -20h-11l-5 -15h9l-6 -20h-15l-3 -10h39l-6 -20h-32z" />
<glyph unicode="B" horiz-adv-x="734" d="M728 99h-87l-10 -15h82l-9 -10h-68l-5 -5h9q-12 -12 -24 -20h16q-7 -5 -16 -10h-5l-9 -5h2q-2 -1 -5 -2t-5 -3h-3q-10 -4 -21 -8t-23 -7h2q-13 -3 -26 -5.5t-27 -4.5h3q-16 -2 -33.5 -3t-36.5 -1h-342q-9 0 -14 4h-4q-5 3 -9 10h-2q-3 6 -3 13v2h3v5h-2v5h5v10h-16v20h-9 v5h68v10h-83v15h87v20h-72v5h-1v10h53v10h-37v10h33v15h-29v15h18v5h-15v30h-7v10h5v15h-6v15h-17v10h-21v10h53v5h-71v5h67v5h-18v5h11v10h-7v15h1v15h4v5h3v10h24v20h16v15h-37v20h-7v10h-12v15h16v20h-26v5h28v5h34v10h15v5h-76v15h28v15h-4v10h1v10h-3v15h-2v5h17v5h-32 v15h11v5h4v25h5v5h-56v5h25v15h56v15h-84v5h27v10h7v20h-2q0 8 5 15h36q8 11 21 11h332q33 0 61.5 -3t53.5 -8h-35q13 -3 25.5 -6.5t22.5 -8.5h2q11 -4 20 -9t18 -11h-7q4 -2 7.5 -5t6.5 -5h-27l6 -5h84l7.5 -7.5t6.5 -7.5h-56q3 -4 6 -7.5t5 -7.5h-25l3 -5h56l3 -5h-5 q3 -5 5 -10q2 -4 4 -7.5t3 -7.5h-5l2 -5h-11q2 -4 3 -7.5t2 -7.5h32q0 -1 0.5 -2t0.5 -3h-17q1 -2 1 -5h2l3 -15h3v-5t1 -5v-5t1 -5h-1q1 -4 1 -7.5v-7.5h-9v-4q0 -3 -0.5 -5.5t-0.5 -5.5h18q0 -1 -0.5 -2t-0.5 -3h-11l-1 -10h15q0 -3 -1 -5h-13q-1 -2 -1 -5q-3 -9 -8 -20 h-16l-8 -15h12q-2 -2 -3.5 -5t-3.5 -5h6q-8 -12 -18 -20h38q-10 -10 -19 -15h-16q-7 -6 -15 -9q5 -2 10.5 -5t10.5 -6h-24q6 -4 14 -10h-3l6 -5h-4l15 -15h-1q3 -4 6 -7.5t5 -7.5h7l6 -10h-11l3 -5h18q0 -1 2 -5h-67l3 -5h71q0 -1 2 -5h-53q2 -2 2.5 -5t1.5 -5h37l3 -10h5 l3 -15h-1q1 -4 1.5 -7.5t0.5 -7.5h-1v-10h-1v-10h4q0 -5 -0.5 -10t-1.5 -10h29q0 -1 -0.5 -2t-0.5 -3h-28q-1 -4 -1 -7.5t-1 -7.5h28l-3 -15h-33l-3 -10h38l-4 -10h-53q-1 -2 -1.5 -5t-2.5 -5h1q0 -1 -2 -5h72q-4 -10 -11 -20zM279 459v-5h26v-17h84q23 0 33 17l3 5h13l2 5 h-16l3 10h11v5h-18q1 1 1 3q0 3 -0.5 6t-1.5 6h10q-1 8 -6 15q-1 3 -3.5 5.5l-4.5 4.5q-5 4 -11.5 6.5t-14.5 2.5h-84v-9h-1v-10h4v-15h-28v-15h76v-5h-15v-10h-34v-5h-28zM308 189h15v-5h-18v-12h93q11 0 18.5 3.5t13.5 8.5h28q1 2 2 3l2 2h-28q6 9 9 20h-4q1 2 1 5v5h1v10 h1q-1 4 -2 7.5t-3 7.5h1q-5 10 -11 15h-5q-7 7 -20 10h-37q-3 1 -10 1h-93v-1h21v-10h17v-15h6v-15h-5v-10h7v-30z" />
<glyph unicode="C" horiz-adv-x="733" d="M845 479v-5h-24q1 -5 1 -10v-10h-175q0 -13 -13 -20q-6 -2 -9 -2h-204q-4 0 -8 0.5t-8 1.5h-163v-5h88q-1 -5 -1 -10v-10h-35q-1 -2 -1 -5v-5h3v-10h-15v-20h48v-5h-162v-10h51v-20h103v-5h-42v-5h-27v-20h77q1 -4 1 -7.5v-7.5h28v-5h-129v-10h-29v-5h130v-1h200 q19 0 22 -19h148v-15h-7l-2 -20h-11l-1 -10h26q0 -3 -1 -5h-6q-1 -2 -1 -5h33l-3 -15h-31q0 -1 -0.5 -2t-0.5 -3h-8q-1 -4 -2.5 -7.5t-2.5 -7.5h12q0 -1 -2 -5h-20q-2 -5 -4.5 -10t-5.5 -10h20l-9 -15h9l-10 -15h-6q-4 -5 -8.5 -10t-9.5 -10h-8l-2 -2l-3 -3h-43l-5 -5h201 l-12 -10t-13 -10h-11q-10 -7 -24 -15h-211q-10 -6 -21 -10.5t-22 -9.5h165q-3 -1 -6.5 -2t-7.5 -3h-40l-8 -2t-8 -3h-72q-36 -10 -74 -15h16q-16 -2 -33 -3t-34 -1q-19 0 -36.5 1t-34.5 3h-16q-40 5 -74 15h72q-4 2 -7.5 3t-7.5 2h41l-14 5h-165q-10 5 -20.5 9.5t-20.5 10.5 h212q-6 4 -12 7.5t-11 7.5h11q-12 9 -23 20h-202q-1 2 -2 3t-3 2h44q-1 2 -2.5 3t-2.5 2h8q-9 10 -17 20h6l-9 15h-9l-9 15h-20l-9 20h21l-2 5h-13q-1 4 -2 7.5t-3 7.5h8l-2 5h31q-1 4 -2 7.5t-2 7.5h-16q-1 2 -1 5h-17q-1 2 -1 5h1q0 4 -2 10h-57l-3 20h77q-1 4 -1 7.5 t-1 7.5h19v6t-1 6v8h-130v5h29v10h129v5h-28q0 4 -0.5 7.5t-0.5 7.5h-77v20h27v5h42v5h-103v20h-51v10h162v5h-48v20h15v10h-3v10h36v20h-87v5h192v5q1 4 1 7.5v7.5h-53q0 5 0.5 10t1.5 10h32q1 2 1 5h-207q1 2 1 5t1 5h182l5 20h-41l3 10h-67l2 5h22q1 2 2 5t2 5h-11l4 10 h5q2 4 4 7.5t3 7.5h1l9 15h-3q2 4 4.5 7.5t5.5 7.5h-8q4 5 8 10.5t8 9.5h-9q1 2 2 3l2 2h-10l5 5h-2l3 3l2 2h-18l5 5t6 5h24q5 4 10 7.5t10 7.5h-11l8 5h-17q2 2 4 3l4 2h52q7 4 14 7.5t14 7.5h-3q6 3 12 5.5t12 4.5h19q3 2 6.5 3t7.5 2h-30q30 11 64 15h27q39 6 82 6 q42 0 81 -6h-26q33 -4 66 -15h30q4 -1 7.5 -2t7.5 -3h-19q15 -5 25 -10h3l15 -7.5t14 -7.5h-51l4 -2t4 -3h17l4 -2t3 -3h11l20 -15h-25l12 -10h18l6 -5h1l5 -5h10l5 -5h9q4 -4 8 -9.5t8 -10.5h7q3 -4 5.5 -7.5t4.5 -7.5h3q2 -4 4 -7.5t4 -7.5h-2q2 -4 4 -7.5t3 -7.5h-5 l3 -10h11l3 -10h-22q0 -1 0.5 -2t0.5 -3h67q0 -4 2 -10h-91l3 -20h58l1 -10h121zM386 509h71q-16 6 -36 6t-35 -6zM559 461q-1 4 -2 7t-3 6h24l-3 5h-120q-1 3 -3 5.5t-4 4.5h-227q-1 -2 -2.5 -4.5t-3.5 -5.5h207l-2 -5h-32q-2 -4 -3 -9.5t-2 -10.5h179zM441 249h-128l3 -15 h-77q2 -6 4 -10.5t5 -9.5h57q2 -3 4 -5.5t4 -4.5h-2l5 -5h17q2 -1 4 -2.5t4 -2.5h16q17 -9 41 -9t40 9h-33l8 5h6l6 5h-26l4.5 4.5t3.5 5.5h11q6 9 10 20h7l2 5q2 6 4 10z" />
<glyph unicode="D" horiz-adv-x="740" d="M817 544q2 -4 4 -7.5t3 -7.5h-37q2 -4 4 -9.5t4 -10.5h-157l6 -20h81l3 -15h-11q1 -2 1 -5t1 -5h-27l1 -10h21q0 -4 0.5 -7.5t0.5 -7.5h37q1 -4 1 -7v-7v-1h-94q0 -5 0.5 -10t0.5 -10h21q0 -5 0.5 -10t0.5 -10h36v-5h-14v-20h4v-15h59v-20h-56v-10h-6v-5t-1 -5h-18v-20h2 q-1 -3 -1 -8v-2h37q0 -4 -0.5 -7.5t-0.5 -7.5h15q0 -5 -0.5 -10t-1.5 -10h-22q-1 -2 -1 -5t-1 -5h-120q0 -4 -2 -10h105q-2 -6 -2 -10h15q-1 -4 -1.5 -7.5t-2.5 -7.5l-3 -10h-29l-2 -5h47q-2 -4 -2 -5h-30l-2 -5h-1l-4 -10t-5 -10h-15l-11 -20h17l-6 -10h1q-2 -2 -4 -5 t-4 -5h-7q-3 -3 -4 -5q-3 -4 -6 -7.5t-7 -7.5h-3q-5 -5 -10.5 -10t-11.5 -10h9l-21 -15h1q-8 -5 -17 -10t-19 -10h-1q-10 -5 -25 -10h1q-20 -7 -42 -12t-45 -8h21q-16 -2 -33 -3t-35 -1h-293q-9 0 -14 4h-21q-10 6 -12 20h-1v10h2v20h-2v15h-8v20h3v15h-1v5h8v10h-1v10h-18 v20h16v20h1v5h30v5h-46v5h29v25h-14v10h-1v10h26v10h-115v20h-4v15h13v10h41v20h26v10h15v10h16v20h23v15h22v20h-67v5h-22v20h-44v20h114v15h-88v15h48v10h-2v10h-8v15h-43v20h156v20h37v15h-180v20h118v5h-93v5h189v20h-24v5h-238v20h29v15h62v5h33v10h-18v5h-21v10h2v9 q0 2 0.5 3.5t0.5 2.5h4q5 21 27 21h288q77 0 140 -21h-4q18 -6 37 -15h-2q5 -2 10.5 -4.5t9.5 -5.5h21l9 -5h17q5 -2 8.5 -5t7.5 -5h-33l4 -2t3 -3h-62l19 -15h-30q11 -9 20 -20h238l2 -2t2 -3h25q4 -4 8 -9.5t7 -10.5h-189l2 -2t2 -3h93l3 -5h-118q7 -10 11 -20h180z M464 474q-6 9 -15 15h-81q-22 16 -54 16h-60v-16h43v-15h8v-10h2v-10h-48v-15h88v-15h-114v-20h44v-20h22v-5h67v-20h-22v-15h-23v-20h-16v-10h-15v-10h-26v-20h-41v-10h-13v-15h4v-20h115v-10h-26v-10h1v-10h14v-14h65q29 0 49 14h-16q3 2 6 4.5t5 5.5h-104q2 2 4 4.5 t3 5.5h120q2 2 3 4.5t2 5.5h23q2 5 3 10l2 10h-15q1 4 1 7.5t1 7.5h-37v2q0 2 0.5 4t0.5 4h-2v10.5t1 9.5h18v10h6l1 10h56v20h-59v15h-4v20h14v5h-37v20h-22v10t-1 10h94v1q0 4 -0.5 7.5t-0.5 6.5h-37q-1 4 -2 7.5t-2 7.5h-21q-1 3 -2 5.5t-2 4.5h27q-1 3 -2.5 5.5 t-3.5 4.5h11z" />
<glyph unicode="E" horiz-adv-x="667" d="M687 174h79v-15h-152v-20h98v-20h-86v-20h11v-15h-7v-10h-21v-10h-1v-10h21v-20h29v-7q0 -2 -1 -3h-178q-1 -2 -1 -5h69q-3 -10 -11 -15h-19q-5 -4 -14 -4h-521q-8 0 -15 4h19q-7 5 -11 15h-70q-1 2 -1 5h179v10h-29v20h-21v10h1v10h21v10h7v15h-11v20h86v20h-98v20h152 v15h-79v10h23v10h10v10h-111v10h-26v15h93v5h-74v10h22v10h16v15h-2v20h-10v20h-15v10h12v20h-11v10h16v15h4v15h18v5h-17v20h-15v15h4v15h2v20h15v20h-22v20h3v20h28v15h-15v15h-8v5h42v15h74v10h-30v10h-97v5h11v15h1v15h3v20h-1v25h-2v9q0 4 1 6h-10q4 21 26 21h513 q23 0 26 -21h10q1 -2 1 -6v-9h2v-25h1v-20h-3v-15h-1v-15h-11v-5h97v-10h30v-10h-74v-15h-42v-5h8v-15h15q-2 -10 -7 -15h-28q-7 -9 -20 -9h-300v-11h-3v-20h22v-20h-15v-12h278q11 0 19 -8h-2q5 -5 7 -15h-3v-15h15v-20h17v-5h-18v-15h-4v-15h-16v-10h11v-20h-12v-10h15 v-20h10v-4q0 -11 -5 -16h2q-8 -11 -22 -11h-278v-4h-16v-10h-22v-10h74v-5h-93v-15h26v-10h111v-9h308q5 0 8 -1h-11q10 -3 15 -10h-23q4 -6 5 -10z" />
<glyph unicode="F" horiz-adv-x="646" d="M562 524v-3q0 -9 -6 -17h138q-7 -10 -21 -10h-286v-5h-76v-15h-34v-20h34v-15h-9v-15h-4v-4h266q10 0 17 -6h2q5 -4 8 -10h-6q3 -4 3 -11v-9h-4v-5h26v-20h-23v-10h6v-15h3v-5h9v-15h-15v-5h-51v-20h-12v-15h76v-20h-28v-12q0 -5 -1 -8h-2q-4 -11 -12 -15h-20 q-5 -4 -14 -4h-266v-11h30v-10h45v-15h-94v-10h86v-15h-65v-5h50v-20h-28v-20h13v-5h-6v-20h16v-5h-7v-5h-14v-10h14v-10h-14v-15h47v-5h31v-7q0 -1 -0.5 -1.5t-0.5 -1.5h84q0 -3 -1 -5h-140q-2 -9 -11 -15h72q-5 -4 -14 -4h-191q-9 0 -14 4h-73q-7 5 -11 15h139q0 3 -1 5 h-83v10h-31v5h-47v15h14v10h-14v10h14v5h7v5h-16v20h6v5h-13v20h28v20h-50v5h65v15h-86v10h94v15h-45v10h-30v15h20v15h2v20h28v20h-76v15h12v20h51v5h15v15h-9v5h-3v15h-6v10h23v20h-26v5h4v20h5v10h-2v10h4v15h9v15h-34v20h34v15h76v15h-138v20h152v15h-147v10h4v10h85v20 h-37v20h17v20h-26v20h3v15h-9v15h5v4q0 4 1 6h-40q1 5 3.5 8.5t5.5 6.5h-8q8 6 17 6h504q10 0 17 -6h8q7 -5 10 -15h39q1 -2 1 -6v-4h-5v-15h9v-15h-3v-20h26v-20h-17v-20h37v-20h-85v-10h-4v-10h147v-15h-152z" />
<glyph unicode="G" horiz-adv-x="753" d="M693 319h131v-20h-39v-20h-56v-14q0 -4 -0.5 -8t-0.5 -8h3q0 -4 -0.5 -7.5t-0.5 -7.5h-9v-5t-1 -5h-92q-1 -2 -1 -5t-1 -5h1l-3 -15h72q-1 -4 -2 -7.5t-2 -7.5h11q-1 -5 -3 -10l-4 -10h13l-4 -10h-15q-2 -5 -4.5 -10t-5.5 -10h40l-6 -10h8q-2 -2 -3.5 -5t-3.5 -5h-57 l-2 -2t-2 -3h65q-4 -6 -8 -10h-16q-3 -4 -6.5 -7.5l-7.5 -7.5h35l-16 -15h-11l-6 -5h-30q-9 -7 -21 -15h-6q-6 -4 -12.5 -7.5t-13.5 -7.5h-19l-11 -5h-26q-19 -9 -37 -15h-25q-27 -9 -57 -15h-19q-8 -1 -16.5 -2.5t-16.5 -2.5h27q-16 -2 -33.5 -3t-35.5 -1q-19 0 -36.5 1 t-34.5 3h-26q-9 1 -17 2.5t-16 2.5h19q-30 6 -57 15h25q-18 6 -36 15h27q-3 2 -5.5 3t-4.5 2h20q-7 4 -13 7.5t-12 7.5h7l-20 15h30l-6 5h11l-15 15h-34q-4 4 -7 7.5t-6 7.5h16q-1 2 -3 5t-4 5h-65l-3 5h57l-6 10h-7l-6 10h-40l-9 20h15q-1 2 -2 5t-2 5h-13q-2 5 -3.5 10 t-3.5 10h-11q-1 4 -2 7.5t-2 7.5h-8q-1 4 -2 7.5t-2 7.5h-56q-1 2 -1 5t-1 5h92v5t-1 5h-11q-1 4 -1.5 7.5t-0.5 7.5h40v7.5t-1 7.5h38v15h-113v20h84q-1 5 -1 10v10h13v10h-83v10h9v15h27v10h-14v5h-5v20h1v20h3v5h3v5h-19v5h21v5h-5q1 4 1 7.5v7.5h8v5h-16q0 5 0.5 10 t0.5 10h7q1 2 1 5t1 5h5l3 15h-34l3 15h30q2 5 3 10.5t3 9.5h12l2 5h-7q1 4 2.5 7.5t2.5 7.5h-1q2 4 3.5 7.5t3.5 7.5h-3l9 15h8l3 5h-9l11 15h60q3 3 4 5h-56l9 10h-5l15 15q6 5 12 10.5t13 9.5h1q8 5 16 10.5t17 9.5q5 3 10.5 5.5t10.5 4.5h2q21 9 45 15h-1q30 8 63.5 12 t69.5 4q38 0 71.5 -4t64.5 -12q25 -6 47 -15h-2q6 -2 12 -4.5t12 -5.5q10 -4 19 -9.5t18 -10.5h-1q8 -4 14.5 -9.5t13.5 -10.5h-1q5 -4 9 -7.5t8 -7.5h5l9 -10h56l5 -5h-61q4 -4 6.5 -7.5t5.5 -7.5h9l3 -5h-8q2 -4 4.5 -7.5t3.5 -7.5h3q2 -4 4 -7.5t3 -7.5h2q2 -4 3 -7.5 t2 -7.5h8q0 -1 0.5 -2t0.5 -3h-12q2 -5 2.5 -10t1.5 -10h2q0 -4 0.5 -7.5t0.5 -7.5h16q1 -2 1 -7q0 -4 -2 -8h-17q-2 -7 -8 -10h7q-5 -4 -13 -4h-221q-13 0 -20 4h-7q-6 4 -8 7l-3 3h18q-2 3 -5 7t-8 8h-16q-10 10 -23 15h-2q-13 6 -34 6t-36 -6h-30q-13 -4 -22 -15h34 q-5 -5 -10 -15h-6q-1 -2 -2 -4.5t-2 -5.5h-7q-1 -4 -2 -9.5t-2 -10.5h17q-1 -2 -1 -5h-8v-15h4v-5h-21v-5h19v-5h-3v-5h-3v-20h-1v-20h5v-5h14v-10h-27v-15h-9v-10h83v-10h-13q0 -5 0.5 -10t0.5 -10h-84v-20h113v-15h-37q0 -4 0.5 -7.5t0.5 -7.5h-40q1 -4 2 -7.5t2 -7.5h11 q1 -3 2 -5.5t2 -4.5h-92q1 -5 6 -10h56q6 -9 15 -15h9q18 -14 51 -14q17 0 32 3.5t25 10.5h-71q8 5 16 15h-1q4 6 5 10h93l3 10h9q1 4 1.5 7.5t0.5 7.5h-3l1 7v1h-47q-10 0 -19 7q-7 7 -8 15h57q-1 2 -1 5v15h39v20h-131v10h53v10h-37v15h10v10h7v5h-8v20h3v6q0 9 4 14h-4 q1 2 4 5h6q4 4 6 5h-18q5 3 12 3h275q8 0 12 -3h19q3 -1 7 -5h-6q3 -3 4 -5h4q4 -5 4 -14v-6h-3v-20h8v-5h-7v-10h-10v-15h37v-10h-53v-10z" />
<glyph unicode="H" horiz-adv-x="772" d="M761 234v-5h78v-10h-4v-15h-207v-5h36v-15h110v-10h-57v-20h-3v-5h-66v-15h98v-5h4v-15h10v-20h-193v-15h204v-10h-68v-15h-9v-10h23v-10h-15v-10h35l-3 -10h47q-2 -3 -4.5 -5.5t-5.5 -4.5h23q-5 -4 -14 -4h-196q-9 0 -14 4h-23q-7 3 -10 10h-47l-3 10h-35v10h15v10h-23 v10h9v15h68v10h-181v-10h-83v-15h57v-10h-14v-10h52v-10h-56l-3 -10h22q-4 -7 -9 -10h-24q-5 -4 -14 -4h-196q-10 0 -15 4h24q-5 3 -9 10h-23q-3 5 -3 10h56v10h-52v10h14v10h-57v15h83v10h48v15h-154v20h57v15h40v5h-28v15h-47v5h10v20h32v10h15v15h-72v5h185v15h-226v10 h213v5h-104v15h60v5h12v5h-5v20h-99v15h33v5h-9v15h4v5h1v10h1v5h-13v5h-39v15h13v15h-20v15h50v20h-11v10h-73v5h117v10h28v5h-270v5h159v5h57v15h-102v20h-28v15h120v20h10v15h64v5h-55v20h45v10h-54v5h-19v10h-29v10h-35v20h63v15h38v15h-18v10h-25v5h14v10h-3v9 q0 7 3 11h64q1 3 3 5.5t4 4.5h154q6 6 17 6h384q10 0 17 -6h154l4.5 -4.5t3.5 -5.5h-129q2 -6 2 -11v-9h5v-10h14v-5h-27v-10h-12v-15h39v-15h-94v-20h108v-10h-78v-10h32v-5h-16v-10h75v-20h-110v-5h85v-15h-15v-20h-80v-15h-33v-20h102v-15h-57v-5h-159v-5h270v-5h-28v-10 h-117v-5h73v-10h11v-20h-50v-15h20v-15h-13v-15h39v-5h13v-5h-1v-10h-1v-5h-4v-15h9v-5h-33v-15h99v-20h5v-5h-12v-5h-60v-15h40zM175 494v-15h28v-16h162v16h33v15h80v20h15v15h-85v5h110v20h-75v10h16v5h-32v10h78v10h-108v20h94v15h-39v15h12v10h27v5h-14v10h-5v9 q0 5 2 11h129q2 3 4 5.5t4 4.5h-266q5 -4 8 -10h-64q2 -3 2 -11v-9h3v-10h-14v-5h25v-10h18v-15h-38v-15h-63v-20h35v-10h29v-10h19v-5h54v-10h-45v-20h55v-5h-64v-15h-10v-20h-120zM589 219v10h-78v5h-40v9h-162v-9h104v-5h-213v-10h226v-15h159v15h4zM524 184h-110v15h-36 v5h-137v-5h72v-15h-15v-10h-32v-20h-10v-5h47v-15h28v-5h-40v-15h-57v-20h276v20h-10v15h-4v5h-98v15h66v5h3v20h57v10z" />
<glyph unicode="I" horiz-adv-x="368" d="M437 529h-163v-20h65v-20h86v-15h-97v-5h12v-20h-25v-5h-2v-5h-25v-20h47v-5h2v-5h-11v-15h-7v-5h33v-20h-80v-20h29v-15h16v-20h2v-20h-8v-25h9v-10h-6v-15h-1v-5h-8v-20h9v-10h-1v-60h1v-20h17v-20h-14v-10h-4v-10h12v-20h-17v-5h25v-10h9v-5h-8v-15h-4v-7 q0 -2 -0.5 -4t-1.5 -4h-25q-1 -5 -6 -10h28q-4 -4 -6 -5h-57q-5 -4 -14 -4h-204q-9 0 -14 4h57q-4 1 -6 5h-28q-5 5 -6 10h26q-1 3 -1 8v7h4v15h8v5h-9v10h-25v5h17v20h-12v10h4v10h14v20h-17v20h-1v60h1v10h-9v20h8v5h1v15h6v10h-9v25h8v20h-2v20h-16v15h-29v20h80v20h-33 v5h7v15h11v5h-2v5h-47v20h25v5h2v5h25v20h-12v5h97v15h-86v20h-65v20h163v5h-102v15h-1v15h-18v5h61v10h-46v20h4v15h-28v20h5v10h-3v10h8v5h-9v14q0 5 2 11h5q7 16 25 16h204q18 0 25 -16h-5q2 -6 2 -11v-14h9v-5h-8v-10h3v-10h-5v-20h28v-15h-4v-20h46v-10h-61v-5h18v-15 h1v-15h102v-5z" />
<glyph unicode="J" horiz-adv-x="702" d="M624 579h-56v-20h83v-10h-127v-15h91v-20h34v-5h35v-15h-30v-15h-1v-15h-3v-20h-11v-15h17v-20h-25v-5h77v-10h-18v-20h-63v-10h56v-10h-12v-15h-18v-5h4v-20h-93v-5h41v-15h92v-15h-157v-15h23v-5h43v-15h45q-1 -2 -1 -5v-5h3q-1 -4 -1 -7.5t-1 -7.5h9q0 -4 -0.5 -7.5 t-1.5 -7.5h-48l-3 -15h-16q0 -3 -1 -5h123l-3 -10h-35q0 -1 -0.5 -2t-0.5 -3h-34q-1 -4 -2 -7.5t-3 -7.5h-34l-6 -15h70l-8 -15h-141l-9 -15h114l-7 -10h4q-4 -5 -8.5 -10t-9.5 -10h-37q-5 -5 -10.5 -10t-11.5 -10h-13q-3 -2 -6 -5t-7 -5h31q-6 -4 -12 -7.5t-13 -7.5h4 q-10 -6 -21.5 -10.5t-23.5 -9.5h1q-8 -3 -16.5 -5.5t-16.5 -4.5q-13 -3 -26.5 -5.5t-27.5 -4.5h-1q-16 -2 -33 -3t-34 -1q-15 0 -30 1t-30 3h1q-13 2 -25.5 4.5t-24.5 5.5h-1q-8 2 -16 4.5t-16 5.5q-12 5 -23 9.5t-22 10.5h-5l-24 15h-31q-4 2 -7 5t-7 5h12q-12 9 -23 20h38 q-5 5 -9.5 10t-9.5 10h-4q-2 2 -4 5t-4 5h-114l-10 15h141q-2 4 -4 7.5t-4 7.5h-70q-2 4 -3.5 7.5t-3.5 7.5h33q-1 4 -2.5 7.5t-2.5 7.5h34l-2 5h35l-3 10h-123q0 3 -1 5h27l-3 15h25q-1 4 -1.5 7.5t-0.5 7.5h3q0 4 -0.5 7.5t-0.5 7.5v1q0 3 2 9h7q7 13 20 13h204 q19 0 31 -13h-8l7 -10q1 -2 2 -4.5t2 -4.5l3 -6h-3q5 -9 9 -15h-24q7 -10 20 -15h-27q9 -4 26 -4q15 0 24 4h16q12 5 19 15h49q5 7 8 15h-9q1 3 2 7l2 8h-3q1 2 1 4.5t1 5.5h-45q0 4 0.5 7.5t0.5 7.5h-43v5h-23v15h157v15h-92v15h-41v5h93v20h-4v5h18v15h12v10h-56v10h63v20 h18v10h-77v5h25v20h-17v15h11v20h3v15h1v15h30v3h-297q-14 0 -23 12h-35l-3 5h-33q-2 6 -2 10v10h-91v15h127v10h-83v20h56v20h115v20h-114v5h16v20h-24v20h79v10h-141q0 7 2 10h139q1 3 3 5.5t4 4.5h-45q6 6 17 6h529q10 0 17 -6h45q5 -4 8 -10h-139q2 -3 2 -10h142v-10 h-79v-20h24v-20h-16v-5h114v-20h-115v-20z" />
<glyph unicode="K" horiz-adv-x="715" d="M744 54l12 -20h-44l1 -1q1 -1 1.5 -4t1.5 -5h-3v-2q0 -4 -1 -7t-3 -6h13q-2 -3 -5 -5h-58q-5 -4 -13 -4h-228q-6 0 -11 1.5t-9 2.5h58q-3 1 -9 5h-13q-5 4 -7.5 8t-4.5 6l-1 1h3l-5 10h43l-11 20h90l-3 5h-78l-1 2v-2h-156v-5h104v-20h-64v-10h-97q0 -4 -2 -8t-4 -7h-9 q-4 -4 -6 -5h-65q-5 -4 -14 -4h-191q-9 0 -14 4h64q-2 1 -6 5h9q-2 3 -4 7t-2 8h96v10h64v20h-104v5h156v15h-191v15h18v20h16v10h-3v20h-2v20h-8v15h6v10h11v20h36v15h-127v10h-9v5h114v10h10v5h-130v15h17v10h6v20h98v10h27v15h-126v20h34v15h44v5h67v10h35v15h7v5h-21v15 h-67v5h-47v20h187v10h-230v10h173v15h-167v10h65v10h62v20h-20v15h6v15h-29v5h-21v15h-6v5h13v10h13v20h-110v5h6v5h41v5h-14v5h77v5h-19v5h-1v20h5v10h69v10h9v10h4v5h-107q1 11 10 20h11q6 6 17 6h191q10 0 17 -6h-11q10 -8 10 -20h107v-5h-4v-10h-9v-10h-69v-10h-5v-20h1 v-5h19v-5h-77v-5h14v-5h-41v-5h-6v-5h94l3 5h32l2 5h58l3 5h-58l3 5h17l3 5h5l3 5h9l2 5h11l8 15h-5l6 10h57l5 10h-46l5 10h50l2 5h-68l2 4q5 10 15 16h-8q9 6 24 6h221q9 0 15 -6h9q7 -7 7 -16q0 -3 -1 -4h69q0 -1 -0.5 -2t-0.5 -3h-49l-2 -2l-4 -8h46l-6 -10h-57l-6 -10 h5l-9 -15h-10l-3 -5h-9l-3 -5h-5l-3 -5h-18l-3 -5h59l-3 -5h-58l-3 -5h-32l-3 -5h6l-11 -20h40l-6 -10h9l-3 -5h1l-9 -15h14l-3 -5h1l-9 -15h-20l-9 -15h21l-12 -20h-11l-6 -10h-65l-6 -10h167l-9 -15h-173l-6 -10h230l-6 -10h-187l-12 -20h47l-3 -5h67l-9 -15h21l-3 -5h-7 l-9 -15h-35l-2 -4l4 -6h-67l3 -5h-44l9 -15h-35l12 -20h126l9 -15h-27l6 -10h-98l12 -20h-6l6 -10h-17l9 -15h130l3 -5h-11l6 -10h-28l3 -5h-10l6 -10h-74l9 -15h86l12 -20h-2l6 -10h8l9 -15h18l12 -20h-18l12 -20h1l5 -10h2l12 -20h6l9 -15h50l9 -15h78l3 -5h-90zM300 539 h21v-5h23l3 5h-14l8 15h-1l3 5h-9l5 10h-32v-10h-13v-5h6v-15zM307 484h-5v-9zM320 234h3l-3 7v-7zM206 229h9v-10h79l-6 10h10l-3 5h-89v-5zM268 74h134l-8 15h-7l-11 20h-2l-5 10h-1l-11 20h18l-11 20h-18l-9 15h-8l-5 10h2l-12 20h-8v-20h-11v-10h-6v-15h8v-20h2v-20h3 v-10h-16v-20h-18v-15z" />
<glyph unicode="L" horiz-adv-x="626" d="M35 674q1 3 1.5 5.5t1.5 4.5h-110q2 3 4 5.5t4 4.5h116q8 6 17 6h200q11 0 17 -6h-116l4.5 -4.5t3.5 -5.5h109q2 -6 2 -10h56q1 0 1 -0.5v-0.5v-9h-135v-20h56v-15h-6v-20h-36v-20h81v-5h6v-20h4v-20h-7v-20h-5v-25h17v-20h-19v-20h4v-5h71v-20h37v-10h-154v-10h51v-20 h-42v-20h36v-10h7v-15h134v-10h93v-20h-254v20h-93v10h-134v15h-7v10h-36v20h42v20h-51v10h154v10h-37v20h-71v5h-4v20h19v20h-17v25h5v20h7v20h-4v20h-6v5h-81v20h36v20h6v15h-56v20h135v10h-57zM700 134h-273v-5h20v-15h142v-5h-44v-20h70v-15h10v-5h-7v-5h-3v-20h2v-15 h-4v-5h-5q-1 -2 -1 -5h11q-3 -10 -11 -15h-11q-5 -4 -14 -4h-504q-9 0 -14 4h10q-9 5 -12 15h-11q0 2 -0.5 3t-0.5 2h5v5h4v15h-2v20h3v5h7v5h-10v15h-70v20h44v5h-142v15h-20v5h273v15h-111v15h108v5h-236v15h34v5h130v5h-46v15h78v20h-79v10h65v5h-30v15h29v10h-37v10h87 v15h25v10h-137v15h254v-15h137v-10h-25v-15h-87v-10h37v-10h-29v-15h30v-5h-65v-10h79v-20h-78v-4h277q14 0 22 -11h46l3 -5h-130l2 -5h-35q1 -2 1 -6v-9h236v-5h-108v-15h111v-15z" />
<glyph unicode="M" horiz-adv-x="856" d="M973 239h-219v-10h177v-20h-78v-5h-78v-15h-51v-15h-22v-15h-105v-20h157v-20h-80v-10h70v-10h42v-15h15v-15h14v-10h1v-20h21v-5h-11v-5h-25v-5h-58l-3 -10h-31q-4 -7 -9 -10h37q-5 -4 -14 -4h-181q-9 0 -14 4h-38q-5 3 -9 10h30q-3 5 -3 10h58v5h25v5h11v5h-21v20h-1 v10h-14v15h-15v15h-42v10h-70v10h80v20h-354v-20h143v-10h-21v-25h4v-15h-19v-10h-7v-20h3v-5h74v-5h-62v-5h36q0 -5 -3 -10h-55q-3 -7 -10 -10h-6q-5 -4 -15 -4h-181q-9 0 -14 4h7q-3 2 -5.5 4.5t-4.5 5.5h56q-3 5 -3 10h-37v5h62v5h-74v5h-3v20h7v10h19v15h-4v25h21v10 h-143v20h216v20h-197v15h-5v15h82v15h29v5h-64v20h140v10h98l-3 5h-178v5h33v5h-25v20h1v10h23v15h-5v20h-27v5h-90v10h78v5h-3v10h44v10h24v15h-158v20h126v10h-112v15h116v10h-14v10h-38v5h19v15h115v15h-17v10h-95v5h-5v15h47v20h-104v10h36v5h10v10h-23v15h90v15h-46v20 h76v5h-24v20h89v15h-209v15h222v15h-98v10h-75q1 5 3.5 8.5t5.5 6.5h5q6 6 17 6h158q14 0 23 -6h-5q6 -3 10 -7t6 -8h76l4 -6l2 -4h99l9 -15h-222l9 -15h208l9 -15h-88l12 -20h24l3 -5h-76l12 -20h45l9 -15h-89l9 -15h23l6 -10h-10l3 -5h-36l6 -10h104l12 -20h-47l9 -15h5 l3 -5h74l3 5h-27l9 15h33l12 20h-18l6 10h-81l3 5h101l6 10h-8l9 15h60l9 15h3l12 20h-46l3 5h105l12 20h-6l9 15h-154l9 15h148l9 15h-109l2 4q2 4 4 6h2q3 4 7 8t9 7h-2q9 6 23 6h158q10 0 17 -6h3q3 -3 5.5 -6.5t3.5 -8.5h-2v-10h110v-15h-148v-15h154v-15h6v-20h-105v-5 h46v-20h-3v-15h-60v-15h8v-10h-101v-5h81v-10h18v-20h-32v-15h26v-5h47v-10h-103v-15h74v-15h-18v-5h4v-10h14v-10h-116v-15h112v-10h-126v-20h158v-15h-24v-10h-44v-10h3v-5h-78v-10h90v-5h27v-20h-23v-15h-17v-10h20v-20h9v-5h43v-5h120v-5zM505 484h-25l6 -10h13z M387 444l3 -5h39l3 -6l4 6h-4l3 5h17l9 15h-63l9 -15h-20zM535 284h28v15h-19zM291 254h25v-5h-33v-5h68l-3 5h-16l-4 5h-9l-12 20h2l-6 10h-11v-10h-1v-20zM738 239v5h-120v5h-43v5h-9v20h-16l-13 -20h10l-3 -5h16l-3 -5h-82v-5h-109v-10h-140v-20h64v-5h-29v-15h-82v-15h5 v-15h283v15h22v15h-84l-6 -8t-8 -7h-3q-9 -6 -20 -6h-70q-12 0 -21 6h3q-4 3 -7.5 7t-6.5 8h103l-3 4l-7 11h-36l-3 5h70l-13 20h117l-6 10h250zM696 209v20h-131l-12 -20h-69l-3 -5h36l-7 -11l-3 -4h33v15h78v5h78z" />
<glyph unicode="N" horiz-adv-x="740" d="M779 54h5v-10h-26v-20h-66q0 -4 -2 -8t-4 -7h-34q-4 -4 -6 -5h40q-5 -4 -14 -4h-158q-6 0 -11 1.5t-9 2.5h-41q-4 2 -8 5h34q-5 4 -8 8t-5 6v1h65l-13 20h26l-7 10h-5l-10 15h-115l-14 20h15l-13 20h-35l-4 5h46l-10 15h21l-10 15h-41l-13 20h63l-3 5h-33l-6 10h-31 l-13 20h-17l-3 5h46l-10 15h-52v-15h-50v-5h68v-20h10v-10h1v-5h-29v-20h-47v-15h55v-15h-10v-5h-12v-20h22v-20h9v-15h-41v-10h35v-20h-44q0 -4 -2 -8t-4 -7h32q-4 -4 -6 -5h-31q-5 -4 -14 -4h-181q-10 0 -15 4h32q-2 1 -6 5h-33q-2 3 -4 7t-2 8h43v20h-35v10h41v15h-9v20 h-22v20h12v5h10v15h-55v15h47v20h29v5h-1v10h-10v20h-68v5h50v15h48v5h-53v5h20v20h-16v20h1v5h-8v5h1v15h-38v5h26v10h-59v20h99v10h-63v20h36v5h6v15h18v10h9v15h-26v5h-10v10h-10v20h19v15h27v10h63v5h-78v5h-26v15h-11v15h18v20h26v15h25v10h-50v5h6v20h23v5h-47v10h29 v20h-38v15h25v10h-89v15h-19v10h67v14q0 4 1 6h67q0 4 4 10h-18q8 11 22 11h158q11 0 19 -3t13 -8h18q4 -4 8 -10h-67q0 -1 0.5 -1t0.5 -1l11 -18h-67l6 -10h19l9 -15h89l6 -10h-24l9 -15h37l13 -20h-29l6 -10h47l3 -5h-23l12 -20h-6l3 -5h50l6 -10h-25l10 -15h-26l12 -20 h-19l9 -15h11l10 -15h26l3 -5h15v5h30v15h-29v15h7v20h20v15h24v10h-48v25h59v5h-1v10h-63v20h22v15h29v10h-61v15h78v10h-6v14q0 4 1 6h-33q1 4 5 10h-34q8 11 22 11h181q14 0 22 -11h34q2 -4 4 -10h33v-20h6v-10h-78v-15h61v-10h-29v-15h-22v-20h63v-10h1v-5h-59v-25h48 v-10h-24v-15h-20v-20h-7v-15h29v-15h-30v-5h70v-5h-37v-10h-10v-15h-33v-20h-34v-10h52v-5h34v-15h-9v-10h-18v-15h-6v-5h-36v-20h63v-10h-99v-20h59v-10h-26v-5h38v-15h-1v-5h32v-5h-22v-20h2v-20h28v-5h-48v-5h29v-15h-46v-5h16v-20h31v-10h33v-5h-64v-20h41v-15h-21v-15 h-45v-5h35v-20h-15v-20h116v-15zM505 469h-7l3 -5h4v5zM438 464l6 -10h-27l9 -15h32v15h10v10h-30zM425 439h-18l12 -20h6v20zM358 224l-3 5h-28l-13 20h-3l-13 20h22l-4 5h-26v-5h-1v-20h16v-20h-20v-5h73z" />
<glyph unicode="O" horiz-adv-x="742" d="M692 384h50v-20h-9v-20h-9v-15h-21v-5h8v-5h-28v-10h48v-15h-29v-5h1q0 -5 -0.5 -10t-0.5 -10h-1q-1 -3 -1 -9v-11h-5q-1 -2 -1 -5v-5h10l-3 -20h-9q-1 -5 -1.5 -10t-2.5 -10h11q0 -1 -0.5 -2t-0.5 -3h15q0 -1 -0.5 -2t-0.5 -3h-18q-1 -4 -2 -7.5t-2 -7.5h-3l-6 -15h-11 q-1 -4 -3 -7.5t-4 -7.5h9q-2 -5 -5 -10h-6q-1 -4 -3.5 -7.5t-4.5 -7.5h31l-7 -10h-37l-11 -15h11l-14 -15h11q-1 -1 -2.5 -2t-2.5 -3h12q-3 -2 -5.5 -5t-5.5 -5h-19q-3 -2 -6 -5t-7 -5h7q-3 -2 -6.5 -5t-7.5 -5h-2l-18 -10t-19 -10h-3l-6 -2t-6 -3q-7 -3 -13.5 -5.5 t-14.5 -4.5h-1q-33 -10 -72 -15h1q-16 -2 -33.5 -3t-34.5 -1q-18 0 -35 1t-34 3q-38 4 -73 15h1q-7 2 -14 4.5t-14 5.5h-1q-3 2 -6 3l-6 2h3q-10 5 -19 10l-18 10h2l-15 10h-6q-4 2 -7 5t-6 5h19l-12 10h-12q-1 2 -2 3t-3 2h-10l-7.5 7.5t-6.5 7.5h-11l-12 15h37l-6 10h-32 q-2 4 -4 7.5t-4 7.5h6q-3 5 -5 10h-9q-2 4 -3.5 7.5t-3.5 7.5h12l-6 15h3q-1 4 -2 7.5t-2 7.5h11q-1 2 -1 5h-10q0 2 -0.5 3t-0.5 2h-2l-2 10l-2 10h5q-1 5 -1.5 10t-0.5 10h-6l-1 10h7v11q0 2 -0.5 4.5t-0.5 4.5h-13q-1 5 -1 10v10h7v5h-3v15h20v10h-35v5h19v5h-1v15h-5v20 h6v20h-7v15h-37v20h43q1 2 1 5h16v5h-12v10h1l2 20h-2q0 4 0.5 7.5t1.5 7.5h-3q0 4 0.5 7.5t1.5 7.5h-2q1 4 2 7.5t2 7.5h-28q0 2 0.5 3t0.5 2h30l3 10h-2l2 5h15q1 2 2 5t2 5h-10q3 9 8 20h-3q3 5 5.5 10.5t5.5 9.5h3l3 5h-16l3 5h16l3 5h-2l12 15h-7l13 15l10.5 10.5 t11.5 9.5h-10l6 5h-11q2 2 3.5 3t3.5 2h25q4 2 8 5t8 5h3q10 5 20 10.5t20 9.5h3q20 9 44 15h5q29 8 61 12t66 4q71 0 126 -16h-6q11 -3 22 -6.5t21 -8.5h-4q11 -4 20.5 -9.5t19.5 -10.5h-4l15 -10h-25q2 -1 3.5 -2t3.5 -3h11l4 -2t3 -3h10q6 -4 11.5 -9.5l10.5 -10.5h1 q4 -4 7 -7.5t6 -7.5h7l12 -15h2q3 -3 4 -5h-16l3 -5h17l3 -5h-3q3 -4 5.5 -9.5t5.5 -10.5h3l9 -20h10l3 -10h-15l2 -5h2l3 -10h-3q0 -1 0.5 -2t0.5 -3h-42q2 -4 2.5 -7.5t1.5 -7.5h52q1 -4 1.5 -7.5t0.5 -7.5h-14q1 -4 1.5 -7.5t0.5 -7.5h13l2 -20h-13v-3q0 -1 0.5 -3 t0.5 -4h27v-5h-24q1 -2 1 -5h18q1 -5 1 -10v-10h-30v-15zM473 364h9v20h-50v15h30v10t-1 10h-18q0 2 -0.5 3t-0.5 2h24v5h-27q0 2 -0.5 3t-0.5 2v5h12q0 5 -0.5 10.5t-1.5 9.5h-13q-1 4 -2 7.5t-3 7.5h14q-3 8 -8 15h-52q-5 8 -16 15h42q-6 4 -9 5h3q-15 6 -33 6t-33 -6h-29 q-4 -1 -10 -5h28q-8 -5 -16 -15h2q-5 -7 -8 -15h3q-1 -4 -2 -7.5t-3 -7.5h2q-1 -4 -1.5 -9.5t-0.5 -10.5h-2v-10h12v-5h-16v-5h-44v-20h37v-15h7v-20h-6v-20h5v-15h1q0 -3 1 -5h-20v-5h35v-10h-20v-15h3v-5h-7q0 -5 0.5 -10t0.5 -10h14v-3v-8.5t1 -8.5h-7q1 -2 1 -5t1 -5h6 q1 -5 3 -10l4 -10h-5q6 -11 16 -20h2q2 -1 4 -2.5t4 -2.5h9q3 -1 6 -2.5t6 -2.5h-12q12 -4 28 -4t28 4h17q3 1 6 2.5t6 2.5h-16q2 1 4 2.5t4 2.5h-11q9 7 16 20h9q5 11 8 20h-10q1 2 1 5t1 5h5q1 4 1 8.5v8.5v3h2v10t1 10h-1v5h29v15h-48v10h28v5h-8v5h21v15h9v20z" />
<glyph unicode="P" horiz-adv-x="705" d="M686 449h-11v-15h23v-5h-9l-3 -20h11q-1 -2 -1 -5h-14l-2 -10t-3 -10q0 -4 -2 -10h-10l-6 -15h-1q-1 -5 -4 -10t-5 -10h2l-3 -5h9l-6 -10t-7 -10h7q-4 -5 -8.5 -10t-9.5 -10h-2q-6 -5 -11.5 -10t-12.5 -10h-6q-8 -5 -16.5 -10t-17.5 -10h3q-2 -1 -5 -2t-5 -3h-1 q-19 -9 -42 -15q-11 -3 -23 -5.5t-24 -4.5h-1q-40 -6 -85 -6h-70v-9h7v-20h12v-5h-24v-10h9v-15h-25v-5h31v-20h-9v-25h4v-15h-12v-20h-5v-10h33v-15h-28v-20h19v-2q0 -5 -1 -8h-6q0 -1 -2 -5h3q-1 -2 -4 -5h1q-4 -4 -6 -5h1q-5 -4 -14 -4h-206q-9 0 -14 4h-2q-2 1 -6 5 q-1 2 -2 3t-1 2h-3q-2 4 -2 5h5q-1 3 -1 8v2h-19v20h28v15h-33v10h5v20h12v15h-4v25h9v20h-31v5h25v15h-9v10h24v5h-12v20h-7v15h1v30h-2v20h6v20h3v20h-7v20h-9v5h-2v20h1v15h10v30h-3v5h-3v20h11v5h-4v15h4v10h-1v10h-28v20h-111v15h51v20h91v10h-38v20h-23v15h15v5h-21 v20h77v5h-10v15h-23v15h-32v20h72v15h-35v5h-7v5h18q0 4 2 10h-11q1 3 3 5.5t4 4.5h61q8 6 17 6h303q44 0 81 -6h-60q12 -2 23.5 -4.5t21.5 -5.5h12q8 -2 15.5 -4.5t14.5 -5.5h-18l6 -2t6 -3h6l11 -5h36l26 -15h-73q8 -4 14 -9.5t12 -10.5h32l15 -15h23q3 -4 6.5 -7.5 t5.5 -7.5h10q3 -3 4 -5h-77q3 -4 6 -9.5t6 -10.5h21l2 -5h-14l6 -15h24l6 -20h38l3 -10h-91q2 -4 2.5 -9.5t1.5 -10.5h128q1 -4 1 -7.5t1 -7.5h-5q1 -5 1.5 -10t0.5 -10h-39v-20zM435 434h-23l3 15h11v10v5t-1 5h39q-1 5 -2 10.5t-3 9.5h4q-2 8 -10 15h-128q-12 10 -29 10 h-70v-10h-51v-15h111v-20h28v-10h1v-10h-4v-15h4v-5h-11v-20h3v-5h3v-1h70q6 0 9 1h14q4 1 7 2.5t6 2.5h-10q12 7 18 20h9q2 4 2 5z" />
<glyph unicode="Q" horiz-adv-x="742" d="M793 354v-20h19v-15h-21v-5h-96v-10h4v-20h-28v-10h-24v-20h67v-7.5t-1 -7.5h-75q0 -3 -1 -5h-2l-3 -20h135v-5h-58q0 -1 -0.5 -2t-0.5 -3h-6q-1 -4 -2 -7.5t-2 -7.5h-15l-6 -20h29l-3 -10h-20l-4 -10h5q-2 -5 -5 -10t-5 -10h-19l-6 -10t-7 -10h17q-4 -5 -7.5 -10 t-7.5 -10h5l-2 -2t-2 -3h-4q-1 -1 -2.5 -2t-2.5 -3l3 -5h-4l4 -5h25l14 -20h5l14 -20h-47l14 -20h17l7 -10h9l14 -20h3l4 -5h-13l6 -8q0 -1 1 -2h4q0 -1 0.5 -2t0.5 -3h-2v-2q2 -11 -7 -18h-43q-4 -4 -12 -4h-196q-6 0 -11 1.5t-9 2.5h42q-8 4 -13.5 9.5t-8.5 9.5l-1 1h3 l-4 5h-4l-8 10h13l-4 5h-4l-11 14q-27 -3 -58 -3q-53 0 -100 9h-9q-10 2 -20.5 4.5t-19.5 5.5h-17q-13 4 -26 9t-25 11h46q-9 5 -17.5 10t-16.5 10h-5q-7 5 -13 10l-12 10h-25l-6 5h5q-3 2 -5.5 5t-4.5 5h4l-5 5h-5l-8 10l-8 10h-17l-6 10l-6 10h19q-3 5 -5.5 10t-4.5 10h-5 q-1 2 -2 5t-2 5h19l-4 10h-29l-6 20h5l-3 15h33q-1 2 -1 5h-112q-1 2 -1 5h150l-3 20h-76q0 2 -0.5 3t-0.5 2h-115q-1 4 -1 7.5t-1 7.5h161v20h-74v10h16v20h21v10h55q0 3 -1 5h24v15h94v20h-38v20h-204v20h175v15h-97v5h-9v20h-10v2v9.5t1 8.5h12q0 3 1 5h-37q0 4 0.5 7.5 t1.5 7.5h66l3 15h-79q1 5 2.5 10t2.5 10h-3q1 4 2 7.5t2 7.5h77l6 15h39l9 20h-63l2 5h2l9 15h-5q6 10 14 20h-32q1 2 4 5h-26l9 10h17l10 10h41l18 15h-60q5 4 10 7.5t11 7.5h45l8 5h17l28 15h28q6 3 12 5.5t12 4.5h16q38 14 77 20h10q38 6 80 6q43 0 80 -6h-10 q41 -6 77 -20h-16q6 -2 12 -4.5t12 -5.5h-28l28 -15h-18q2 -1 4.5 -2t3.5 -3h-45l21 -15h59l18 -15h-42q3 -2 5.5 -5t4.5 -5h-17l9 -10h25l5 -5h32q8 -10 14 -20h5l9 -15h-2l3 -5h64l9 -20h-39q2 -4 3 -7.5t2 -7.5h-76q1 -4 2 -7.5t2 -7.5h-46l5 -20h98q1 -4 1 -7.5t1 -7.5 h-16q1 -4 1 -7.5t1 -7.5h64q1 -2 1 -5h-72q1 -4 1 -8.5t1 -9.5v-2h-15v-10t1 -10h56v-5h47v-15h-74v-20h153q0 -5 0.5 -10t0.5 -10h-56zM288 509q-16 -6 -25 -20h66q-11 15 -25 20h46q-13 6 -32 6q-18 0 -33 -6h3zM551 319q1 4 1 7.5v7.5h-19v20h56q0 5 -0.5 10t-0.5 10 h-153v20h74v15h-47v5h-56q-1 5 -1 10v10h15q-1 5 -1 10.5t-2 9.5h72q0 2 -0.5 3t-0.5 2h-64q-1 4 -2 7.5t-3 7.5h16q-3 8 -8 15h-86q-5 -7 -8 -15h-66q-1 -4 -2.5 -7.5t-2.5 -7.5h37q0 -1 -0.5 -2t-0.5 -3h-12q-1 -4 -1.5 -9.5t-0.5 -10.5h10v-20h9v-5h97v-15h-175v-20h204 v-20h38v-20h-94v-15h-23v-5h-55v-10h-21v-20h-16v-10h74v-8v-6t1 -6h-161q0 -4 0.5 -7.5t1.5 -7.5h116q1 -2 1 -5h77q1 -1 1 -3t1 -4q1 2 1 4t1 3h3q0 2 0.5 3t0.5 2h75l3 15h-68q1 3 1 6v6v8h24v10h28v20h-4v10h96v5h20zM495 209q3 3 4 5h-273q3 -3 4 -5h112l2 -2t2 -3h-33 q11 -11 25 -15h-6q12 -4 28 -4t28 4h15q14 5 24 15h7q1 2 2 3l2 2h57z" />
<glyph unicode="R" horiz-adv-x="722" d="M692 399h-49q-1 -4 -2 -7.5t-3 -7.5h28l-3 -10h-24q-3 -9 -8 -20h-15q-4 -10 -11 -20h2q-4 -5 -7 -10t-7 -10h108l-13 -15h-89q-4 -5 -10 -10t-11 -10h13q-4 -4 -9.5 -7.5t-10.5 -7.5h33l-4 -3l9 -17h-24l11 -20h3l3 -5h-1l10 -20h10l6 -10h-77l8 -15h70l6 -10h-22l8 -15 h99l11 -20h-66l8 -15h-31l16 -30h7l6 -10h-3l3 -5h-47l11 -20l2 -5h-31l5 -11q3 -4 3 -9h21v-2q0 -11 -9 -18h27q-5 -4 -13 -4h-205q-6 0 -10.5 1.5t-9.5 2.5h-27q-8 4 -13.5 10t-8.5 10h-20l-2 3l-7 17h32l-3 5h-95v-5h-51v-20h81q-2 -14 -13 -20h-7q-7 -4 -15 -4h-196 q-9 0 -14 4h8q-11 6 -13 20h-80q0 1 -0.5 1.5t-0.5 1.5v17h51v5h100v20h-107v5h63v10h-21v15h35v15h-57v15h77v20h-44v15h-1v5h-6v5h-27v15h34v10h-9v20h1v5h-3v20h24v20h-34v15h-13v20h88v15h-108v20h-2v20h15v20h23v10h-28v15h49v10h72v10h-99v5h5v5h9v5h1v10h-2v15h4v20 h-5v10h5v15h-4v5h3v10h-1v5h-4v5h9v15h8v15h-47v20h11v20h-6v15h27v15h10v15h-18v10h7v5h2v15h2q0 11 9 20h54q6 6 17 6h296q43 0 80 -6h-53q40 -6 76 -20h-2q17 -6 33 -15h-2l9 -5h-8q5 -2 8.5 -5t7.5 -5h18q5 -4 10 -7.5t9 -7.5h-10q5 -4 8.5 -7.5l7.5 -7.5h-27 q4 -4 7 -7.5t6 -7.5h5q8 -10 14 -20h-10q3 -4 5.5 -9.5t5.5 -10.5h47l6 -15h-8q1 -4 2.5 -7.5t2.5 -7.5h-10l2 -5h4q1 -2 1 -5l3 -10h3q0 -3 1 -5h1q1 -4 1.5 -7.5t0.5 -7.5h-13v-5t1 -5h6q0 -5 0.5 -10t0.5 -10v-10h6v-5h-6v-10h-10q0 -1 -0.5 -2t-0.5 -3h10q0 -1 -0.5 -2 t-0.5 -3h47q-1 -2 -1 -5h13l-1 -10h-46q-2 -6 -2 -10zM292 419h99v-10h-72v-1h73q7 0 11 1h46q11 3 20 10h-14l5 5h-47q3 3 4 5h-10l3 5h10l3 10h5q1 2 1 5h-6l1 10q0 10 -3 20h-6q-1 2 -1.5 5t-2.5 5h14q-4 8 -11 15h-2q-3 3 -7 5h-3q-10 5 -21 5h-73v-5h-3v-5h4v-15h-5 v-10h5v-20h-4v-15h2v-10h-1v-5h-9v-5h-5v-5zM371 189l-4 10h-11l-8 19h-41v-19h9v-10h55zM282 189v-15h19l-6 15h-13zM373 169l-2 5h-62v-5h6v-5h1v-15h44v-20h-77v-15h57v-15h-35v-15h21v-10h-63v-5h141l-3 5h3l-5 10h-8l-6 15l-7 15h32l-7 15h65l-9 20h-99l-6 15h22z" />
<glyph unicode="S" horiz-adv-x="697" d="M672 99h-41l-9 -10h153l-2 -2l-3 -3h-236q-5 -5 -10.5 -10t-11.5 -10h73l-13 -10h136l-8 -5h-59q-1 -1 -3.5 -2t-4.5 -3h-67l-28 -15h39q-13 -6 -26 -10.5t-27 -9.5h-36q-34 -10 -74 -15h5q-16 -2 -33 -3t-34 -1q-19 0 -37.5 1t-35.5 3h-4q-43 5 -77 15h36q-15 5 -28 9.5 t-26 10.5h-39q-7 4 -14 7.5t-14 7.5h68l-8 5h59q-1 2 -3 3l-4 2h-136q-4 2 -7 5t-6 5h-74q-5 5 -10.5 10t-10.5 10h236q-1 2 -2 3l-2 2h-153q-4 4 -8 10h41q-1 2 -2 3l-2 2h125l-9 15h-62l-3 5h-141q-1 4 -3 7.5t-4 7.5h67l-6 15h-24l-2 5h11q-1 4 -2 7.5t-2 7.5h-8 q0 4 -0.5 7.5t-1.5 7.5h-8q0 4 -0.5 7t-0.5 7v1h-1q0 2 0.5 3t0.5 2h23q5 16 21 16h190q16 0 24 -4t18 -12h-23l1 -1q2 -1 3.5 -2t2.5 -2h1q13 -10 32 -15h9q13 -4 35 -4q13 0 24 1t19 3h-3q23 5 29 15h-2q2 4 2 5h10l1 4q0 9 -7 16h-8q-9 9 -32 15h-3q-9 3 -21 5.5t-28 4.5 h-6l-41 6q-7 1 -13.5 2t-13.5 2q-41 7 -79 20h-18q-14 5 -26 10h-14q-5 2 -10 4.5t-10 5.5h-87q-7 4 -13 7.5t-12 7.5h186q-5 4 -9.5 7.5t-9.5 7.5h-199q-3 2 -5.5 5t-4.5 5h52q-9 10 -17 20h15l-6 10h-96q-1 2 -2 3t-1 2h228q-2 4 -4 7.5t-4 7.5h-175l-6 15h141l-2 5h-42 l-2 5h20q0 2 -0.5 3t-0.5 2h-4l-3 10h-6l-1 10h-2v5h-32q-1 2 -1 5v5h-29l-1 10h114q-1 2 -1 5v5h16v1v10t1 9h-43q1 4 1 7.5t1 7.5h70q0 2 0.5 3t0.5 2h-71q2 6 2 10h-11l3 10h-17q3 11 7 20h8l4 10h11l9 15h-10q3 4 5.5 7.5t4.5 7.5h-8l12 15h21q1 2 2 3l2 2h-28 q4 4 8 7.5t8 7.5h16q6 5 12 10.5t13 9.5h18q6 4 12 7.5t13 7.5h-3q2 2 5 3t5 2h-14q2 2 5 3l6 2h-10q14 6 29.5 11t31.5 9h15q23 5 48.5 8t53.5 3q53 0 100 -11h-14q32 -7 62 -20h9l6 -2t6 -3h14q2 -1 5 -2t5 -3h3q7 -4 13.5 -7.5t12.5 -7.5h-17q8 -4 14.5 -9.5t12.5 -10.5 h-15l16 -15h28l5 -5h-21l7.5 -7.5t6.5 -7.5h8l12 -15h9l9 -15h-11q3 -5 5 -10h-8q3 -5 5 -10l4 -10h17q2 -6 2 -10h12q1 -2 1 -5t1 -5h71v-5h-64q1 -4 1 -11v-4h-37q-4 -18 -20 -18h-200q-14 0 -22.5 4t-17.5 12l-3 2h37q-5 4 -14 8.5t-23 6.5h-36q-21 -3 -29 -15h43 q-3 -6 -3 -12q0 -5 1 -8h-15q1 -5 8 -10h-113q6 -5 21 -10h29q8 -3 19.5 -5.5t24.5 -4.5h32q8 -1 17 -2t19 -3h1q17 -2 33 -4.5t30 -5.5h6q12 -2 22.5 -4.5t20.5 -5.5h4q5 -1 9 -2t8 -3h-19q4 -1 7.5 -2t7.5 -3h42q3 -1 6.5 -2t6.5 -3h-141q20 -8 32 -15h175q6 -4 12 -7.5 t11 -7.5h-228l4 -2t3 -3h96q3 -2 6 -5l5 -5h-15q10 -9 17 -20h-52q2 -2 4 -5t3 -5h198l9 -15h-186q2 -4 4 -7.5t3 -7.5h86l3 -10h14l3 -10h18q2 -4 2.5 -9.5t1.5 -10.5l1 -10h6q1 -2 1 -5v-5h3v-15h9v-3q0 -4 -0.5 -8t-0.5 -9h-10v-5h2q0 -4 -0.5 -7.5t-1.5 -7.5h3l-3 -15h8 q-1 -4 -2 -7.5t-3 -7.5h-11q0 -1 -0.5 -2t-0.5 -3h24l-6 -15h-67q-1 -4 -3.5 -7.5t-4.5 -7.5h141l-3 -5h61q-2 -4 -4.5 -7.5t-5.5 -7.5h-125l-2 -2t-2 -3zM412 514h30q-3 1 -6.5 1h-7.5h-8t-8 -1z" />
<glyph unicode="T" horiz-adv-x="674" d="M715 609h-186v-20h71v-15h77v-15h-2v-15h29v-20h-109v-5h-21v-7q0 -7 -3 -13h71q-7 -14 -23 -14h-166v-1h10v-20h2v-20h-5v-20h-13v-15h50v-10h-42v-15h-22v-20h38v-10h-7v-20h-7v-20h-12v-20h-11v-15h37v-15h-15v-20h6v-5h7v-10h50v-15h-34v-20h15v-20h-42v-20h17v-10h7 v-15h16v-20h-6v-15h-26v-15h-3v-10h-1v-15h11v-15h-9v-12q0 -5 -1 -8h-10q-3 -10 -11 -15h2q-5 -4 -14 -4h-200q-8 0 -15 4h-2q-7 5 -11 15h9q-1 3 -1 8v12h9v15h-11v15h1v10h3v15h26v15h6v20h-16v15h-7v10h-17v20h42v20h-15v20h34v15h-50v10h-7v5h-6v20h15v15h-37v15h11v20 h12v20h7v20h7v10h-38v20h22v15h42v10h-50v15h13v20h5v20h-2v20h-10v1h-166q-15 0 -24 14h-71q-1 3 -2.5 6t-1.5 7v7h21v5h109v20h-29v15h2v15h-77v15h-71v20h186v15h-104v20h20v20h26v5h15v4q0 10 6 16h-22q8 11 22 11h586q14 0 22 -11h21q5 -7 5 -16v-4h-15v-5h-26v-20h-20 v-20h104v-15z" />
<glyph unicode="U" horiz-adv-x="746" d="M641 339h188v-5h-51v-20h-81v-20h-7v-5h9v-20h-55v-5q0 -4 -0.5 -7.5t-0.5 -7.5h40q0 -4 -0.5 -7.5t-0.5 -7.5h-21l-3 -20h16q-1 -2 -1 -5t-1 -5h12l-2 -10l-2 -10h1l-2 -10t-3 -10h4q0 -1 -2 -5h5l-4 -10l-4 -10h-3l-8 -15h-2l-9 -15h3q-3 -4 -6 -7.5t-5 -7.5h-12 q-4 -6 -8 -10h-9l-15 -15h2l-6 -5h-66l-6 -5h6l-13 -10h61l-8 -5h51l-18 -10t-19 -10h-20l-6 -2t-6 -3h39q-4 -1 -7 -2t-6 -3h-132q-7 -3 -15.5 -5.5t-17.5 -4.5h101q-13 -3 -26.5 -5.5t-27.5 -4.5h-121q-16 -2 -33.5 -3t-34.5 -1q-18 0 -35 1t-34 3h121q-14 2 -27.5 4.5 t-26.5 5.5h-101q-9 2 -17 4.5t-16 5.5h131q-3 2 -6.5 3t-6.5 2h-39l-11 5h21q-10 5 -19 10l-18 10h-50q-2 2 -3.5 3t-3.5 2h-61q-4 2 -7 5t-6 5h-6l-6 5h66l-6 5h-1l-15 15h10l-9 10h11l-10 15h-3l-9 15h2q-2 4 -3.5 7.5t-3.5 7.5h2l-4 10l-4 10h-4l-2 5h-4q-4 9 -6 20h-2 l-2 10l-2 10h5q-1 2 -1 5t-1 5h7l-2 20h2q-1 4 -1 7.5v7.5h-8v20h-44v20h-37v5h32v20h84v20h103v5h-81v15h-29v15h-35v15h-42v20h42v35h11v10h5v5h3v20h-9v10h5v5h-15v20h-11v10h-77v10h-90v10h246v5h-73v20h17v10h-11v15h109v20h-163v5h112v10h-55v10h-23v10h74v20h-44v5 h-2v4q0 8 2 11h-6q7 16 25 16h196q17 0 24 -16h6q3 -4 3 -11v-4h2v-5h44v-20h-74v-10h23v-10h55v-10h-112v-5h163v-20h-109v-15h11v-10h-17v-20h153v20h9v10h47v15h78v20h-84v5h-66v10h15v10h79v10h-48v20h-22v5h-21v4q0 8 2 11h22q7 16 25 16h196q18 0 25 -16h-23 q3 -4 3 -11v-4h21v-5h22v-20h48v-10h-79v-10h-15v-10h66v-5h84v-20h-78v-15h-47v-10h-9v-20h-104v-5h105v-10h-51v-10h-70v-10h73v-20h40v-5h24v-10h4v-20h-12v-5h-1v-10h8v-20h12v-15h3v-20h-80v-15h36v-15h-34v-15zM325 354h29v-15h37v15h34v15h-36v15h80v20h-3v15h-12v20 h-8v10h1v5h12v20h-4v10h-24v5h-40v20h-73v10h70v10h51v10h-327v-10h90v-10h77v-10h11v-20h15v-5h-5v-10h9v-20h-3v-5h-5v-10h-11v-35h-42v-20h42v-15h35v-15zM528 334h51v5h-144v-5h-103v-20h-84v-20h-32v-5h37v-20h44v-1v-9.5t1 -9.5h8l3 -15h-1q2 -10 11 -20h-7 q4 -6 10 -10h-5q17 -13 48 -13q30 0 47 13h-11q6 4 10 10h-15q6 8 11 20h21q2 4 2.5 7.5t1.5 7.5h-40q1 5 1.5 9.5t0.5 9.5v1h55v20h-9v5h7v20h81v20z" />
<glyph unicode="V" horiz-adv-x="726" d="M694 504h-33l-1 -5h95l-6 -20h-80l-5 -20h-4l-3 -10h-76l-6 -20h-46l-3 -10h116l-1 -5h6l-6 -20h-14l-4 -15h18l-3 -10h4l-3 -10h-27l-4 -15h19l-3 -10h-27l-2 -10h-22l-4 -15h-10l-3 -10h47l-3 -10h33l-2 -5h-97l-6 -20h40l-4 -15h-42l-6 -20h54l-5 -15h9l-1 -5h6l-2 -5 h4l-1 -5h-7l-3 -10h-10l-4 -15h5l-3 -10h2l-5 -15h1l-4 -15h-1l-5 -15h-13l-3 -10h4l-1 -5h8l-6 -20h8l-3 -10h-5l-4 -15h8l-3 -10h-10l-2 -10h-22l-2 -6l-1 -4h53q-5 -11 -15 -20h-128q-3 -3 -8 -5h110q-4 -1 -9 -2.5t-11 -1.5h-228q-6 0 -10.5 1.5t-9.5 2.5h-111 q-4 2 -8 5h127q-10 9 -15 20h-52q-1 1 -1 2t-1 2l-2 6h22l-3 10h10l-3 10h-9l-4 15h4l-3 10h-7l-6 20h-8l-1 5h-4l-3 10h13l-5 15h1l-4 15h-1l-4 15h-2l-3 10h-5l-4 15h9l-3 10h7l-1 5h-4l-2 5h-6l-1 5h-9l-5 15h-54l-6 20h42l-4 15h-40l-6 20h97l-1 5h-32l-3 10h31l-3 10 h-43l-4 15h14l-3 10h-6l-3 10h16l-4 15h-21l-3 10h38l-3 10h-38l-4 15h11l-6 20h-35l-2 5h5l-3 10h43l-6 20h-27l-3 10h8l-5 20h60l-6 20h-93l-2 5h208l-3 10h-112l-5 15h71l-6 20h-8l-6 20h-35l-3 10h-97l-6 20h7l-3 10l-1 5h-5l-2 5l-6 20h-5l-2 5h-8l-4 15h-73l-2 5h57 l-2 7q0 1 -0.5 1.5t-0.5 1.5h12v4q0 9 7 16h-44q6 6 15 6h186q15 0 24 -6h44q12 -7 19 -20h-13l3 -7l1 -3h-57l1 -5h73l4 -15h8l1 -5h6l5 -20l1 -5h6l1 -5h-1l3 -10h-6l5 -20h97l2 -10h40l3 10h5l5 20h3l2 10h3l1 5h-26l1 5h25l5 20h-19l1 5h-77l4 15h35l1 5h-66l1 3 q1 2 1 4t1 3h120q5 13 18 20h37q11 6 25 6h186q9 0 15 -6h-38q7 -7 7 -16v-4h-119q-1 -1 -1 -3l-2 -7h66l-1 -5h-36l-4 -15h77l-1 -5h18l-6 -20h-24l-1 -5h26l-1 -5h-3l-3 -10h-3l-6 -20h-5l-3 -10h-7l-5 -20h124l-6 -20h-69l-5 -15h-6zM366 529l3 -15h88l4 15h70l5 20h-105 l5 -20h-70zM505 479l5 20h-94l1 5h-140l1 -5h93l6 -20h-61l5 -20h-8l3 -10h99l2 10h4l5 20h79zM406 414h-6l1 5h-98l1 -5h35l5 -20h-11l4 -15h37l3 -10h-38l3 -10h21l3 -15h-16l3 -10h5l1 -3l1 3h26l3 10h-19l3 15h28l2 10h-4l2 10h-17l3 15h14z" />
<glyph unicode="W" horiz-adv-x="856" d="M687 414l-3 -15h165l-2 -10h-152l-1 -5h63l-3 -20h21l-2 -15h12l-3 -15h1l-2 -15h4v-5h-2l-3 -20h-3l-3 -20l-2 -20h19l-1 -5h-11v-5h20v-5h-32l-1 -5h-11l-2 -15h33l-3 -20h38l-2 -15h-30l-1 -5h-15l-3 -20h8l-1 -10h9l-2 -15h-15l-2 -15h-33l-1 -10h34l-3 -20h-22 l-2 -20h20l-2 -15h-77l-2 -10h29l-1 -6v-4h27q-1 -2 -1.5 -5t-2.5 -5h-11q-5 -9 -13 -15h9q-6 -4 -9 -5h8q-8 -4 -20 -4h-143q-6 0 -10.5 1.5t-8.5 2.5h-8q-3 1 -5 2.5t-4 2.5h-8q-4 4 -7 8t-5 7h11q-1 1 -1 3l-3 7h-27l-4 10h-29l-4 10h77l-6 15h-21l-8 20h22l-8 20h-34 l-4 10h32l-6 15h15l-6 15h-9l-4 10h-8l-8 20h15l-2 5h30l-6 15h-38l-8 20h-33l-5 13l-5 -13h-4l-8 -20h62l-6 -15h-49l-2 -5h9l-8 -20h18l-4 -10h-50l-6 -15h27l-6 -15h-33l-4 -10h16l-8 -20h1l-8 -20h-66l-6 -15h105l-4 -10h-22l-4 -10h-2l-3 -7l-2 -3h-31q-2 -3 -4.5 -7 t-7.5 -8h6q-3 -3 -8 -5h27q-4 -1 -9 -2.5t-11 -1.5h-143q-12 0 -20 4h-26q-3 1 -9 5h-7q-9 7 -13 15h32q-1 2 -2 5t-2 5h3l-1 4l-1 6h22l-2 10h-104l-2 15h65l-2 20h-1l-3 20h-16l-1 10h32l-2 15h-26l-2 15h50l-2 10h-18l-3 20h-9l-1 5h49l-2 15h-62l-3 20h4l-3 15h11v5h32 l-1 5h-21l-1 5h11v5h-20l-1 10h-1l-1 10l-3 20h3l-3 20h2l-1 5h-4l-2 15h-1l-2 15h-12l-2 15h-21l-3 20h-63v5h152l-1 10h-60l-2 15h-63l-1 10h91l-3 20h-24v5h14l-1 5h21l-2 15h-34l-1 5h-78l-2 20h87l-3 20h-22l-1 10h9l-2 15h3l-1 5h-31l-1 10h21l-2 15h2l-2 15h17l-2 10 h-54l-1 10h43l-1 10h-25l-1 10h31l-2 15h-10l-3 20h11l-1 5l-2 11v4h-15q2 21 22 21h186q31 0 35 -21h15q1 -2 1 -6l1 -9l1 -5h-10l2 -20h10l2 -15h-32l2 -10h24l1 -10h-43l1 -10h54l2 -10h-17l1 -15h-1l1 -15h-22l2 -10h30l1 -5h-3l2 -15h-9l1 -10h22l3 -20h-88l2 -20h78 l1 -5h34l2 -15h-21v-5h-14l1 -5h21l2 5h10l2 5h42l5 15h-46l1 5h77l7 20h-81l6 20h-9v2l3 8h19q2 4 4.5 8t6.5 7h-6q5 4 11 5h9q3 1 9 1h102q6 0 8 -1h-9q4 -1 6.5 -2t4.5 -3h6q5 -3 7.5 -7t3.5 -8h-18q3 -4 3 -8l1 -2h10l6 -20h39l3 20h-6l1 10h47l1 15h-44l1 5h-8l2 10h17 l2 15h-6l2 15h14l1 10h-61l1 10h18l1 10h34l1 10h-1l2 15l2 20h-20l1 5h24l2 9v6h19q4 21 35 21h186q8 0 14.5 -6t7.5 -15h-18v-4l-2 -11h-25l-1 -5h21l-3 -20l-2 -15h1l-2 -10h-34l-1 -10h-18l-2 -10h62l-1 -10h-14l-2 -15h5l-2 -15h-17l-2 -10h8l-1 -5h44l-2 -15h-46 l-2 -10h6l-3 -20h-36l-3 -20h44l-1 -5h-51l-2 -15h47v-5h-3l-1 -5h3l-3 -20h16l-2 -10h-122zM567 474h-34l1 -5h32zM543 454l2 -5h-10l2 -5l7 -20h-108l3 -10h133l1 10h-16l3 20h-3l1 5h2l1 5h-18zM361 399h-3l1 -8zM611 392l1 7h-4z" />
<glyph unicode="X" horiz-adv-x="739" d="M679 609h97l-6 -10h-20l-9 -15h-101l-6 -10h14l-10 -15h13l-13 -20h-15l-9 -15h36l-6 -10h-17l-7 -10h-7l-3 -5h-13l-12 -20h-9l-10 -15h12l-6 -10h6l-12 -20h-82l-10 -15h2l-13 -20h89l-6 -10h24l-3 -5h-3l-7 -10h14l-6 -10h-81l-2 -3l4 -7h68l13 -20h-19l6 -10h-5l3 -5 h-7l10 -15h20l3 -5h34l3 -5h-49l7 -10h7l13 -20h-7l13 -20h-17l4 -5l10 -15h-20l4 -5h4l10 -15h27l3 -5h10l3 -5h23l13 -20h-3l10 -15h-38l3 -5h12l10 -15h-30l6 -10h-27l9 -15h79l10 -15h-9l7 -10h-12l13 -20h5l7 -10h7l3 -5h-12l13 -20h7l1 -1q2 -4 2.5 -6.5t0.5 -4.5v-3 h-8q-2 -9 -9 -15h-2q-5 -4 -13 -4h-225q-6 0 -10.5 1.5t-9.5 2.5h2q-12 5 -18 15h8q-1 2 -3 4l-7 11h-8l-13 20h13l-3 5h-8l-6 10h-6l-13 20h12l-6 10h9l-10 15h-79l-10 15h28l-7 10h31l-10 15h-12l-2 3l-2 -3h-7l-9 -15h-29l-6 -10h20l-10 -15h-12l-9 -15h35l-6 -10h5 l-12 -20h14l-7 -10h-19l-3 -5h4l-13 -20h2l-7 -11q-2 -2 -3 -4h-7q-6 -10 -18 -15h-4q-4 -1 -9 -2.5t-11 -1.5h-218q-8 0 -12 4h3q-7 6 -9 15h7v3q0 2 0.5 4.5t2.5 6.5l1 1h-2l13 20h-3l3 5h19l6 10h-14l13 20h-5l7 10h-36l10 15h12l10 15h-20l6 10h30l9 15h7l3 5h38l10 15 h2l13 20h-22l3 5h-10l3 5h-27l10 15h-4l3 5h19l10 15h-1l4 5h16l13 20h7l13 20h-7l6 10h49l4 5h-34l3 5h-20l10 15h6l4 5h5l7 10h19l13 20h-68l3 4l-4 6h82l-7 10h-13l-7 10h4l-3 5h-25l-6 10h-89l-12 20h-2l-9 15h82l-12 20h-7l-6 10h-12l-9 15h9l-12 20h13l-3 5h7l-6 10 h17l-6 10h-37l-9 15h15l-12 20h-9l-10 15h45l-6 10h-50l-9 15h-10l-6 10h57l-6 10h-14l-6 10h-24l-6 10h1l-3 5h7l-12 20h-37l-2 3q0 1 -0.5 1t-0.5 1h27q-1 2 -1.5 4t-0.5 5v1h1q2 10 7 15h-8q6 6 15 6h217q7 0 13 -2t10 -4h9q6 -3 10 -7t6 -8h-1l2 -4l4 -6h-27l2 -5h37 l12 -20h-7l3 -5h-1l6 -10h23l6 -10h14l5 -10h-57l6 -10h10l9 -15h126l9 15h20l6 10h-97l6 10h18l7 10h-41l7 10h22l3 5h-7l13 20h16l3 5h-9l4 6l2 4h3q2 4 6 8t10 7h-23q5 2 11 4t13 2h207q10 0 14 -6h23q7 -7 7 -15h-2v-1q0 -6 -2 -9h9q0 -1 -0.5 -1t-0.5 -1l-2 -3h-16 l-13 -20h6l-3 -5h-22l-6 -10h40l-6 -10h-18zM353 574l9 -15h4l9 15h-22zM375 553l3 6h-7z" />
<glyph unicode="Y" horiz-adv-x="710" d="M686 689q3 -4 3 -10h35v-1q0 -5 -2 -9l-3 -5h-37l-10 -20h8l-5 -10h16l-3 -5h-32l-7 -15h6l-3 -5h-12l-5 -10h67l-10 -20h-59l-2 -5h-13l-8 -15h28l-10 -20h21l-3 -5h-7l-3 -5h-6l-10 -20h1l-5 -10h15l-3 -5h-10l-3 -5h22l-5 -10h37l-5 -10h-92l-5 -10h63l-8 -15h-13 l-7 -15h-25l-2 -5h6l-5 -10h-6l-2 -5h21l-5 -10h10l-7 -15h-19l-2 -5h-5l-10 -20h-3l-3 -5h25l-5 -10h16l-7 -15h-60l-5 -10h34l-8 -15h-14l-3 -5l-8 -15h20l-3 -5h37l-2 -5l-5 -10h-81l-5 -10h102l-10 -20h-55l-5 -10v-10h-28v-10h5v-20h26v-20h-114v-20h117v-15h-40v-15 h11v-5h14v-20h8v-5h-26v-10h19v-20h-72v-20h-16v-10h70q0 -13 -12 -20h-12q-5 -4 -14 -4h-196q-9 0 -14 4h11q-10 7 -12 20h-71v10h16v20h72v20h-19v10h26v5h-8v20h-14v5h-11v15h40v15h-117v20h114v20h-26v20h-5v10h28v10l-5 10h55l-10 20h-102l-5 10h80l-5 10l-2 5h-37 l-3 5h-20l-7 15h1l-3 5h14l-7 15h-34l-5 10h60l-8 15h-16l-5 10h-25l-3 5h4l-10 20h4l-2 5h18l-8 15h-10l-5 10h-21l-3 5h6l-5 10h-6l-3 5h25l-8 15h13l-8 15h-63l-5 10h92l-5 10h-92l-5 10h20l-2 5h46l-2 5h5l-5 10h-35l-10 20h5l-3 5h-8l-3 5h-1l-10 20h-23l-8 15h12l-2 5 h-86l-10 20h23l-5 10h61l-2 5h25l-8 15h-41l-2 5h55l-5 10h-59l-11 20h33l-3 5q-2 4 -2 9v1h27q0 3 1 5.5t2 4.5h18q6 11 19 11h188q11 0 18.5 -3t12.5 -8h-18q3 -2 5.5 -5t3.5 -5h-27l2 -4l5 -11h-32l10 -20h60l5 -10h-56l3 -5h41l7 -15h-25l3 -5h-61l5 -10h-24l10 -20h86 l3 -5h-13l8 -15h23l10 -20h1l3 -5h8l2 -5h-5l10 -20h26l10 20h6l3 5h8l2 5h-21l10 20h-28l7 15h14l2 5h59l10 20h-68l5 10h13l2 5h-6l7 15h32l3 5h-16l5 10h-8l10 20h37l6 11l2 4h-35q2 2 4 5t5 5h51q5 5 13 8t18 3h188q13 0 19 -11h-51zM381 479l5 10h-22l2 5h-33l3 -5h-21 l5 -10h61z" />
<glyph unicode="Z" horiz-adv-x="693" d="M654 4q-7 -4 -15 -4h-571q-9 0 -14 4h-6q-3 2 -5.5 4.5t-4.5 5.5h-8l-2 5h-2q0 2 -0.5 4t-0.5 4v22h15v5h-7v20h-3v5h7v20h-2v20h-4v10h4v25h13v15h-1v2q0 4 0.5 7t1.5 6h-15q1 3 2 5.5t2 4.5h3q2 4 3 5h-17q2 2 3.5 4t2.5 3l8 8h19l10 10h-10l19 20h-11l10 10h18l10 10 h26l14 15h-8l10 10h-12l5 5h25l4 5h-25l15 15h5l5 5h-20l19 20h20l15 15l19 20h-11l9 10h18l19 20h-6l19 20h10l10 10h-13l5 5h-2l5 5h-13l5 5h16l19 20h-17l10 10h1l14 15h6l3 3h-258q-9 0 -18 7h8q-4 4 -7 10h-2q-2 6 -2 10v10h6v10h-9v20h-13v15h9v20h3v5h-29v20h26v20h1 v20h-15v10h56q0 4 2 10h-16q1 3 3 5.5t4 4.5h-21q8 6 17 6h548q11 0 17 -6h22q4 -4 7 -10h17q2 -6 2 -10h-56v-10h15v-20h-1v-20h-26v-20h29v-5h-3v-20h-9v-15h13v-20h9v-10h-6v-3q0 -9 -3 -17h3q-1 -3 -2.5 -5.5t-3.5 -4.5h-8q-1 -2 -5 -6l-4 -4h-6l-13 -15h-1l-9 -10h17 l-19 -20h-15l-5 -5h13l-5 -5h2l-4 -5h13l-9 -10h-10l-18 -20h6l-18 -20h-18l-9 -10h11l-18 -20l-14 -15h-19l-18 -20h19l-4 -5h-6l-13 -15h25l-5 -5h-24l-5 -5h12l-9 -10h8l-14 -15h-26l-9 -10h-18l-9 -10h11l-18 -20h10l-9 -10h-20l-8 -9h264q11 0 17 -6h17q3 -2 5 -5h-2 q2 -4 4 -10h15v-15h1v-15h-13v-25h-4v-10h4v-20h2v-20h-7v-5h3v-20h7v-5h-15v-22q0 -5 -1 -8h2l-2 -5h8q-2 -3 -4.5 -5.5t-5.5 -4.5h7z" />
<glyph unicode="[" horiz-adv-x="432" d="M450 -26h-108v-20h6v-5h76v-10h-9v-10h-7v-10h3v-20h-2v-10h-1v-5h1v-20h4q-2 -6 -4 -10h-8q-3 -7 -10 -10h-12q-6 -3 -12 -3h-303q-7 0 -13 3h12q-4 2 -6.5 4.5t-4.5 5.5h8q-2 4 -4 10h-4v20h-1v5h1v10h2v20h-3v10h7v10h9v10h-76v5h-6v20h108v20h-135v10h85v10h-73v10 h60v10h34v15h-15v10h5v5h-4v15h-1v30h2v20h26v5h8v15h-19v5h-56v15h57v5h13v20h-53v15h4v20h-6v10h134v10h-103v5h44v10h8v20h-57v20h-9v5h8v20h14v15h-15v10h2v20h-3v10h11v15h-4v20h-7v10h-6v5h18v20h-3v20h-20v20h3v10h6v15h17v10h-37v20h31v5h-23v15h-4v15h26v15h-48v20 h16v15h14v15h13v15h1v20h3v15h-5v5h5v5h-7v10h14v5h20v5h-35v10h8v10q0 3 1 5h-10q0 2 0.5 3t0.5 2h22l3 5h-23q7 12 22 12h303q14 0 23 -12h23q2 -4 2 -5h-21q0 -1 0.5 -2t0.5 -3h10v-15h-8v-10h35v-5h-20v-5h-14v-10h7v-5h-5v-5h5v-15h-3v-20h-1v-15h-13v-15h-14v-15h-16 q0 -12 -10 -20h48q-6 -6 -17 -6h-119v-9h-26v-15h4v-15h23v-5h-31v-20h37v-10h-17v-15h-6v-10h-3v-20h20v-20h3v-20h-18v-5h6v-10h7v-20h4v-15h-11v-10h3v-20h-2v-10h15v-15h-14v-20h-8v-5h9v-20h57v-20h-8v-10h-44v-5h103v-10h-134v-10h6v-20h-4v-15h53v-20h-13v-5h-57v-15 h56v-5h19v-15h-8v-5h-26v-20h-2v-30h1v-15h4v-5h-5v-10h15v-7h119q13 0 19 -8h-34q4 -4 7 -10h-61q2 -6 2 -9v-1h73v-10h-85v-10h135v-20z" />
<glyph unicode="\" horiz-adv-x="578" d="M592 54l8 -20h-97l6 -15h12l2 -5h4l6 -15h2l8 -20h1l9 -20h-36l2 -5h43l3 -7q2 -5 2 -9l-1 -4h-75q-2 -10 -10 -15h-13q-4 -3 -11 -3h-131q-10 0 -18 3h13q-7 2 -11.5 6.5l-8.5 8.5h75q-4 6 -6 12l-4 8h-42l-2 5h35l-8 20h-1l-9 20h-1l-6 15h-5l-2 5h-12l-6 15h97l-8 20 h-124l-2 5h155l-2 5h-80l-4 10h-29l-6 15h1l-6 15h32l-6 15h-35l-3 5h-11l-2 5h18l-2 5h-9l-8 20h1l-3 5h2l-6 15l-5 10h-10l-4 10h16l-6 15h-20l-3 5h13l-8 20h1l-5 10h22l-2 5h-18l-4 10h10l-4 10h3l-2 5h-41l-3 5h-55l-2 5h47l-9 20h63l-8 20h-17l-7 15h-80l-2 5h108 l-9 20h-119l-4 10h5l-4 10h16l-9 20h-33l-5 10h133l-7 15h-96l-7 15h75l-6 15h-19l-2 5h57l-8 20h-14l-4 10h63l-4 10h-86l-9 20h-39l-6 15h126l-2 5h-16l-2 5h-47l-6 15h-23l-8 20h54l-8 20h-102l-4 10h28l-6 15h-30l-7 15h31l-7 15h36l-14 35h-17l-9 20h-30l-2 5h8l-10 25 h-2l-5 11q-2 5 -2 9q0 9 6.5 15.5t15.5 6.5h134q16 0 25.5 -7t14.5 -15q3 -4 4 -8l5 -12h2l10 -25h-8l3 -5h30l8 -20h17l14 -35h-36l7 -15h-31l7 -15h30l6 -15h-28l4 -10h101l9 -20h-54l8 -20h23l6 -15h46l2 -5h16l2 -5h-125l6 -15h39l8 -20h87l4 -10h-63l4 -10h13l8 -20 h-57l2 -5h19l6 -15h-74l6 -15h97l6 -15h-132l4 -10h33l9 -20h-16l4 -10h-5l4 -10h119l8 -20h-107l2 -5h80l6 -15h17l9 -20h-63l8 -20h-46l2 -5h55l2 -5h41l2 -5h-3l4 -10h-9l4 -10h18l2 -5h-22l4 -10h-1l8 -20h-12l2 -5h20l6 -15h-16l5 -10h10l10 -25h-1l2 -5h-1l8 -20h9 l2 -5h-18l2 -5h12l2 -5h35l6 -15h-32l6 -15h-2l7 -15h28l5 -10h79l2 -5h-154l2 -5h124z" />
<glyph unicode="]" horiz-adv-x="432" d="M423 -6h-37v-10h6v-5h-3v-15h11v-15h-19v-20h3v-10h-13v-20h13v-15h-5v-10h12v-6q0 -6 -1 -9h-8q-5 -11 -13 -15h8q-6 -3 -13 -3h-303q-6 0 -12 3h-8q-10 5 -13 15h8q-2 6 -2 9v6h-12v10h5v15h-13v20h13v10h-3v20h19v15h-11v15h3v5h-6v10h37v15h-34v10h-21q0 8 7 15h9 q4 4 7 5h5q5 3 12 3h119v17h-2v25h2v5h1v20h-14v15h22v15h-34v15h8v5h14v10h-7v15h1v10h-25v5h60v20h-18v15h-15v20h-17v15h12v15h22v10h-23v10h-22v20h38v10h-3v15h-4v5h-4v20h46v15h-48v5h10v20h-8v5h8v5h16v10h8v5h-47v15h-3v15h12v5h-8v20h43v15h-20v10h23v5h-2v20h-20 v5h1v5h-3v30h1v9h-119q-5 0 -8 1h2q-12 3 -17 15h-3q-2 6 -2 10h-8v15h-24v5h11v5h-46v10h-33v20h11v10h111v5h-118v15h124v5h-101v20h66v20q0 4 2 10h10q7 17 25 17h303q18 0 25 -17h-9q1 -3 1 -10v-20h-66v-20h101v-5h-124v-15h118v-5h-111v-10h-11v-20h33v-10h46v-5h-11 v-5h24v-15h8v-10h3v-15h-2v-10h-1v-30h3v-5h-1v-5h20v-20h2v-5h-23v-10h20v-15h-43v-20h8v-5h-12v-15h3v-15h47v-5h-8v-10h-16v-5h-8v-5h8v-20h-10v-5h48v-15h-46v-20h4v-5h4v-15h3v-10h-38v-20h22v-10h23v-10h-22v-15h-12v-15h17v-20h15v-15h18v-20h-60v-5h25v-10h-1v-15h7 v-10h-14v-5h-8v-15h34v-15h-22v-15h14v-20h-1v-5h-2v-25h2v-20h-5v-5h-9v-15h22v-10h34v-15z" />
<glyph unicode="^" horiz-adv-x="492" d="M470 614q0 -1 0.5 -1.5t0.5 -1.5q0 -7 -5 -12h-50q-4 -4 -11 -4h-66q-8 0 -16.5 0.5t-16.5 3.5h50l-7 3l-27 12h-8l-11 5h-2l-33 15h-1l-11 5h20l-11 5l-10 -5h-16l-11 -5h-4l-33 -15h-10l-11 -5h-4l-26 -12l-7 -3h7q-9 -3 -17 -3.5t-16 -0.5h-66q-8 0 -12 4h-7 q-4 6 -4 12v3h4q0 2 0.5 3t0.5 2h11q2 4 3 5l9 10h4l4 5h16l19 20h16l19 20h-29l9 10h12l19 20h-43l18 20h33l4 5h-37l9 10h52l10 10h-27q12 11 29 11h120q15 0 29 -11h27l10 -10h-52l9 -10h37l5 -5h-32l18 -20h43l18 -20h-12l9 -10h29l18 -20h-17l19 -20h-20l4 -5h1l9 -10 q1 -1 3 -5h2q2 -4 2 -5h8z" />
<glyph unicode="_" horiz-adv-x="725" d="M713 9h-33v-20h9v-10h2v-20h7v-5h6v-10h15v-15q0 -3 -1 -5q-2 -15 -16 -20h-9q-6 -2 -10 -2h-605q-4 0 -10 2h9q-14 5 -17 20v20h-15v10h-6v5h-7v20h-2v10h-9v20h33v5h8v10h-42v5h17v15h-4v20h1v7q0 5 1 8h-6q7 19 26 19h605q21 0 26 -19h5q1 -2 1.5 -4t0.5 -4v-7h-1v-20 h4v-15h-17v-5h42v-10h-8v-5z" />
<glyph unicode="`" horiz-adv-x="450" d="M398 611q0 -7 -5 -12h1q-4 -4 -11 -4h-137q-7 0 -12.5 1.5t-9.5 2.5h-1q-6 2 -10.5 5.5t-9.5 7.5l-9 7h-45l-24 20h23l-18 15h23l-24 20h-65l-24 20h67l-12 10h11l-12 10h5l-6 5h-62l-6 5h69l-6 5h-6l-5 4q-2 2 -4 6h-14q-1 2 -1 6v4h-19q2 16 18 16h186q11 0 18 -2.5 t17 -13.5h19l3 -3l5 -7h15l8 -10h6l4 -5h-69l4 -5h62l5 -5h-6l8 -10h-11l8 -10h-67l16 -20h65l17 -20h-23l12 -15h-23l12 -15q1 -1 3 -5h45q2 -4 2 -8z" />
<glyph unicode="a" horiz-adv-x="622" d="M569 54v-10h87v-17q0 -2 -1 -3h-47q-2 -14 -13 -20h-9q-5 -4 -14 -4h-175q-9 0 -14 4h8q-10 7 -12 20h48v20h-40q-5 -5 -10.5 -10t-11.5 -10h-11q-18 -13 -36 -20h-32q-7 -3 -15.5 -5.5t-17.5 -4.5h-8q-10 -2 -20.5 -3t-21.5 -1q-12 0 -23.5 1t-22.5 3h8q-10 2 -19.5 4.5 t-18.5 5.5h31q-22 8 -40 20h11q-7 5 -13 10l-12 10h-50l-9 10q-1 2 -3 5t-4 5h30q-2 4 -4.5 7.5t-4.5 7.5h-9q0 1 -2 5h-9l-3 5h1l-6 15h-5q-1 4 -2 7.5t-2 7.5h-38q-3 11 -3 20h33v10v10.5t1 9.5h30q1 5 2 10.5t2 9.5h-28l2 5h1l2 5h-1q2 4 4 7.5t3 7.5h-59l6 10h-22 q3 3 4 5h36q2 2 4 5t4 5h2q10 12 21 20h-82q7 5 14.5 10.5t15.5 9.5h55l9 5h28q2 2 5 3t5 2h12q18 9 39 15h61q14 5 28.5 8.5t30.5 6.5h-25l16 3l106 17v5h51v5h-96v5h57v8.5t-1 6.5q-1 9 -7 15h-17q-1 1 -5 3l-7 -3h-17q-4 -3 -8 -6.5t-9 -8.5h1q-11 -11 -28 -11h-170 q-15 0 -20 11h-1q-3 5 -2 11v4h16q1 2 1 5h-64q0 4 2 10h144q0 1 2 5h-89q3 10 9 20h17q3 5 7 10l8 10h-75l9 10h145q4 4 8.5 7.5t8.5 7.5h-92l6 5h-28q5 4 11 7.5t12 7.5h47q21 12 44 20h7q27 10 60.5 15.5t73.5 5.5q82 0 139 -21h-8q11 -4 21.5 -9t20.5 -11h-47l21 -15h28 l6 -5h92l15 -15h-145q2 -2 4 -5t4 -5h74q4 -4 7.5 -9.5t5.5 -10.5h-16l9 -20h89q2 -4 2 -5h-144q2 -2 2.5 -5t1.5 -5h33q0 -1 0.5 -2t0.5 -3h17l6 -30h-58q0 -1 0.5 -2t0.5 -3h96v-5h-50v-5q1 -5 1 -10v-10h26v-15h-62v-15h-11v-5h-27v-5h-55v-20h82v-20h-2v-10h-36v-5h22 v-10h66v-15h-12v-10h8v-20h-6v-30h-33v-20h38v-15h5v-20h9v-5h8v-15h-31v-10h-6zM279 390q-7 0 -10 -1h21q-3 1 -11 1zM286 216l-9 -2h9v2zM252 189h28q-11 -8 -11 -20h-30v-3q0 -10 7 -17q5 -7 20 -10h24q15 3 26 10q9 8 17 20h5q2 5 4 9.5t3 10.5h-8q0 2 0.5 3t0.5 2h1v5 h12q1 4 1 7.5v7.5h-17l-49 -11q-4 -1 -7.5 -2t-6.5 -2l-6 -2t-5 -3h-1l-4 -2t-4 -3zM257 139h-25q4 -1 12 -1h6.5t6.5 1z" />
<glyph unicode="b" horiz-adv-x="661" d="M686 204h-94q0 -5 -0.5 -10t-1.5 -10h34q0 -3 -1 -5h6q-1 -4 -1.5 -7.5t-0.5 -7.5h-15q-1 -4 -1.5 -7.5t-2.5 -7.5h17q0 -3 -1 -5h-6l-2 -10t-3 -10h-1q-3 -9 -8 -20h1q-2 -5 -5 -10h-1l-3 -5h-32l-9 -15h-27l-3 -5h-36q-4 -5 -7.5 -10t-8.5 -10h144q-2 -3 -5 -5.5 t-5 -4.5h-115l-6 -5h69q-7 -6 -14.5 -10.5t-15.5 -9.5h-41q-13 -7 -28 -12t-32 -8h41q-11 -2 -23 -3t-25 -1q-12 0 -23.5 1t-22.5 3h-41q-30 6 -57 20h-39q-9 -14 -24 -14h-170q-16 0 -23 14h41q-3 6 -3 13v7h-25v5h-26v10h-55v20h35v5h27v15h32v5h2v10h-1v20h1v20h6v5h-17 v15h15v20h7v20h-31v5h21v20h105v15h-28v5h-81v15h-2v5h3v20h14v15h-7v15h-2v10h7v20h-25v20h8v15h-21v10h24v15h4v20h-23v15h28v35h-46v20h13v5h28v20h4v5h2v5h-24v5h32v15h-8v5h-7v15h25v10h28v15h-21v20h-42v5h12v10h-11v5h-32v20h27v5h10v15h-8v5h13q0 12 10 20h-8 q8 6 17 6h185q11 0 17 -6h8q10 -8 10 -20h-13v-5h8v-15h-10v-5h-27v-20h32v-5h11v-10h-12v-5h42v-20h21v-15h-28v-10h-25v-15h7v-5h8v-15h-32v-5h24v-5h-2v-5h-4v-20h-28v-5h-13v-16q5 5 10 8.5t11 7.5h38q2 2 4.5 3t3.5 2h11q24 14 51 20h-9q8 2 15.5 3t15.5 2h-5 q5 1 10.5 1h11.5h12t11 -1h5q8 -1 16.5 -2t15.5 -3h9q28 -6 53 -20h-11q2 -1 4.5 -2t3.5 -3h-38q7 -4 13.5 -9t12.5 -11h46q5 -4 9.5 -9.5t8.5 -10.5q3 -4 6 -7.5t5 -7.5h-28q6 -7 9 -15h23q2 -4 5 -9.5t5 -10.5h-5l6 -15h-23l3 -10h21q1 -4 2 -7.5t2 -7.5h-8q2 -4 2.5 -9.5 t1.5 -10.5h21l3 -20h-24v-5t1 -5h20q0 -4 0.5 -7.5t0.5 -7.5h-4v-15h2q1 -5 1 -10v-10h-6v-5h20v-15h-3v-5h43v-15h-76v-8v-6t-1 -6h80q-1 -2 -1 -5zM280 249h81v-5h28q0 -4 0.5 -7.5t0.5 -7.5h49q0 4 0.5 7.5t0.5 7.5h-44v5h4v15h-21v5h6v10.5t-1 9.5h-2v4q-1 3 -1 5.5 t-1 5.5h5q-1 4 -1.5 7.5t-2.5 7.5h-20q-2 6 -4 10h24q-8 16 -24 20h-21q-4 1 -8 1.5t-9 0.5q-4 0 -8.5 -0.5t-8.5 -1.5h24q-16 -4 -26 -20h-6q-2 -4 -4 -10h2q-1 -4 -1.5 -7.5t-1.5 -7.5h7v-3q0 -3 -0.5 -6t-0.5 -6h-14q-1 -5 -1 -10v-10h-3v-5h2v-7.5t1 -7.5zM369 184h-34 q6 7 9 20h94q1 2 1 5h-79l3 18v2h-78v-2q1 -4 1 -8.5t1 -9.5h-21l2 -5h31q2 -6 3.5 -11t5.5 -9h-8q1 -1 2.5 -2t2.5 -3q12 -10 33 -10q20 0 32 10h-6l3 3zM327 39q-3 2 -5.5 5t-4.5 5h-89v-10h99zM314 14q-16 10 -28 20h-7v-7q0 -7 -3 -13h38z" />
<glyph unicode="c" horiz-adv-x="622" d="M603 324h68q0 -1 -1 -2t-2 -3h-23q-8 -10 -22 -10h-195q-14 0 -22 10h23l-3 5h-69l-3 5q-1 4 -5 10h-17q-6 11 -13 15h25q-8 5 -19 5q-12 0 -20 -5h-21q-8 -4 -13 -15h-9q-2 -4 -4 -10h54q-1 -2 -1 -5h27q-1 -2 -1 -5h33q-1 -2 -1 -5t-1 -5h4v-5h-39v-10h-125v-5h192 q-1 -5 -1 -10v-10h-177v-5h71v-5h-19v-20h-54v-7.5t1 -7.5v-10h60q0 -7 1 -10h-55q2 -13 4 -20h-11q6 -14 17 -20h33q8 -3 17 -3q11 0 18 3h14q9 5 17 20h-27l3 7q2 4 4.5 7.5t4.5 5.5h70q9 7 20 7h195q10 0 19 -7h-70q10 -8 8 -20h27q-1 -4 -1.5 -9t-2.5 -11h-15l-3 -10h64 l-2 -5h-21l-2 -5h-111l-3 -5h121l-11 -20h10l-3 -5h-75q-3 -5 -6.5 -10t-7.5 -10h-18l-2 -2t-2 -3h69l-2 -2t-2 -3h-50l-2 -2l-3 -3h42l-10 -10h-5l-5 -5h12l-12 -10h18q-5 -4 -10.5 -7.5t-11.5 -7.5h20l-8 -5h-22l-18 -10h6q-16 -9 -36 -15h-17q-9 -3 -18 -5.5t-18 -4.5h-9 q-7 -1 -14 -2.5t-14 -2.5h20q-14 -2 -29 -3t-31 -1q-15 0 -29 1t-28 3h-21q-7 1 -13.5 2.5t-13.5 2.5h9q-9 2 -18 4.5t-17 5.5h17q-19 6 -35 15h-7q-4 2 -8.5 4.5t-8.5 5.5h21l-8 5h-20l-20 15h-17q-3 2 -6 5l-5 5h-13l-5 5h5l-10 10h-41q-3 3 -4 5h50q-3 3 -4 5h-70 q-1 2 -4 5h18q-4 5 -7 10l-6 10h75l-3 5h-10q-3 5 -5.5 10t-4.5 10h-120l-2 5h111l-2 5h21l-2 5h-64l-3 10h-33l-2 10l-2 10h10l-3 20h55v10h-60v5q-1 5 -1 10v10h54v20h19v5h-71v5h177v20h-191v5h125v10h39v5h-4q1 2 1 5v5h-32v5h-27q0 3 1 5h-54q2 6 2 10h10l3 15h21l6 20 h2q1 4 3 7.5t3 7.5h-5q2 5 4.5 10.5t5.5 9.5h-6q2 4 4.5 7.5t5.5 7.5h1q4 5 8 10.5t8 9.5h1q6 8 15 15h-5l6 5h-2l6 5h37q2 2 4 3t3 2h-22q2 2 4 3t3 2h-8q18 12 35 20h20q6 3 12 5.5t12 4.5h-23q4 2 7.5 3t7.5 2h-1q5 2 9.5 3t8.5 2h-3q44 11 92 11q27 0 51 -3t45 -8h3 q5 -1 9.5 -2t8.5 -3h1q4 -1 7.5 -2t7.5 -3h23q15 -5 25 -10h-21q10 -4 19 -9.5t18 -10.5h8l4 -2t3 -3h22q2 -1 3.5 -2t3.5 -3h-37l6 -5h2l6 -5h4q5 -4 9 -7.5t8 -7.5h-1q5 -5 9.5 -10t8.5 -10h-1q3 -4 6 -7.5t5 -7.5h6q4 -5 7 -10t5 -10h6q2 -4 4 -7.5t3 -7.5h-1l4 -10 t3 -10h-25l3 -15h17v-10z" />
<glyph unicode="d" horiz-adv-x="661" d="M606 159h-40v-10h3v-10h125v-20h-49v-10h-68v-15h106v-10h-59v-5h-8v-20h-35v-10h32v-10h-29v-12q0 -2 -0.5 -4t-0.5 -4h24q0 -1 -2 -5h8q-7 -14 -23 -14h-170q-15 0 -24 14h-8l-3 5h-24q-1 2 -1 5l-8 -5h9l-8 -5h31q-16 -9 -36 -15h-5q-5 -1 -10.5 -2.5t-10.5 -2.5h-5 q-11 -2 -22.5 -3t-23.5 -1q-13 0 -25 1t-23 3h5q-5 1 -11 2.5t-11 2.5h5q-21 6 -38 15h-31l-9 5h-9q-7 5 -13.5 9.5t-12.5 10.5h30l-10 10h-62l-9 10h36q-8 10 -14 20h8l-3 5h58q-2 5 -5 10h-106l-6 15h67l-3 10h49l-6 20h-125l-3 10h-2q-2 6 -2 10h39l-2 10l-2 10h60 q-1 2 -1 5v5h-31q0 4 -0.5 7.5t-0.5 7.5h-20v7.5t-1 7.5h-2v5q0 4 -0.5 7.5t-0.5 7.5h-15q-1 4 -1 7.5v7.5h19v20h5v5h2v20h21v1v10t1 9h-54q1 4 1 7.5t1 7.5h42v5h2q1 2 1 5t1 5h3l3 15h-22l2 5h-3q1 4 2 7.5t2 7.5h6q2 5 3.5 10.5t3.5 9.5h-2l2 5q2 5 4.5 10.5t5.5 9.5 l9 15h-10l7 10h-13q4 4 8 10h35q2 2 4.5 5t5.5 5h-35q7 7 11 10h31q11 9 21 15h-11q20 12 43 20h-15q36 11 73 11q38 0 71 -11h15q22 -7 41 -20h53v20h-22v20h30v15h-1v20h-44v10h9v10h7v5h-6v5h-3v5h-1v5h-3v5h-2v20h-21v20h23v5h3v20q0 4 2 10h10q7 16 25 16h185 q18 0 25 -16h-11q3 -4 3 -11v-19h-3v-5h-23v-20h21v-20h2v-5h3v-5h1v-5h3v-5h6v-5h-7v-10h-9v-10h44v-20h1v-15h-30v-20h22v-20h-48v-15h-5v-10h35v-10h-35v-10h12v-10h11v-15h-1v-25h2v-20h-6v-15h2v-5h22v-15h24v-10h-28v-5h-18v-15h19v-20h-61v-20h7v-5h30v-5h9v-15h-10 v-15h14v-15h1v-5h-11v-15h8v-15h85v-10h-99v-20zM336 189q2 -3 4 -5.5t4 -4.5h-60q12 -10 33 -10q20 0 33 10h99l4.5 4.5t3.5 5.5h-85q3 6 6 15h-8q1 4 1.5 7.5t0.5 7.5h12v5h-1v3v6t1 6h-14v15h10v15h-8v5h-31v5h-6q-1 5 -1 10t-1 10h61v2q-1 11 -3 18h-19q-3 10 -7 15h18 q-1 2 -4 5h28q-7 7 -18 10h-24q-4 1 -8.5 1.5t-9.5 0.5t-9 -0.5t-8 -1.5h-3q-11 -3 -18 -10h-2q-1 -2 -4 -5h-41q-4 -5 -7 -15h53q-1 -4 -2 -9.5t-2 -10.5h-20v-6q-1 -3 -1 -6.5t-1 -7.5h-2v-5h-4v-5q-1 -7 0 -15h-19v-15h16v-6t1 -6v-3q1 -2 1 -5h2l3 -15h20q2 -9 6 -15h30 z" />
<glyph unicode="e" horiz-adv-x="623" d="M554 274v-10h127v-10h-77v-10h-36v-10h31v-6q0 -6 -1 -9h14q-7 -18 -26 -18h-298v-2h40v-3v-8.5t1 -8.5h-54q0 -3 0.5 -5.5t0.5 -4.5h-6q0 -4 2 -10h4q5 -14 16 -20h-27q7 -4 19 -4q8 0 13 4h47q4 2 7.5 6t8.5 8l6 6h-19q9 8 27 8h189q12 0 18 -8h18q5 -7 5 -14 q-1 -2 -1 -6h-47q-2 -10 -6 -20h-49q-3 -5 -5 -10h124q-2 -5 -5.5 -10t-7.5 -10h-30q-4 -6 -8 -10h7l-2 -2t-2 -3h-56l-5 -5h17q-1 -1 -2.5 -2t-2.5 -3h31q-7 -7 -18 -15h-15q-1 -1 -3 -2t-4 -3h-11q-16 -11 -35 -20h-13q-12 -6 -25.5 -11t-28.5 -9h-16q-11 -3 -23 -5.5 t-26 -4.5h42q-14 -2 -29 -3t-32 -1q-16 0 -32 1t-31 3h-42q-13 2 -25 4.5t-24 5.5h16q-27 7 -51 20h13q-18 10 -31 20h11q-2 2 -3.5 3t-3.5 2h15q-4 4 -8 7.5t-8 7.5h-32l-5 5h-17q-1 2 -2 3l-2 2h55q-1 2 -4 5h-7q-2 2 -4 5t-4 5h30l-6 10l-6 10h-125q-3 5 -5 10h49l-9 20 h27q-2 5 -3.5 10t-3.5 10h-3l-3 10h7l-3 10h54l-2 10l-2 10h-40l-2 20h-14q0 4 -0.5 7.5t-0.5 7.5h-31v10h35v10h77v10h-127v2q0 5 1 8h173q0 4 0.5 7.5t0.5 7.5h-159q0 2 0.5 3t0.5 2h66q0 3 1 5h74v5h-141l2 10l2 10h38q0 4 2 10h-33q0 2 0.5 3t0.5 2h24q0 2 0.5 3t0.5 2 h-25l2 5h24l3 10h19l6 15h-18q2 5 4 10.5t5 9.5h-3l2 5h-25q2 4 2 5h-23l6 10h49q1 2 4 5h18q4 5 7.5 10.5t7.5 9.5h-18q3 4 6.5 7.5l7.5 7.5h39l10 10h-59q13 11 26 20h55l8 5h-18q8 5 19 10h39q27 13 56 20h-56q22 5 46 8t50 3t49 -3t44 -8h55q15 -4 28.5 -9t26.5 -11h-39 q5 -2 9.5 -4.5t8.5 -5.5h18l4 -2t4 -3h-55q13 -9 26 -20h60l10 -10h-39l7.5 -7.5t6.5 -7.5h18q4 -4 7.5 -9.5t7.5 -10.5h-19q1 -2 4 -5h-50l6 -10h23l3 -5h26q0 -1 2 -5h3l9 -20l6 -15h1l3 -10h-12l2 -5h9l2 -5h16q0 -1 0.5 -2t0.5 -3h-8l3 -10h-38l3 -20h141v-5h-74 q0 -1 0.5 -2t0.5 -3h-67q1 -2 1 -5h159v-7.5t1 -7.5h-174zM250 339v-5h32v-8h80v8h7v5h-16v5h-10q0 3 -1 5h12q0 4 -2 10h-1q-1 9 -6 15q-10 16 -31 16q-20 0 -30 -16h18q-4 -6 -6 -15h-20q0 -2 -0.5 -4.5t-1.5 -5.5h-24q0 -3 -1 -5h25v-5h-24z" />
<glyph unicode="f" horiz-adv-x="492" d="M465 464v-15h43v-10h-45v-10h19v-20h3v-20h19v-10h-27v-7q0 -5 -1 -8h-5q-4 -11 -12 -15h9q-5 -4 -14 -4h-114v-11h-4v-20h-7v-10h13v-10h-2v-10h-18v-20h66v-20h75v-20h-79v-10h102v-15h-136v-5h-31v-20h49v-10h19v-5h10v-20h-41v-15h44v-20h2v-20h-42v-15h-4v-5h-16 v-20h-35v-20h25q-2 -14 -12 -20h9q-5 -4 -14 -4h-175q-9 0 -14 4h-10q-10 6 -12 20h-26v20h35v20h16v5h4v15h42v20h-2v20h-44v15h41v20h-10v5h-19v10h-49v20h31v5h136v15h-102v10h79v20h-75v20h-66v20h18v10h2v10h-13v10h7v20h4v11h-69q-9 0 -14 4h-9q-8 4 -12 15h6 q-1 2 -1.5 4t-0.5 4v7h27v10h-19v20h-3v20h-19v10h45v10h-43v15h17v10h-1v15h8v4q0 7 3 11h49q7 16 24 16h69v4h16v20h-109v10h49q1 2 1 5h-9q0 4 0.5 7.5t1.5 7.5h-8q1 5 2 10.5t2 9.5h-2q0 2 0.5 3t0.5 2h7q0 2 0.5 3t0.5 2h-2q1 4 2 7.5t2 7.5h1q2 5 4 10.5t5 9.5h4 q2 5 5 10h-20q6 10 14 20h-13l15 15h20q5 4 9.5 7.5t9.5 7.5h-6q14 10 28 15h-1q3 2 6 3l6 2h-16q32 12 69 16.5t77 4.5h93q22 0 27 -21h15q1 -2 1 -5h1v-15h6v-15h-20v-15h13v-20h20v-10h-4v-20h-1v-15h2v-5h-6v-5h1v-2q0 -11 -7 -18h8q-7 -9 -21 -9h-81q-19 0 -28 -6h8 q-2 -1 -6 -5h-49q-5 -5 -6 -10h109q-1 -3 -1.5 -6t-0.5 -6v-8h-16v-4h114q18 0 25 -16h-49q2 -6 2 -11v-4h-8v-15h1v-10h-17z" />
<glyph unicode="g" horiz-adv-x="666" d="M628 19h32v-15h-25v-5h7q-1 -4 -1 -7.5t-1 -7.5h-1v-5h-47q-1 -2 -1 -5t-1 -5h58l-2 -10l-2 -10h-16q-1 -4 -2 -7.5t-3 -7.5h-33l-4 -10h17l-4 -10h2q-2 -5 -5 -10h1l-9 -15q-1 -1 -1.5 -2l-1.5 -3q-2 -4 -5 -7.5t-6 -7.5h-2l-5 -5h19l-9 -10h-23q-3 -2 -6 -5l-5 -5h27 q-4 -4 -9.5 -7.5t-10.5 -7.5h36q-6 -4 -12.5 -7.5t-13.5 -7.5h-10q-5 -3 -11 -5.5t-11 -4.5h-57q-19 -7 -39 -12t-41 -8h59q-15 -2 -31 -3t-32 -1q-17 0 -33.5 1t-31.5 3h-59q-45 6 -83 20h57q-6 2 -12 4.5t-12 5.5h10q-7 4 -14 7.5t-14 7.5h-35q-6 4 -11.5 7.5t-10.5 7.5 h-27q-8 6 -12 10h23q-3 2 -6 5l-5 5h-19q-1 2 -2 3t-3 2h3q-4 4 -7 7.5t-6 7.5h-1q-1 2 -4 5h1q-3 4 -6 7.5t-5 7.5l-6 10h-2q-1 2 -2 5t-3 5h-17l-4 10h34q-1 4 -2.5 7.5t-2.5 7.5h-6q0 3 -0.5 5.5t-0.5 4.5q0 7 1 10h-3q3 6 7 10h-6q6 4 9 5h13q6 2 11 2h195q5 0 11 -2 h-14q5 -1 8 -5h6q4 -4 7 -10h3l2 -3q7 -12 13 -17h5q11 -8 30 -8q15 0 26 8h16q9 7 13 20h-58q2 6 2 10h47q1 2 1 5h1q1 4 1 7.5v7.5h-6v5h24v15h-32v5h-19v5h18v20h-19v6l-10 -6h-1q-24 -14 -52 -20h4q-8 -1 -16 -2.5t-17 -2.5h-25q-6 -1 -12 -1h-12h-14t-13 1h24 q-9 1 -18 2.5t-18 2.5h-3q-15 3 -28.5 8t-26.5 12h1q-4 2 -8 4.5t-8 5.5h23q-6 5 -11.5 10t-10.5 10h-81l-5 5h46q-8 10 -14 20h13q-7 10 -11 20h-2q-5 11 -8 20h-73q0 2 -0.5 3t-0.5 2h68l-3 10h5q-1 5 -2.5 10t-2.5 10h12l-3 20h-13l-1 10h-24q-1 5 -1 10t-1 10h-9 q0 4 -0.5 7.5t-0.5 7.5h14v10h18q0 4 -0.5 7.5t-0.5 7.5h9v15h-16v7.5t1 7.5h2v1q0 4 0.5 7t0.5 7h4q1 4 1 7.5t1 7.5q1 2 1 5t1 5h-5v5h6q1 5 2 10.5t2 9.5h-1q1 4 2 7.5t2 7.5h8q2 5 3.5 10.5t3.5 9.5h5l2 5h-14q1 2 2 5t2 5l6 15l1.5 3t1.5 2l3 5q2 2 3.5 5t3.5 5 q1 2 2 3l2 2h-2l12 15q3 2 5.5 5t4.5 5h2q1 2 2.5 3t2.5 2h11q6 6 13 10h-25q4 3 8 5.5t8 4.5h7q14 8 34 15h33q36 11 77 11q36 0 67 -11h-33q16 -5 32 -15h-6q4 -2 7.5 -4.5t7.5 -5.5h24q4 -2 7 -5t6 -5h-11l5 -5h-1l9 -10q2 -1 3.5 -3t2.5 -4v7h4v10h17v5h11v10h-49 q0 6 3 10h17q5 12 17 15h-20q3 1 8 1h175q5 0 7 -1h20q12 -3 17 -15h-17q2 -6 2 -10h49v-10h-11v-5h-17v-10h-4v-15h1v-15h-1v-25h1v-10h14v-5h-6v-20h-9l1 -15v-25h-3v-10h-3v-15h6v-15h12v-15h-21v-15h7v-15h2v-10h-33l1 -15h4v-20h22v-10h18v-20h-13v-20h-4v-10h-69v-5 h73v-20h2v-20h-14l1 -20h-46v-5h81v-20h-36v-10h19v-20h-18v-5h19v-5zM291 209q7 -7 18 -10h12q4 -1 8.5 -1.5t8.5 -0.5q5 0 9.5 0.5t8.5 1.5h-18q11 3 18 10h-22q8 8 11 20h-4l3 15h32q0 2 1 3v7h-2v15h-6v15h20v15h-13v2q0 4 -0.5 7t-1.5 6h-5q-1 8 -5 15h2q-3 6 -7 10h3 q-4 4 -6 5q-10 7 -29 7t-29 -7h-6q-2 -1 -6 -5h5q-4 -4 -7 -10h-1q-1 -3 -2 -6.5t-3 -8.5h-4q-1 -4 -1.5 -7.5t-0.5 -7.5h-3v-6q-1 -3 -1 -9h16v-15h-9q0 -4 0.5 -7.5t0.5 -6.5v-1h-18l1 -10h-14l3 -15h9q3 -12 11 -20h23zM390 59h9v7z" />
<glyph unicode="h" horiz-adv-x="685" d="M709 144h-92v-10h65v-5h-12v-10h-25v-25h9v-10h28v-10h-67v-20h71v-15h-42v-10h13v-5h-12q-2 -6 -4 -10q-1 -2 -4 -5h1q-4 -4 -6 -5h-2q-5 -4 -14 -4h-196q-8 0 -15 4h3q-2 1 -6 5h-1q-3 3 -4 5h1q-3 5 -3 10h12v5h-13v10h42v15h-71v20h67v10h-28v10h-9v25h25v10h12v5 h-65v10h92v10h-66v15h31v10h-40v-10h-23v-15h-17v-10h10v-10h-36v-5h-21v-10h-2v-10h-2v-15h-36v-10h-42v-10h65v-20h-77v-15h24v-10h54v-5h14l-3 -10h-1l-2 -2t-2 -3h1q-4 -4 -6 -5h22q-7 -4 -15 -4h-195q-9 0 -14 4h-22q-2 1 -6 5q-3 3 -4 5h1q-1 2 -2 4.5t-1 5.5h-14v5 h-54v10h-24v15h77v20h-65v10h42v10h36v15h2v10h2v10h21v5h36v10h-10v10h17v15h23v10h-123v5h14v5h23v5h-20v5h18v15h-1v15h-17v5h14v10h15v5h-25v20h-27v10h23v20h28v5h-16v5h-1v5h4v10h28v5h-39v10h13v15h21v5h-13v15h-9v5h-8v15h19v20h-31v20h31v15h-32v20h21v5h10v15h-11 v15h-3v20h8v15h29v15h-37v10h-23v20h-58v20h105v20h-9v20h-41v10h68v5h-40v20h-10v4q0 5 2 11h12q7 16 25 16h195q18 0 25 -16h-12q2 -6 2 -11v-4h10v-20h40v-5h-68v-10h41v-20h9v-20h-105v-20h58v-20h23v-10h37v-15h-29v-15h-8v-20h3v-15h11v-15h24q5 4 9 7.5t9 7.5h-29 q6 4 11.5 8t12.5 7q25 14 53 20h23q26 6 53 6q26 0 50 -6h-23q26 -6 50 -20q5 -3 11 -6.5t11 -8.5h28q5 -4 8.5 -7.5l7.5 -7.5h-26l2 -2t2 -3h-23q5 -4 8.5 -9.5t7.5 -10.5h33l9 -15h-31l9 -20h32q2 -4 4 -9.5t3 -10.5h-19q2 -4 2.5 -7.5t1.5 -7.5h8q1 -2 1 -5h10l3 -15h12 q1 -2 1 -5h-20l1 -10h-10v-5h16q1 -2 1 -5v-5h28v-5h-33v-10h-1q1 -2 1 -5h-1v-5h-3v-5h2v-20h-39v-10h42v-20h-4v-5h9v-10h-19v-5h16v-15h15v-15h-19v-5h10v-5h7v-5h-42v-5h54v-10h-31v-15h66v-10zM301 474h-7v-5h2l3 3zM370 184h42v5h-7v5h-10v5h19v15h-15v15h-16v5h19v10 h-9v5h4v20h-42v10h39v20h-2v5h3q0 2 -0.5 3t-0.5 2h1q-1 2 -1 5h1l-3 10h33q-2 4 -2 5h-28q-1 3 -3.5 5.5l-4.5 4.5h-16q-4 4 -7 5h11q-11 7 -29 7t-28 -7h-1q-2 -1 -6 -5h-13q-2 -2 -4 -4.5t-4 -5.5h38q-2 -4 -2 -5h-28l-3 -10h-5q0 -3 -1 -5h2v-5h15v-5h-28v-20h-23v-10 h27v-20h25v-5h-15v-10h-14v-5h17v-15h1v-15h-18v-5h20v-5h-23v-5h-14v-5h109v5z" />
<glyph unicode="i" horiz-adv-x="323" d="M40 604v20h-1v15h9v5h6v20h-5v15h1v20h4v15h-2v9q0 8 2 11h10l3 5h-8q8 11 22 11h169q14 0 22 -11h8l3 -5h-11q3 -4 3 -11v-9h2v-15h-4v-20h-1v-15h5v-20h-6v-5h-9v-15h1v-20h7v-2q0 -9 -7 -18h-12q-7 -9 -20 -9h-169q-13 0 -21 9h12q-6 8 -6 18v2h-7zM246 394h94v-20 h-34v-10h-38v-20h29v-5h-19v-10h3v-10h5v-15h-50v-15h33v-15h-6v-10h17v-15h4v-15h-6v-15h5v-10h-5v-20h-2v-15h-4v-15h4v-10h2v-20h-4v-10h5v-10h-1v-15h4v-15h3v-5h-7v-20h-14v-20h10v-7q0 -5 -1 -8h-7q-3 -10 -11 -15h20q-5 -4 -15 -4h-179q-9 0 -14 4h-20q-9 5 -12 15h7 q-1 3 -1 8v7h-10v20h14v20h7v5h-3v15h-4v15h1v10h-5v10h4v20h-2v10h-4v15h4v15h2v20h5v10h-5v15h6v15h-4v15h-17v10h6v15h-33v15h50v15h-5v10h-3v10h19v5h-29v20h38v10h34v20h-94v10h83v20h-30v15h18v20h-32v5h-7v10h-6v15h7v4q0 11 5 16h1q8 11 22 11h179q14 0 22 -11h-2 q6 -6 6 -16v-4h-7v-15h6v-10h7v-5h32v-20h-18v-15h30v-20h-83v-10z" />
<glyph unicode="j" horiz-adv-x="345" d="M106 604v10h-50v5h10v10h-2v15h-7v15h6v20h9v5h-5v20h10v15h-13v4q0 7 3 11h12q0 2 3 5h-13q8 11 22 11h178q14 0 22 -11h12l3 -5h-12q2 -3 2 -11v-4h13v-15h-10v-20h5v-5h-9v-20h-6v-15h7v-15h2v-10h-10v-5h50v-10h18v-2q0 -7 -3 -13h-58q-9 -14 -24 -14h-178 q-16 0 -23 14h57q-3 6 -3 13v2h-18zM399 399h-133v-5h34v-5h-15v-10h50v-10h-24v-20h-11v-5h-17v-5h9v-10h-14v-10h-14v-5h73v-5h-116v-15h-11v-5h-22v-20h29v-20h54v-15h-8v-20h36v-20h-3v-5h3v-5h2v-15h-26v-20h9v-10h17v-10h-6v-20h5v-10h6v-10h-24v-15h3v-5h15v-5h5v-5 h2v-20h-8v-15h8v-5h-25v-10t-1 -10h7l-3 -20h29l-2 -10t-3 -10h20q-1 -5 -3 -10l-4 -10h-56q-1 -4 -3 -7.5t-4 -7.5h17l-3 -5h-5l-3 -5h24l-6 -10h24l-12 -15h-38l-5 -5h-10l-5 -5h7q-5 -5 -10.5 -10t-12.5 -10h-23q-4 -3 -7.5 -5.5t-7.5 -4.5h56q-21 -13 -42 -20h-45 q-7 -3 -16 -5.5t-18 -4.5h6q-7 -1 -13.5 -2.5t-13.5 -2.5h16q-14 -2 -28.5 -3t-29.5 -1h-88q-9 0 -14 4h-16q-2 1 -6 5h-6q-4 6 -5 10h44q-1 3 -1 8v12h-56v10h23v20h-7v5h10v5h39v15h-24v10h-24v5h5v5h-17v15h56v20h-20q1 11 10 20h-28q6 6 17 6h58q22 0 33 14h-7q7 8 8 20 h25v5h-8q1 3 1 11v4h8v20h-2v5h-5v5h-15v5h-3v15h24v10h-6v10h-5v20h6v10h-17v10h-9v20h26v15h-2v5h-3v5h3v20h-36v20h8v15h-54v20h-29v20h22v5h11v15h116v5h-73v5h14v10h14v10h-9v5h17v5h11v20h24v10h-50v10h15v5h-34v5h133v20h-116v15h44v10h-20v5h12v20h28v20h-69v4 q0 5 2 11h98q9 16 25 16h188q18 0 25 -16h-98q2 -6 2 -11v-4h69v-20h-28v-20h-12v-5h20v-10h-44v-15h116v-20z" />
<glyph unicode="k" horiz-adv-x="643" d="M622 19q-2 -10 -10 -15h65q-5 -4 -13 -4h-210q-9 0 -17 4h-161q-5 -4 -14 -4h-175q-9 0 -14 4h137q-9 6 -11 15h-141q-1 3 -1 8v12h-32v10h24v20h-12v20h7v15h6v10h-4v10h-17v15h14v10h14v20h-17v10h-3v5h9v10h-1v5h-7v15h26v15h26v5h-30v15h-14v15h-4v10h6v20h-4v20h3v5 h-2v5h-3v5h-2v20h-5v5h32v15h-29v5h45v15h-56v5h30v5h70v15h-100v20h17v20h9v5h3v15h-19v10h11v20h-9v15h10v20h-2v15h-8v20h20v10h-15v5h-27v5h-25v20h14v5h27v15h-67v5h126v5h-15v10h-171v5h-25v20h227v5h-79q0 4 2 10h-77q7 16 24 16h175q18 0 25 -16h77q3 -4 3 -10h79 v-5h-227v-20h25v-5h171v-10h15v-5h-126v-5h67v-15h-27v-5h-14v-20h25v-5h27v-5h15v-10h-20v-20h8v-15h2v-20h-10v-15h9v-20h-11v-10h19v-15h-3v-5h-9v-20h-17v-20h95l12 20h-50l13 20h6l3 5h-5l9 15h12l6 10h-2l12 19v1h-9q2 3 6.5 8t12.5 7h5q3 1 9 1h202q5 0 7 -1h-5 q11 -3 16 -15h9q1 -2 1.5 -4t0.5 -4q0 -6 -4 -12h2q0 -1 -2 -3l-5 -7h-11l-11 -15h6l-4 -5h-6l-14 -20h49l-14 -20l-11 -15h9l-3 -5h-52l-4 -5h-40l-11 -15h16l-3 -5h46l-7 -10l-4 -5h-31l-4 -5h5l-14 -20h2l-4 -5h4l-4 -5h2l-3 -5h-3l-14 -20h4l-6 -8l8 -12h-6l6 -10h4 l10 -15h14l10 -15h30l4 -5h-27l10 -15h-26l10 -15h7l3 -5h1l7 -10h-7l3 -5h15l6 -10h12l13 -20h-19l6 -10h-1l9 -15h8l6 -10h-8l7 -10h10l9 -15h-4l13 -20h-5l13 -20h24l7 -10h55l1 -2q4 -6 4 -13v-5h-98zM286 394h-30v-5h36l3 5h52l3 5h-64v-5zM296 369v-10l6 10h-6z M454 19l-12 20h-55l-6 10h-24l-12 20h5l-12 20h4l-9 15h-10l-6 10h8l-6 10h-7l-9 15h2l-6 10h18l-12 20h-11l-6 10h-14l-3 5h-5v-5h3v-10h17v-20h-14v-10h-14v-15h17v-10h4v-10h-6v-15h-7v-20h12v-20h-24v-10h32v-12q0 -5 -1 -8h169z" />
<glyph unicode="l" horiz-adv-x="323" d="M380 389h-82v-5h6v-20h26v-10h-67v-15h16v-5h1v-15h5v-5h-11v-5h12v-5h-8v-10h-6v-15h5v-5h4v-5h-27v-10h-11v-5h-9v-15h23v-5h-17v-10h51v-20h-47v-20h42v-20h-7v-5h10v-20h-35v-10h68v-20h-59v-5h27v-15h-13v-20h-4v-20h5v-15h-11v-7q0 -5 -1 -8h27q-4 -11 -12 -15h-33 q-5 -4 -14 -4h-179q-9 0 -14 4h33q-8 4 -12 15h-27q-1 3 -1 8v7h11v15h-5v20h4v20h13v15h-27v5h59v20h-68v10h35v20h-10v5h7v20h-42v20h47v20h-51v10h17v5h-23v15h9v5h11v10h27v5h-4v5h-5v15h6v10h8v5h-12v5h11v5h-5v15h-1v5h-16v15h67v10h-26v20h-6v5h82v5h-87v15h51v15 h-41v5h-40v20h28v5h-13v5h-14v15h5v5h16v20h-7v10h14v35h42v5h-28v15h-38v5h-2v10h9v10h2v5h1v15h-2v5h2v5h3v15h-7v15h7v5h-2v20h-1v5h-1v4q0 5 2 11h1q7 16 25 16h179q16 0 25 -16h-1q2 -6 2 -11v-4h1v-5h1v-20h2v-5h-7v-15h7v-15h-3v-5h-2v-5h2v-15h-1v-5h-2v-10h-9v-10 h2v-5h38v-15h28v-5h-42v-35h-14v-10h7v-20h-16v-5h-5v-15h14v-5h13v-5h-28v-20h40v-5h41v-15h-51v-15h87v-5z" />
<glyph unicode="m" horiz-adv-x="938" d="M918 234h-19v-5h14v-10h-37v-5h29v-15h-13v-15h8v-5h-6v-10h4v-15h2v-10h-3v-10h-1v-20h5v-20h-12v-20h-4v-10h15v-20h-20v-20h18l-3 -10h17q-4 -7 -9 -10h-3q-5 -4 -14 -4h-176q-9 0 -14 4h2q-5 3 -9 10h-18l-3 10h-18v20h20v20h-15v10h4v20h12v20h-5v20h1v10h3v10h-2 v15h-4v10h6v5h-8v15h13v15h-29v5h-70v-5h13v-15h-2v-15h9v-5h-5v-10h-2v-15h-1v-10h1v-10h4v-20h-42v-20h55v-20h-16v-10h-1v-20h-6v-20h6q0 -3 -1 -5.5t-2 -4.5h22q-2 -3 -4.5 -5.5t-5.5 -4.5h-58q-5 -4 -14 -4h-176q-9 0 -14 4h58q-7 3 -10 10h-22l-3 10h-6v20h6v20h1v10 h16v20h-55v20h42v20h-4v10h-1v10h1v15h2v10h5v5h-9v15h2v15h-13v5h75v10h-45v5h8v20h-25v20h2v5h-7v15h12v5h-6v3q0 5 -0.5 9t-1.5 8h6q0 6 -3 10h-8q-4 9 -12 15h5q-8 7 -23 7q-14 0 -24 -7q-7 -6 -12 -15h-3l-3 -10h6q-1 -4 -1 -8v-9v-3h-14v-5h9v-15h-2v-5h-4v-20h-15 v-20h-3v-5h56v-10h-15v-5h-19v-15h-2v-15h7v-5h-2v-10h-2v-10h-4v-5h-3v-10h8v-30h-36v-20h37v-20h-4v-10h7v-20h-3v-17q0 -1 -0.5 -1.5t-0.5 -1.5h5l-3 -10h-22q-3 -7 -10 -10h72q-5 -4 -14 -4h-180q-9 0 -14 4h-72q-5 3 -9 10h21q-1 2 -2 4.5t-1 5.5h-4v20h3v20h-7v10h4 v20h-37v20h36v30h-8v10h3v5h4v10h2v10h2v5h-7v15h2v15h19v5h15v10h-56v5h3v20h15v20h4v5h2v15h-9v5h14v20h-7v10h3v15h1v10h-6v5h4v15h-9v15h7v15h-1v20h2v5h-8v10h12v20h-11v5h-6v5h-41v15h-74v5h87v4q0 9 5 16h56q2 3 5 5h-44q6 6 17 6h165q10 0 17 -6h44q2 -1 3 -2t2 -3 h-56q5 -7 5 -16v-4h-87v-5h74v-15h41v-5h6v-4l3 4h-1q1 2 4 5h39q6 8 15 15h25l6 5h-65q7 5 14.5 10.5t16.5 9.5h10q2 2 4.5 3t5.5 2h45q15 7 32 11t36 5q58 2 94 -16h-45q2 -1 5 -2t5 -3h-10q15 -9 26 -20h106q8 6 15.5 11t15.5 9h-44l11 5h17q17 8 35 12t37 4q44 0 79 -16 h-17l11 -5h44q8 -4 14.5 -9t13.5 -11h-128q2 -1 3 -2t2 -3h159l13 -15h-161q1 -2 4 -5h102q3 -3 4 -5h5q3 -4 6 -9.5t6 -10.5h-12q2 -2 3 -5t2 -5h7q2 -4 2 -5h-1q2 -4 4 -9.5t3 -10.5h1q1 -4 2 -7.5t2 -7.5h-7l3 -15h9q1 -4 1 -7.5t1 -7.5h-3v-5h6l1 -10h2q1 -4 1 -7.5 v-7.5h-3v-10h-8v-20h23v-5h-15v-15h-2v-25h20v-20zM569 484q3 -4 6 -7.5t5 -7.5h57q4 4 8 7.5t8 7.5h-84zM546 464l3 -5h12l5 -11q2 3 4 5.5t4 5.5h-5l5 5h-28zM683 229h-14v5h19v20h-20v25h2v15h15v5h-23v3v9t-1 8h8l-3 10h3q-4 9 -12 15h-2q-8 7 -23 7q-14 0 -24 -7h-5 q-6 -5 -11 -15h9q-3 -4 -3 -10h-7q-1 -4 -1 -8v-9v-3h6v-5h-12v-15h7v-5h-2v-20h25v-20h-8v-5h45v-10h32v10z" />
<glyph unicode="n" horiz-adv-x="674" d="M630 74h149v-20h-85v-15h-14v-10h-62v-5h31q-2 -14 -12 -20h-22q-5 -4 -15 -4h-191q-9 0 -14 4h22q-10 6 -12 20h-32v5h62v10h14v15h85v20h-149v20h37v5h-33v10h1v10h-16v20h13v20h-41v20h10v20h46v20h-11v10h-4v5h-4v15h6v5h5v10h-1v10h-3v10h-42v10h11v2q0 4 -0.5 7 t-0.5 6h20q-1 5 -2 8.5t-2 6.5h18q-6 13 -17 20h-32q-11 7 -29 7t-28 -7h24q-5 -4 -9.5 -8.5t-6.5 -11.5h-30q-2 -4 -4 -15h5q-1 -4 -1 -13v-2h-7v-10h33v-10h2v-10h-3v-10h-7v-5h-7v-15h11v-5h7v-10h-4v-20h26v-20h-28v-20h5v-20h-11v-20h12v-10h-1v-5h3v-5h55v-5h23v-20 h-62v-20h2v-15h-38v-10h43v-5h11q-2 -14 -13 -20h-46q-5 -4 -14 -4h-190q-9 0 -14 4h46q-11 6 -13 20h-11v5h-43v10h38v15h-2v20h62v20h-23v5h-55v5h-3v5h1v10h-12v20h11v20h-5v20h28v20h-26v20h4v10h-7v5h-11v15h7v5h7v10h3v10h-2v10h-33v10h7v15h-5v15h30v20h-25v15h22v10 h6v15h-4v15h1v25h5v10h-1v15h13v5h-8v15h12v5h-40v10h29v15h54q2 6 4 10h-32q8 11 22 11h175q14 0 22 -11h17q22 10 47 15.5t52 5.5q50 0 90 -21h11q5 -2 9 -4.5t8 -5.5h-14q5 -3 10 -6.5t9 -8.5h78q6 -4 10 -10h-55l2 -2t2 -3h14q3 -4 6 -7.5t5 -7.5h9l3 -5h-13l9 -15h1 q2 -5 5 -10h-5q5 -11 8 -20q0 -1 2 -5h-1q2 -4 2.5 -7.5t1.5 -7.5h4q2 -4 2.5 -7.5t1.5 -7.5h-7q2 -6 2 -10h-21q1 -4 1 -7.5t1 -7.5h32q1 -4 1.5 -9.5t0.5 -10.5h-18v-15h-19v-15h-11v-10h42v-10h3v-10h1v-10h-5v-5h-6v-15h4v-5h4v-10h11v-20h-46v-20h-10v-20h41v-20h-13 v-20h16v-10h-1v-10h33v-5h-37v-20zM294 499h-11q0 -1 0.5 -2.5t0.5 -3.5v-1q2 2 5 4t5 3zM255 484v-10h83l12 10h-95zM283 469v-9q2 3 8 9h-8z" />
<glyph unicode="o" horiz-adv-x="642" d="M694 289q1 -5 1 -10v-10h-71v-10h-41v-10h39v-5h-45v-15h-25v-5h56q0 -3 -1 -5h-3v-5h9v-1q0 -4 -0.5 -9t-1.5 -10h-7l-3 -20h15q0 -4 -2 -10h-3q-1 -4 -2 -7.5t-2 -7.5h8q-1 -5 -3 -10l-4 -10h-15l-4 -10h2q-2 -4 -2 -5h-4q-4 -10 -11 -20h2q-1 -2 -3 -5t-4 -5h-1 l-12 -15l-2 -2l-3 -3h-5q-4 -4 -8 -7.5t-9 -7.5h-30l-21 -15h4l-4 -2t-4 -3h-7q-2 -1 -5 -2t-5 -3h54q-5 -3 -11 -5.5t-12 -4.5h-17q-7 -3 -15 -5.5t-16 -4.5h4q-12 -3 -25 -5.5t-27 -4.5h31q-16 -2 -33 -3t-35 -1q-19 0 -35.5 1t-33.5 3h-32q-13 2 -26.5 4.5t-25.5 5.5h-3 q-8 2 -15.5 4.5t-15.5 5.5h16q-5 2 -11 4.5t-11 5.5h-54l-9 5h7l-9 5h-4q-12 8 -21 15h30q-4 4 -8 7.5t-8 7.5h5q-1 2 -2 3t-3 2l-12 15h1l-7 10h-2q-7 10 -11 20h3q-2 4 -2 5h-3l-4 10h15q-1 5 -3 10l-4 10h-8q-1 4 -2 7.5t-2 7.5h-6l-3 10h-10l-3 20h10q-1 5 -1.5 10 t-0.5 9v1h-18v5h-5q0 2 -0.5 3t-0.5 2h56q0 3 -1 5h-56v15h24v5h12v10h21v10h-61v10t1 10h-13v10h99q1 3 1 8v7h-27q0 4 0.5 7.5t0.5 7.5h10l3 20h-33q1 4 2 7.5t2 7.5h-7q2 5 3.5 10.5t3.5 9.5h1q1 2 2 5t2 5h-1q0 1 2 5h5q4 10 11 20h-20l6 10h37q1 2 4 5h-73q2 4 5.5 7.5 t6.5 7.5h23l10.5 10.5t10.5 9.5h46q9 8 21 15h19q4 3 8.5 5.5t8.5 4.5h-59q9 5 22 10h27q23 9 48 15h-30q49 11 104 11t104 -11h31q25 -6 47 -15h-28q13 -5 22 -10h59q5 -2 9.5 -4.5t8.5 -5.5h-19l21 -15h-46q6 -4 11.5 -9.5l10.5 -10.5h-23q3 -4 6.5 -7.5t5.5 -7.5h74l3 -5 h-36l6 -10h20q7 -10 11 -20h-5q2 -4 2 -5h2l4 -10h-1q2 -4 4 -9.5t3 -10.5h10l3 -15h-6q2 -4 2.5 -9.5t1.5 -10.5h8q1 -4 1 -7.5t1 -7.5h-39v-7q0 -5 1 -8h-20v-10h129zM310 329q-1 -4 -1.5 -7.5t-0.5 -7.5h28q-1 -3 -1 -6v-6v-3h4v3q0 3 -0.5 6t-0.5 6h39q0 4 -0.5 7.5 t-0.5 7.5h-8q-1 6 -2.5 11t-3.5 9h7q-4 9 -12 15h-10q-10 6 -26 6t-25 -6h7q-4 -3 -7 -6.5t-5 -8.5h33q-1 -4 -2.5 -9t-2.5 -11h-9zM378 269h71v20h-129q-1 4 -1 10h-83q0 -6 -1 -10h13v-20h61v-10h-22v-10h-12v-5h-24q0 -4 0.5 -7.5t0.5 -7.5h79v15h45v5h-39v10h41v10z M362 219v5h-109v-5h5v-1q0 -1 0.5 -2t0.5 -2h17q1 -5 1 -10t1 -10h-10q2 -13 4 -20h11q2 -6 4 -10h7q9 -14 34 -14t34 14h4q1 2 2 4.5t2 5.5h-15q1 5 2 9.5t2 10.5h7q1 5 1 10t1 10h-9v5h3z" />
<glyph unicode="p" horiz-adv-x="661" d="M692 314v-5h-111q1 -2 1 -5v-5h-53v-15h56v-15h46v-15h-22v-5h65v-20h-45v-9q0 -7 -1 -11h13q0 -5 -0.5 -10t-1.5 -10h-43v-5h33l-1 -10h-37l-3 -15h33q-1 -4 -1.5 -7.5t-2.5 -7.5h13l-6 -20h-19q-1 -2 -1.5 -5t-2.5 -5h8q-2 -4 -3.5 -7.5t-3.5 -7.5h-1q-4 -10 -11 -20 h-14q-4 -5 -7 -10t-8 -10h10q-1 -2 -4 -5l-5 -5h5l-2 -2l-3 -3h1q-12 -12 -24 -20h-2q-11 -8 -26 -15h-8q-41 -19 -94 -19q-50 0 -87 19h8q-11 5 -22 15h1q-11 10 -19 20v-20h-4v-15h6v-20h-27v-20h15v-15h28v-10h-19v-5h-85v-20h24v-5h79v-20h-43v-15h9v-20h11v-20h-4v-5h4 q-2 -14 -13 -20h-19q-5 -4 -14 -4h-185q-10 0 -15 4h20q-11 6 -13 20h-4v5h4v20h-11v20h-9v15h43v20h-79v5h-24v20h85v5h19v10h-28v15h-15v20h27v20h-6v15h4v20h6v5h-17v5h1v5h-11v20h15v35h-7v10h19v20h-13v15h-32v15h49v10h-28v5h14v20h-24v20h46v20h45v5h-46v15h-44v15 h-54v15h129v10h-148v5h71v10h35v10h-4v20h-8v10h-22v20h16v20h58v15h-92v10h114v20h26v5h-48v10h7v15h-33v5h129v5h-89v4q0 7 3 11h-47q7 16 25 16h170q17 0 24 -16h43q11 7 23.5 12t26.5 8h-18q24 6 53 6q30 0 57 -6h18q28 -6 53 -20h58q11 -5 22 -15h-5l6 -5h51l6 -5h-105 l14 -15h39l7 -10h48l2 -2t2 -3h-26q7 -8 12 -20h-114q2 -2 3 -5t2 -5h91q2 -4 4 -7.5t3 -7.5h-58l6 -20h-16q2 -4 3 -9.5t2 -10.5h22q2 -6 2 -10h8l3 -20h-19l1 -10h-122q1 -2 1 -5v-5h197zM333 504q2 -3 2 -11v-4h31q9 8 21 15h-54zM295 484v-5h106q1 2 2.5 3t2.5 2h-111z M342 351q-28 0 -39 -17h3q-1 -2 -2 -4.5t-3 -5.5h65q-1 4 -5 10h19q-11 17 -38 17zM446 309l-2 5h-251q0 -1 -0.5 -2t-0.5 -3h254zM341 269v7.5t-1 7.5h-56v9q0 2 -0.5 3.5t-0.5 2.5h-73q-1 -2 -1 -6v-9h54q-1 -4 -1 -7.5v-7.5h44v-15h45v-5h-45q0 -4 0.5 -9.5t0.5 -10.5 h-46q0 -6 1 -10q0 -7 1 -10h24q3 -12 7 -20h-14l3 -5h29q6 -7 12 -10h-49q12 -5 26 -5q13 0 25 5h36q6 3 12 10h-33l3 5h43q4 8 7 20h-13l3 18v2h45v10t1 10h-65v5h22v15h-46z" />
<glyph unicode="q" horiz-adv-x="661" d="M650 414h-31v-10h36v-5h-50v-10h38v-10h-30v-15h6v-5h-5v-15h8v-10h-33v-15h17v-15h9v-10h2v-15h17v-5h-19v-20h13v-10h-17v-10h-3v-20h25v-20h-19v-10h2v-30h2v-10h-3v-15h1v-20h-1v-20h-16v-10h-2v-20h-24v-15h41v-15h-50v-10h-25v-10h109v-15h-35v-5h-12v-20h38v-10 h-16v-20h-7v-20h10v-5h-10v-20h-1v-5h-8v-5h24v-20h-47v-15h37v-10h-13v-2q0 -9 -7 -18h3q-2 -4 -6 -5h6q-5 -4 -14 -4h-185q-9 0 -14 4h-6q-2 1 -6 5h-3q-7 7 -7 18v2h13v10h-37v15h47v20h-24v5h8v5h1v20h10v5h-10v20h7v20h16v10h-38v20h12v5h35v15h-109v10h-30 q-7 -5 -16 -10h33q-19 -10 -43 -15h55q-10 -2 -21 -3t-22 -1q-12 0 -23.5 1t-22.5 3h-55q-27 5 -49 15h-33l-9 4.5t-10 5.5h70q-4 2 -7.5 4.5t-7.5 5.5h14q-4 4 -8.5 7.5t-8.5 7.5h-51l-13 15h24q-8 10 -14 20h1l-6 10h17q-3 5 -5.5 10t-4.5 10h1l-4 10l-4 10h-1 q-1 4 -2 7.5t-2 7.5h3l-3 10h-2l-3 15q-1 4 -1 7.5t-1 7.5h8l-1 10h48l-2 20h-49v6q-1 4 -1 7.5v6.5v10h9v10h-22v20h8v5h-7v15h6v10h-15q1 4 1 7.5t1 7.5h11q1 4 1 7.5t1 7.5h-9q1 2 1 5t1 5h9l3 15h4q1 2 1 5h-6q2 4 2.5 7.5t1.5 7.5h30l3 10h-38l3 10h50l2 5h-36q1 2 2 5 t2 5h31q2 4 4 7.5t3 7.5h9q2 2 3 5t2 5h-40l3 5h6q4 5 7.5 10.5t7.5 9.5h-9l9 10q11 11 23 20h-4q17 12 37 20h-20l14 5h-17q18 5 37 8t40 3q38 0 69 -11h17l6 -2t6 -3h20q21 -9 35 -20h4q6 -4 11.5 -9.5l10.5 -10.5q4 -4 8 -10h1v10h-3v20q0 12 10 20h1q6 4 10 5h-30 q2 1 7 1h170q5 0 8 -1h30q6 -2 9 -5h-1q10 -8 10 -21v-19h3v-10h9v-20h-7v-5h41v-10h-9v-15zM372 334q-4 6 -10 10h-8q-10 7 -29 7t-29 -7h-9q-6 -4 -10 -10h9q-4 -5 -7 -15h-12l-3 -15h14v-5t-1 -5h-6v-1v-6.5t-1 -7.5h7v-5h-8v-20h22v-5t1 -5h-9v-10q0 -5 1 -7 q0 -4 0.5 -7t0.5 -6h50q1 -6 2.5 -10.5t2.5 -9.5h-47q1 -4 5 -10h-8q11 -15 37 -15t38 15h-2q5 5 6 10h20q2 5 3 9.5t2 10.5h-26q1 2 1 5v7.5t1 7.5h3q0 3 0.5 5.5t0.5 4.5h16v10h-13v20h19v5h-17v6.5t-1 7.5v1h-2v5t-1 5h-9q0 8 -3 15h-17q-1 5 -2.5 8.5t-3.5 6.5h32z M366 29h9v10z" />
<glyph unicode="r" horiz-adv-x="518" d="M494 444h38v-20h-2v-20h-35v-15h9v-20h-8v-20h-18v-5h-63v-7q0 -2 -0.5 -4t-1.5 -4h23q-5 -19 -26 -19h-129h-7.5t-6.5 -1h40q-5 -1 -9 -2t-9 -3h33q-3 -1 -9 -5h19l-6 -5h5q-6 -6 -9 -15h-30q-2 -4 -2 -5h-10q0 -1 -0.5 -2t-0.5 -3h12q-1 -2 -1 -4.5t-1 -5.5h6v-15h-14 v-10h14v-15h15v-20h-22v-5h-16v-5h60v-15h-30v-10h10v-10h-23v-20h-13v-5h-13v-15h34v-15h-18v-15h18v-5h-2v-10h-22v-10h16v-20h4v-15h-4q-2 -14 -13 -20h-9q-5 -4 -14 -4h-190q-9 0 -14 4h9q-11 6 -13 20h4v15h-4v20h-16v10h22v10h2v5h-18v15h18v15h-34v15h13v5h13v20h23 v10h-10v10h30v15h-60v5h16v5h22v20h-15v15h-14v10h14v15h-6v10h-12v5h10v5h30v15h-5v5h-18v5h-33v5h-40v20h-22v15h63v5h18v20h8v20h-9v15h35v20h2v20h-38v15h32v20h-31v5h10v9q0 5 2 11h-1q7 16 25 16h175q17 0 24 -16h2q2 -6 2 -11v-9h-10v-5h31v-3l4 3h2q2 2 4 3t3 2h2 q20 13 39 20h2q20 8 40 12t42 4h48q18 0 25 -16h-2q2 -6 2 -11v-9h-1v-5h-2v-20h-9v-15z" />
<glyph unicode="s" horiz-adv-x="590" d="M620 89h-41q-6 -10 -14 -20h18q-1 -2 -4 -5h-44l-7.5 -7.5t-8.5 -7.5h-1q-5 -4 -10.5 -7.5t-11.5 -7.5h-18q-9 -6 -20 -10.5t-22 -9.5h-4q-3 -1 -6.5 -2t-8.5 -3h114q-4 -1 -8.5 -2t-9.5 -3h-50q-13 -3 -27 -5.5t-29 -4.5h-30q-16 -2 -34 -3t-38 -1q-19 0 -35.5 1 t-31.5 3h29q-14 2 -27 4.5t-25 5.5h50l-17 5h-114q-3 2 -6.5 3t-7.5 2h3q-11 5 -21.5 10t-20.5 10h18q-6 4 -11.5 7.5t-10.5 7.5h2q-5 4 -9 7.5t-8 7.5h43q-1 2 -2 3l-2 2h-19l-8 10l-8 10h42q-4 5 -6 10.5t-4 9.5h-19q-2 4 -2 5h-31l-3 10h-23q-1 3 -1 9q0 8 1 11h7 q5 12 16 15h-2q2 1 7 1h178q1 0 2.5 -0.5t2.5 -0.5h2q8 -2 14.5 -6t13.5 -9h-6q8 -5 17 -9.5t21 -4.5q8 0 15 3.5t8 10.5h3v1q0 9 -4 14q-4 6 -13 10h-12q-10 5 -26.5 10t-45.5 10h9l-16 3q-8 2 -16 3.5t-16 3.5h4l-17 5h2q-13 4 -25 9t-23 11h4l-24 15h-2q-7 5 -12.5 10 t-10.5 10h-21q-1 2 -2 3l-2 2h9q-3 3 -4 5h-28l-11 15h43l-6 10h-14q-5 11 -8 20h6q0 2 -0.5 3t-0.5 2h47q0 4 -2 10h-88q0 4 -0.5 7.5t-1.5 7.5h1l-1 10h67q-1 2 -1 5q0 4 0.5 7.5t0.5 7.5h-47l1 10h45l3 10h-20q1 2 2 5t2 5h-8q2 4 4 7.5t3 7.5h4l6 10h-1q2 4 5 7.5t6 7.5 t6 7.5t7 7.5h-2l5 5h-1q1 2 2.5 3t2.5 2h2l12 10q2 2 3.5 3t3.5 2h-19q17 11 37 20h31q3 2 6 3t7 2h-68q4 2 7.5 3t7.5 2h43q25 8 53.5 12t60.5 4q33 0 62 -4t54 -12h-43q4 -1 7.5 -2t7.5 -3h67l14 -5h-31q11 -4 21 -9.5t19 -10.5h19l8 -5h1q4 -2 7.5 -5t6.5 -5h-1l6 -5h1 l6 -5h2q9 -7 15 -15q8 -7 12 -15h1l6 -10h-5q2 -4 4 -7.5t3 -7.5h7l3 -10h19l1 -7v-3h17q0 -4 -2 -10q-7 -14 -20 -14h-168q-10 0 -18.5 4.5t-16.5 9.5q-7 5 -16 10h-17q-10 6 -22 6q-10 0 -16 -6h-44q-5 -5 -5 -10h47q0 -5 2 -10t9 -10h-66q5 -2 11 -5t15 -5h-1 q12 -4 30.5 -7t43.5 -7q2 0 3.5 -0.5t2.5 -0.5h88q12 -2 23.5 -4.5t21.5 -5.5h-47q4 -1 7.5 -2t7.5 -3h-6q13 -4 23.5 -9t20.5 -11h15l16 -10h-43q5 -4 10 -7.5t9 -7.5h28l5 -5h-9l5 -5h20q11 -11 16 -20h2q3 -4 5 -7.5t4 -7.5h-4q2 -5 4.5 -10t3.5 -10h-3l2 -5h-4 q1 -2 1 -5t1 -5h-9q3 -10 3 -20h13v-7q0 -4 -0.5 -8.5t-0.5 -9.5h-3q-1 -5 -1.5 -10t-2.5 -10h23q0 -5 -3 -10h32q-2 -4 -2 -5h19q-2 -5 -4.5 -10t-5.5 -10z" />
<glyph unicode="t" horiz-adv-x="532" d="M520 114h-24v-10h36v-10h33v-15h-23v-15h67v-15h-109v-20h8v-2q0 -2 -1 -3q-2 -10 -7 -15h-8q-4 -4 -6 -5h34q-5 -4 -14 -4h-113q-17 0 -33.5 1t-31.5 3h-34q-7 1 -14 2.5t-15 2.5h8q-13 3 -24.5 7t-22.5 8h1q-3 2 -6 3t-5 2h-8q-8 5 -16 9.5t-16 10.5h110q-4 4 -8.5 7.5 t-8.5 7.5h-67l-13 15h24q-3 4 -5.5 7.5t-4.5 7.5h-33l-6 10h-36q-1 2 -2 5t-3 5h25l-6 15h20l-3 10q-2 6 -2 10h79q-1 4 -1.5 7.5t-0.5 7.5h-114q0 2 -0.5 3t-0.5 2h-3q0 4 -0.5 7.5t-0.5 7.5h-3q0 4 -0.5 7.5t-0.5 7.5h14v5h-9v10h-8v20h12v20h-12v15h9v10h1v15h5v35h2v15 h5v1h-79q-15 0 -24 14h15q-3 6 -3 13v7h-32v15h7v20h-5v10h2v10h15v5h-25v15h30v15h-6v10h-7v15h-6v5h-3q3 15 19 20h6q3 1 8 1h79v4h4v15h-8v10h-1v15h-4v5h-24v10h-23v5h8v5h23v20h9v10h-32v10h49v15h-5v5h-11v10h10v5h-10v15h9v4q0 5 2 11h13q7 16 25 16h175q16 0 25 -16 h-13q2 -6 2 -11v-4h-9v-15h10v-5h-10v-10h11v-5h5v-15h-49v-10h32v-10h-9v-20h-23v-5h-8v-5h23v-10h24v-5h4v-15h1v-10h8v-15h-4v-4h126q5 0 7 -1h-6q14 -5 19 -20h3q0 -1 0.5 -2t0.5 -3h6v-15h7v-10h6v-15h-30v-15h25v-5h-15v-10h-2v-10h5v-20h-7v-15h32v-7q0 -4 -1 -7 t-3 -6h-14q-9 -14 -24 -14h-126v-1h-5v-15h-2v-35h-5v-15h-1v-10h-9v-15h12v-20h-12q0 -5 0.5 -10t1.5 -10h9q2 -6 4 -10h8l3 -5h-14q11 -14 34 -14h91q5 0 7 -1h3q12 -3 17 -15h3q0 -1 0.5 -2t0.5 -3h114q0 -1 0.5 -2.5t0.5 -3.5v-9h-80v-20h-20v-15z" />
<glyph unicode="u" horiz-adv-x="674" d="M632 414h-17v-15h4v-15h22v-10h-12v-20h-3v-5h4v-20h-16v-10h-32v-10h24v-15h16v-10h5v-20h3v-30h-1v-15h-2v-20h31v-15h-48v-25h21v-5h8v-5h-25v-15h-7v-20h24v-20h-7v-15h7v-10h-2v-20h-1v-20h2v-5h-1q-2 -10 -7 -15h17q-6 -9 -20 -9h-175q-12 0 -20 9h-17q-5 5 -7 15 h1v5h-2v20h1v11q-3 -6 -8 -11h2q-10 -12 -21 -20h-2q-1 -1 -3 -2t-4 -3h-2q-13 -9 -27 -15h17q-24 -11 -52 -15h-13q-12 -2 -24.5 -3t-26.5 -1q-10 0 -20 1t-21 3h13q-24 5 -45 15h-17q-15 7 -26 15h3q-1 2 -3 3l-4 2h2q-5 5 -10.5 10t-10.5 10h-2l-8 10l-8 10h2q-1 2 -3 5 t-4 5h-7q-1 4 -3.5 7.5t-4.5 7.5h8q-5 11 -8 20h-24q-1 5 -3 10t-3 10h6l-3 15h25q-1 2 -1 5h-9q0 3 -1 5h-20q-1 2 -1 5t-1 5h53q-1 4 -1 7.5t-1 7.5h-12q-1 4 -1 7.5v7.5h-17v20h-6v15h-3v10h2v40h-4v10h-9v15h11v10h7v10h1v20h-4v5h3v20h19v10h-18v15h-6v15h-3v20h25v10 h18v10h-10v10h-22v5h-6v10h-1v14q0 2 0.5 3.5t0.5 2.5h-1q4 21 26 21h191q23 0 26 -21h2v-20h1v-10h6v-5h22v-10h10v-10h-18v-10h-25v-20h3v-15h6v-15h18v-10h-19v-20h-3v-5h4v-20h-1v-10h-7v-10h-11v-15h9v-10h4v-40h-2v-10h3v-10q0 -3 1 -5h5q0 -11 3 -20h17q3 -8 8 -15 h13q5 -6 12 -9q7 3 11 9h48q5 7 8 15h-30q3 9 3 20h2v15h1v30h-3v20h-5v10h-16v15h-24v10h32v10h16v20h-4v5h3v20h12v10h-22v15h-4v15h17v20h21v10h26v10h-33v10h-17v5h-4v10h4v14q0 4 1 6h-7q5 21 27 21h190q21 0 26 -21h6q1 -2 1 -6v-14h-4v-10h4v-5h17v-10h33v-10h-26 v-10h-21v-20z" />
<glyph unicode="v" horiz-adv-x="630" d="M518 304h173l-4 -10h-53l-2 -5h-110l-6 -15h25l-2 -5h-10l-4 -10h-8l-2 -5h27l-5 -10h-80l-6 -15h6l-2 -5h-71l-8 -20h156l-8 -20h-168l-8 -20h40l-2 -5h104l-4 -10h-11l-6 -15h-85l-2 -5h72l-6 -15h22l-4 -10h-12l-8 -20h8l-10 -25h-1l-2 -5h-2l-4 -10h1l-4 -10h7l-3 -5 h-25l-1 -4q-1 0 -1 -0.5v-0.5h2l-6 -10h15q-4 -6 -10 -10h-8q-3 -1 -7 -2.5t-9 -1.5h-160q-5 0 -9 1.5t-8 2.5h8q-6 4 -11 10h-14q-2 2 -3 5t-3 5h-2v1l-2 4h25l-2 5h-7l-4 10h-1l-4 10h2l-4 10h1l-4 10h-1l-4 10h-8l-8 20h11l-4 10h-22l-6 15h-72l-2 5h84l-6 15h12l-5 10 h-104l-2 5h-40l-9 20h169l-9 20h-157l-8 20h71l-2 5h-6l-6 15h80l-4 10h-26l-2 5h7l-4 10h4l-2 5h-52l-6 15h26l-2 5h-61l-4 10h86l-6 15h-7l-4 10h5l-4 10h-45l-2 5h62l-2 5h-22l-2 5h-2l-8 20h24l-6 15h-45l-4 10h26l-4 10h-2l-8 20h-3l-2 5h-3l-2 5h7l-2 5h5l-6 15h-2 l-2 5h-11l-8 20h20l-2 5q-1 2 -1 5h4v2q0 11 9 18h-28q6 6 15 6h169q14 0 21 -6h27q5 -4 8.5 -8.5t4.5 -9.5l1 -2h-5l4 -10h-20l7 -20h11l1 -5h2l5 -15h-5l2 -5h-7l2 -5h3l1 -5h3l7 -20h2l3 -10h-26l3 -10h45l5 -15h-24l7 -20h2l2 -5h22l2 -5h-62l1 -5h45l4 -10h-6l4 -10h6 l5 -13l4 13h29l3 10h3l3 10h-20l1 5h29l2 5h-13l1 5h-20l7 20h57l5 15h-18l4 10h-20l3 10h50l7 20h-89l2 5h30l2 5h-16l2 5h34l5 15h-9l2 5h-9l7 20h20l3 10h6v2q2 5 5 9.5t8 8.5h-15q8 6 20 6h169q9 0 16 -6h15q8 -6 8 -18v-2h-5q0 -1 -0.5 -2t-0.5 -3l-2 -5h-20l-8 -20h9 l-2 -5h8l-6 -15h-34l-2 -5h16l-2 -5h-31l-2 -5h89l-8 -20h-50l-4 -10h20l-4 -10h18l-7 -15h-56l-9 -20h20l-2 -5h14l-2 -5h-30l-2 -5h21l-4 -10h-3l-4 -10h-28zM420 294h53l4 10h-259l4 -10h60l2 -5h-26l5 -15h40l6 15h110zM327 269l2 5h-14l2 -5h-4l2 -6l2 6h10z" />
<glyph unicode="w" horiz-adv-x="869" d="M891 494h-43q0 -1 -0.5 -2t-0.5 -3h14v-1l-1 -4h-6l-7 -20h6l-2 -5h-24l-7 -20h5l-1 -5h-18l-2 -5h24l-3 -10h-18l-6 -20h29l-6 -20h-6l-5 -15h-1l-3 -10h-23l-1 -5h64l-1 -5h19l-6 -20h-61l-2 -5h9l-3 -10h-9l-6 -20h-23l-3 -10l-2 -5h-67l-5 -15h-11l-7 -20h-10l-6 -20 h129l-6 -20h-95l-3 -10h91l-6 -20h-6l-4 -15h-10l-6 -20h2l-3 -10h3l-4 -10h-10l-3 -10h35l-6 -20h-39l-5 -15h-12l-5 -15h7l-4 -15h25l-2 -5h-13l-3 -9q-1 -1 -1 -2.5t-1 -3.5h41q-3 -6 -7 -10h-28q-4 -4 -7 -5h-19q-8 -4 -17 -4h-134q-4 0 -8.5 1.5t-8.5 2.5h20q-3 1 -7 5 h28q-4 4 -7 10h-41l-3 6l-3 9h13l-1 5h-26l-5 15h-7l-5 15h11l-5 15h40l-7 20h-36l-3 10h10l-3 10h-3l-4 10h-2l-7 20h10l-6 15h6l-7 20h-51l-7 -20h10l-5 -15h2l-7 -20h-2l-4 -10h-1l-3 -10h26l-4 -10h14l-7 -20h-49l-5 -15h37l-5 -15h-32l-5 -15h17l-2 -5h-5l-3 -9 q-1 -1 -1 -2.5t-1 -3.5h48q-3 -6 -7 -10h-56q-3 -3 -7 -5h-26q-8 -4 -17 -4h-134q-4 0 -8.5 1.5t-8.5 2.5h26q-4 2 -7 5h57q-2 2 -4 4.5t-3 5.5h-48l-3 6l-3 9h5l-2 5h-17l-5 15h32l-4 15h-38l-5 15h50l-7 20h-14l-3 10h-26l-3 10h1l-3 10h2l-7 20h-2l-5 15h-10l-6 20h34 l-3 10h-7l-6 20h-129l-7 20h10l-6 20h12l-5 15h67l-1 5l-3 10h26l-7 20h-3l-3 10h-7l-1 5h56l-7 20h-82l-1 5h138l-2 5h-107l-3 10h-11l-4 15h5l-6 20h-2l-6 20h-11l-3 10h1l-2 5h5l-2 5h34l-6 20h-35l-1 5h19l-7 20h-4l-1 4v1h-1v5h55v2q0 5 1 8h-56q7 16 23 16h154 q11 0 18.5 -5t11.5 -11h56q3 -4 4 -8v-2h-55l4 -10h4l6 -20h-19l1 -5h34l6 -20h-33l1 -5h-5l2 -5h-1l3 -10h11l5 -20h3l5 -20h-6l5 -15h10l3 -10h59l3 10h-14l5 15h-4l6 20h2l6 20h-16l3 10h-16l1 5h53l2 5h-15l7 20h-7l2 5l7 20h21l1 5h-20l2 5h1v2q1 4 4 8h1q5 6 12.5 11 t18.5 5h93q11 0 18.5 -5t11.5 -11h-1l3 -8l1 -2h-1l2 -5h20l1 -5h-21l6 -20l2 -5h6l6 -20h14l2 -5h-53l2 -5h16l3 -10h16l6 -20h-2l7 -20h4l5 -15h13l3 -10h24l3 10l5 15h6l6 20h-29l5 20h18l3 10h-24l2 5h18l1 5h-5l6 20h25l1 5h-5l5 20h7l1 5h-14l1 5h43l1 2q0 2 1 4l2 4 h-43q4 6 11.5 11t18.5 5h154q18 0 23 -16h43q1 -2 1.5 -4t0.5 -4v-2zM238 349l1 -5h37l2 5h-40zM657 344h-19l1 5h-108l1 -5h49l7 -20h63zM280 319l3 -10h3l4 -13l4 13h6l4 10h17l1 5h-51l2 -5h7zM595 309l3 10h-23l3 -10h-6l7 -20h1l6 20h9zM323 227l-3 -8h6zM462 199 l-7 20h-6l-7 -20h20z" />
<glyph unicode="x" horiz-adv-x="630" d="M634 44l5 -7q4 -5 4 -13q0 -13 -11 -20h-15q-5 -4 -14 -4h-192q-5 0 -9 1.5t-7 2.5h15q-5 3 -8 6.5t-5 6.5l-5 7l-14 20h-3l-10 15h19l-7 10h-32l-11 15h-25l-11 -15h-18l-7 -10h-20l-11 -15h39l-14 -20l-5 -7q-2 -3 -5.5 -6.5t-8.5 -6.5h-25q-8 -4 -17 -4h-187 q-8 0 -13 4h26q-11 6 -11 20q0 2 1 6t3 7l5 7h-39l10 15h21l7 10h18l10 15h-27l4 5l7 10h87l14 20h-54l4 5h30l10 15h-4l7 10h-8l14 20h-36l10 15h5l11 15h-8l3 5h-2l4 5h-2l14 20h23l10 15h-4l7 10h-22l7 10h5l2 4l-4 6l-11 15h3l-10 15h4l-10 15h-2l-13 20h-25l-4 5h29 l-10 15h-6l-13 20h29l-7 10h10l-14 20h-21l-13 20h-64l-3 5h24l-10 15h-58l-7 10h-25l-6 10h24l-6 10h78l-2 4q-4 6 -4 13v3h-6q2 6 4 10h2q1 2 4 5h-23q6 6 16 6h183q7 0 11.5 -2t8.5 -4h23l6 -5h-2q4 -4 6 -8l2 -2h5l13 -20h-79l7 -10h-25l7 -10h24l7 -10h58l10 -15h95 l10 15h-85l6 10h20l7 10h66l7 10h-46l13 20h-20l2 2q2 4 6 8h14l6 5h35q4 2 8.5 4t11.5 2h175q10 0 16 -6h-35q2 -1 3 -2t2 -3h-15q3 -4 3 -10h20v-2q0 -5 -1 -8.5t-3 -5.5l-3 -4h46l-7 -10h-66l-7 -10h-20l-7 -10h85l-10 -15h-153l-4 -5h126l-13 -20h21l-14 -20h-10l-6 -10 h-29l-14 -20h6l-10 -15h-29l-4 -5h26l-14 -20h1l-10 -15h-4l-10 -15h-3l-10 -15h1l-4 -5l4 -5h-4l7 -10h22l7 -10h4l10 -15h-22l14 -20h2l3 -5h2l4 -5h8l11 -15h-5l10 -15h37l14 -20h8l7 -10h4l11 -15h-30l3 -5h55l14 -20h-34l7 -10h-80l3 -5h38l10 -15h33l7 -10h-19l10 -15 h4zM348 429h-23l12 -17zM380 99h21l-10 15zM294 89h80l-7 10h-74l-7 -10h-1l-3 -5h15z" />
<glyph unicode="y" horiz-adv-x="636" d="M651 479h-81l-2 -5h84l-9 -20h-39l-8 -20h21l-8 -20h-33l-4 -10h25l-4 -10h-6l-2 -5h-1l-7 -15h10l-6 -15h-71l-5 -10h55l-2 -5h-90l-4 -10h-8l-9 -20h132l-2 -5h-23l-5 -10h7l-2 -5h-6l-9 -20l-6 -15h-12l-7 -15h8l-7 -15h3l-2 -5h-1l-4 -10h5l-4 -10h-5l-4 -10h-1 l-6 -15h6l-2 -5h-6l-7 -15h-37l-9 -20h24l-4 -10h29l-8 -20h-33l-4 -10h16l-8 -20h-5l-9 -20h7l-4 -10h-2l-5 -10h-2l-7 -15h3l-7 -15h-8l-7 -15h-14l-5 -10h73l-8 -20h-74l-9 -20h41l-9 -20h41l-9 -20h2l-8 -20h-126l-5 -10h29l-4 -10h44l-5 -10h-100l-5 -10h52l-4 -10 q-5 -13 -17 -20h-42q-8 -4 -17 -4h-164q-9 0 -13 4h41q-9 7 -9 17v3q0 4 1 7l1 3h-52l5 10h100l4 10h-44l4 10h-28l4 10h126l9 20h-2l8 20h-41l8 20h-40l8 20h74l8 20h-73l4 10h15l6 15h9l6 15h-2l4 9l-3 6h2l-4 10h3l-5 10h-7l-8 20h5l-9 20h-16l-5 10h33l-8 20h-30l-4 10 h-24l-8 20h37l-6 15h6l-2 5h-7l-6 15h1l-4 10h4l-4 10h-6l-4 10h1l-2 5h-3l-6 15h-7l-7 15h12l-6 15h-14l-8 20h11l-3 5h16l-5 10h-25l-3 5h-1l-9 20h-125l-5 10h75l-2 5h4l-5 10h50l-7 15h9l-6 15h2l-2 5h-1l-4 10h-3l-5 10h10l-8 20h-27l-9 20h21l-8 20h-54l-2 5h79l-4 10 q-1 3 -1 7q0 2 1 3h14q5 21 24 21h169q14 0 21 -6.5t10 -14.5h-14q0 -1 0.5 -1.5t0.5 -1.5l3 -7l3 -10h-80l2 -5h54l8 -20h-21l7 -20h27l7 -20h-10l4 -10h3l6 -15h-2l5 -15h-8l5 -15h-49l3 -10h-4l2 -5h-74l3 -10h88l4 10h90l2 5h-55l4 10h70l6 15h-10l6 15h1l2 5h6l3 10 h-25l4 10h32l8 20h-22l8 20h39l7 20h-84l2 5h81l4 10l2 7q1 1 1 3h-33q5 8 12.5 14.5t20.5 6.5h167q9 0 16 -6.5t7 -14.5h33q0 -6 -1 -10zM362 309l1 5h-69l2 -5h25l4 -10h-15l2 -5h-11l7 -20h14l2 -6l2 6l7 20h7l2 5h-7l3 10h24z" />
<glyph unicode="z" horiz-adv-x="590" d="M603 149h57v-20h-53v-20h-18v-5h2v-5h-31v-15h12v-20h8v-5h-127v-10h6v-20h130v-2q0 -9 -7 -18h27q-4 -4 -6 -5h-30q-5 -4 -14 -4h-470q-10 0 -15 4h30q-2 1 -6 5h-26q-7 9 -7 18v2h-130v20h-6v10h127v5h-8v20h-12v15h31v5h-2v5h18v20h53v13q0 5 1 7h-58l3 10h-29l3 5 h-74q1 2 4 5h67q4 6 7 8l8 7h-75l18 15h195l11 10h-67l5 5h16l17 15h-90l11 10h-8l6 5h12l6 5h11l18 15h6l23 20h-7l23 20h2l24 20h-2l12 10h-2l17 14h-181q-11 0 -17 6h-8q-3 2 -5 5h19q-2 4 -4 10h-6q-1 2 -1 5h-18v20h-14v5h4v5h13v5h23v10h-12v10h4v30h4v15h-5v5h-2v5 h39v9q0 5 2 11h-52q7 16 25 16h442q16 0 25 -16h51q3 -4 3 -11v-9h-39v-5h2v-5h5v-15h-4v-30h-4v-10h12v-10h-23v-5h-13v-5h-4v-5h14v-20h18v-5h6v-2q0 -5 -1 -8h-19q0 -1 -2 -5h8q-2 -7 -11 -16l-5 -4h1l-11 -10h2l-23 -20h-2l-23 -20h7l-23 -20h-6l-17 -15h-12l-5 -5h-12 l-6 -5h8l-11 -10h90l-17 -15h-16l-5 -5h67l-11 -10h-195l-17 -15h75l-14 -12h198q8 0 12 -3h-67q3 -1 7 -5h74l3 -5h29q2 -4 4 -10z" />
<glyph unicode="{" horiz-adv-x="474" d="M439 776q9 0 16 -7h-93q17 3 35 5t35 2h7zM574 -76h-186v-15h67v-20h93v-5h-5v-15h-132v-5q0 -3 -1 -5h70q-3 -10 -12 -15h-14q-6 -2 -9 -2h-5q-9 0 -18 0.5t-19 1.5h14q-19 2 -39 5.5t-39 9.5h-70q-7 2 -14.5 4.5t-15.5 5.5h133q-17 6 -34 15h5l-9 5h-94q-16 8 -32 20 h-67q-5 4 -9.5 7.5t-9.5 7.5h186q-1 2 -2 3t-3 2h-135l-10 10h-41l-9 10h97l-8 10l-8 10h-55l-3 5h9l-6 10l-6 10h2q-3 5 -5.5 10t-4.5 10h8q-1 2 -2 5t-2 5t-2 5t-2 5h-14q0 2 -0.5 3t-0.5 2h3l-3 10h16l-2 10l-2 10h-22l-3 20h2q-1 2 -1 5v5h22q0 4 -0.5 7.5t-0.5 7.5h-7 v20h-19q0 5 -0.5 10t-1.5 10h30l-3 15h-18q-1 5 -2.5 10.5t-3.5 9.5h-66q-1 2 -2 5t-3 5h59q-2 4 -4.5 7.5t-5.5 7.5h-84q-5 7 -12.5 11.5t-15.5 8.5l-17 7q-12 6 -19 13h11q-3 3 -4 5h121q-5 9 -6 20h-75v5h-47v15h40v10h-2v5h48v5h-12v10h1v6q0 6 1 9h36q2 13 9 20h17 q2 3 5.5 5.5t7.5 4.5h-21l6 3l17 7q4 1 10 5h8q11 6 18 15h-85q4 4 7 10h50l6 10h8q2 2 2.5 5t1.5 5h-52l3 10h134q0 3 1 5h-115q2 5 2.5 10t1.5 10h106v5h-119v5h83v10h-50v5h27v5h-52l2 20h26q0 5 0.5 10t1.5 10h6q1 2 1 5t1 5h-5l3 15q0 4 2 10h-2q2 5 3.5 10.5t3.5 9.5 h2q1 2 2 5t2 5h7q2 2 3 5t2 5h-12l2 5h13l9 15h-5q3 5 6.5 10.5t6.5 9.5h-60q1 2 4 5h22q3 4 6 7.5t7 7.5h-41q2 2 4.5 5t5.5 5h15q11 11 23 20h86q7 5 14.5 10.5t15.5 9.5q5 3 10 5.5l9 4.5h-10q11 6 23 11t24 9q9 3 17.5 5.5t17.5 4.5h-103q6 2 12 3l12 2h93q1 -1 3 -5 h103q3 -4 3 -10v-20h10v-10h-1v-20h-86v-20h-15v-10h41v-15h-22v-5h61v-20h5v-15h-13v-5h12q0 -4 -4 -10h-7q-6 -7 -15 -9h-3q-1 0 -2.5 -0.5t-3.5 -0.5h-2q-18 -3 -34.5 -7.5t-30.5 -12.5h3q-9 -5 -16 -10h1q-9 -6 -15 -15h5q-4 -4 -7 -10h-6q-3 -4 -5.5 -9.5t-4.5 -10.5 h-25q-1 -4 -2.5 -9.5t-2.5 -10.5h51v-5h-27v-5h50v-10h-84v-5h120q0 -3 -1 -5h-105q-1 -5 -1 -10v-10h114q0 -3 -1 -5h-133l-1 -10h52l-1 -10h-8q-2 -6 -2 -10h-50l-3 -10h85q-1 -4 -1.5 -7.5t-2.5 -7.5h-8q-1 -4 -2 -7.5t-3 -7.5h21q-1 -2 -2 -5t-3 -5h-17q-4 -10 -11 -20 h-36q-4 -8 -11 -15h-1q-2 -3 -5 -5.5t-5 -4.5h12q-2 -1 -3.5 -2.5t-3.5 -2.5h-48q-3 -1 -5.5 -2.5t-5.5 -2.5h2q4 -1 8.5 -3.5t8.5 -6.5h-41q9 -7 14 -15h47q3 -3 4 -5h76q3 -4 6 -9.5t6 -10.5h-122l3 -5h-11q5 -11 8 -20q2 -4 4 -9.5t3 -10.5h83q1 -4 2 -7.5t2 -7.5h-59 q0 -4 2 -10h65l3 -20h18q1 -4 1 -7.5v-7.5h-30q1 -3 1 -6v-6v-8h19q0 -5 0.5 -10t1.5 -10h7q1 -4 2 -7.5t2 -7.5h-23q2 -2 2.5 -5t1.5 -5h-1q5 -12 12 -20h22q5 -6 10.5 -10.5t11.5 -9.5h-16q5 -3 9.5 -5.5t8.5 -4.5h-3q4 -1 7 -2t6 -3h14q11 -4 22 -6t23 -4l5 -1 q9 -2 15 -9h-8q4 -5 4 -13v-7h-2v-20h-9v-5h55v-20h-98v-10h41v-10h134v-5z" />
<glyph unicode="|" horiz-adv-x="292" d="M-23 634v20h-77v20h121v10h-52v5h142v5h-23v15h-25v5h-57v15h25v20h43v15h-22v20h-17v20h36v15h6v15h-25v20h-3v20h-24q5 22 27 22h134q23 0 26 -22h24q1 -2 1 -5v-15h3v-20h25v-15h-6v-15h-36v-20h17v-20h22v-15h-43v-20h-25v-15h57v-5h25v-15h23v-5h-142v-5h52v-10 h-121v-20h77v-20h92v-10h-44v-5h27v-20h1v-15h38v-15h-52v-15h25v-10h-9v-15h12v-20h-15v-10h-30v-10h46v-10h-68v-5h70v-10h-26v-10h12v-20h18v-10h-27v-20h17v-5h-12v-10h-31v-5h30v-15h24v-20h-79v-20h43v-35h16v-15h-21v-10h19v-5h-1v-15h-6v-5h18v-20h10v-5h-50v-10 h-13v-10h-188v10h13v10h50v5h-10v20h-18v5h6v15h1v5h-19v10h21v15h-16v35h-43v20h79v20h-24v15h-30v5h31v10h12v5h-17v20h27v10h-18v20h-12v10h26v10h-70v5h68v10h-46v10h30v10h15v20h-12v15h9v10h-25v15h52v15h-38v15h-1v20h-27v5h44v10h-92zM435 184h-94v-20h47v-10h-59 v-20h-22v-5h53v-10h-77v-15h68v-20h-104v-10h19v-20h-26v-5h-22v-5h54v-10h-32v-15h-5v-10h-29v-5h57v-5h-106v-20h129v-15h-43v-15h-47v-20h2v-10h70v-15h-128v-5h79v-5h43v-5h-22v-20h-6v-5h34v-15h38v-20h-91v-10q0 -4 -2 -10h38q-4 -10 -15 -15h-6q-6 -2 -10 -2h-134 q-4 0 -10 2h5q-10 5 -15 15h-37q-2 3 -2 10v10h91v20h-38v15h-34v5h6v20h22v5h-43v5h-79v5h128v15h-70v10h-2v20h47v15h43v15h-129v20h106v5h-57v5h29v10h5v15h32v10h-54v5h22v5h26v20h-19v10h104v20h-68v15h77v10h-53v5h22v20h59v10h-47v20h94v5h-42v10h188v-10h42v-5z" />
<glyph unicode="}" horiz-adv-x="474" d="M482 254h21q-7 -7 -19 -13l-17 -7q-4 -1 -10 -5h-8q-7 -4 -13 -10h-35l-5 -5h10l-2 -2t-2 -3h-38l-9 -15h36q-4 -7 -6 -15h12l-3 -10h16q-2 -6 -2 -10h-22q-1 -2 -1 -5t-1 -5h-3l-1 -10v-8v-6t-1 -6h15q0 -5 -0.5 -10t-0.5 -10h10q-1 -2 -1 -5t-1 -5h-23q-1 -2 -1 -5 t-1 -5h-14q0 -3 -1 -5h49q0 -4 -2 -10h-26q-1 -4 -2 -7.5t-2 -7.5h10q-1 -4 -2 -7.5t-2 -7.5h-26q-1 -4 -2 -7.5t-3 -7.5h11l-3 -5h-8q-1 -4 -3 -7.5t-4 -7.5h3q-3 -5 -5.5 -10t-6.5 -10h-2q-2 -4 -5 -7.5t-6 -7.5h3q-4 -5 -8.5 -10t-9.5 -10h5l-2 -2l-3 -3h-8l-10 -10h-2 l-6 -5h15q-7 -5 -13 -10t-14 -10h-2q-1 -1 -3 -2t-4 -3h-17l-26 -15h-15q-2 -1 -5 -2t-5 -3h33q-9 -4 -18.5 -8t-18.5 -7q-48 -16 -94 -20h-8q-9 -1 -17.5 -1.5t-16.5 -0.5h-7q-4 0 -10 2h8q-13 7 -13 20v15h-33v5h15v15h16v5h2v20h-14v5h2v10h8v5h-5v20h-2v15h2v20h-3v2 q0 8 4 13h8l3 3l2 2h-11q6 4 10 4h3q14 2 26 4.5t22 6.5h26q19 7 31 15h-11q11 6 18 15h27l4.5 4.5t3.5 5.5h-49q1 2 2 3l2 2h14q2 2 3 4.5t2 5.5h24l4 10h-10q2 5 3 10l2 10h-15q1 5 1.5 10t0.5 10v10h3q1 2 1 5v5h22l1 10h-16v5t1 5h-12q0 4 0.5 7.5t1.5 7.5h-35l3 15h37 l2 5h-10q0 2 0.5 3t0.5 2h35l3 10h8q0 2 0.5 3t0.5 2q2 5 4.5 10.5t3.5 9.5h-20q2 5 5 10h-11l3 5h-39q4 6 7.5 11t7.5 9h38q14 16 28 20q-15 5 -27 20h14q-4 5 -7.5 9.5t-6.5 10.5h-31l-3 5h19q-1 2 -2 5t-3 5h-2l-6 15h2q-1 2 -2 5t-2 5q-1 4 -2.5 7.5t-2.5 7.5h-1 q0 2 -0.5 3t-0.5 2h-1l-2 5h-14l-2 5h21q0 4 -2 10h-21q-1 2 -1 5t-1 5h16q-1 2 -1 5t-1 5h9q-1 5 -1 10v10h-7v15h4l-1 10h-35q-1 4 -1 7.5t-2 7.5h26q-1 5 -3 10.5t-4 9.5h-2q-2 5 -5 10h1q-3 6 -7 10h2q-1 2 -2 3l-2 2h26q-1 2 -2 3t-3 2h-76q-14 13 -32 20h-35 q-13 6 -27.5 9.5t-30.5 5.5l-5 1q-4 0 -10 4h-8l-5 5h129q-3 3 -3 5h-141q-1 2 -1 5h121v15h-39v10h34v20h-17v5h-10v10h17v10h15v20h-12v5h-23v20h49v5h-54v5h38v20h-21q5 17 22 17h5q56 0 115 -17h20q14 -4 27.5 -9t26.5 -11h-38q2 -1 5 -2t5 -3h55l9 -5h-49q16 -8 32 -20 h22l4 -2t3 -3h12q6 -4 12 -9.5t12 -10.5h-15q2 -2 4.5 -5t5.5 -5h-18l9 -10h10q3 -3 4 -5h17q8 -8 15 -20h-34q2 -2 4 -5t3 -5h39l8 -15h-122l3 -5h140l3 -5h-128q0 -1 2 -5h7q5 -11 8 -20h34q2 -4 3.5 -9.5t2.5 -10.5h77q0 -1 0.5 -2t0.5 -3h-27q0 -1 0.5 -2t0.5 -3h-2 q1 -2 1 -5t1 -5h-1l1 -10h2q0 -5 0.5 -10t1.5 -10h-26q1 -4 1 -7.5v-7.5h35v-10h-4q0 -4 0.5 -7.5t0.5 -7.5h7q0 -9 3 -20h-9l3 -10h-15l3 -10h22q2 -2 3 -5t2 -5h-21l3 -5h15l3 -5h2q1 -2 4 -5h1q7 -8 17 -15h1q6 -4 10 -5l12 -5h-2l5 -2q6 -3 11 -6t8 -7h2q5 -5 6 -10h-19 l2 -5h31q2 -8 2 -14v-6h-14v-40h-38v-6q0 -6 -2 -14h39l-2 -5h10q-1 -5 -6 -10z" />
<glyph unicode="~" horiz-adv-x="549" d="M591 229l-3 -5h1q-1 -3 -3.5 -5.5l-4.5 -4.5h-27q-9 -9 -21 -15h4q-13 -7 -30 -11t-37 -4q-30 0 -54 4.5t-44 10.5h-4l-49 15h26q-12 3 -23.5 6t-25.5 4h-2q-8 1 -16.5 1.5t-17.5 0.5q-5 0 -9.5 -0.5t-9.5 -1.5h-90v5h-11v20h-144v5h117v20h-78v15h14v20h-7v20h-47v5h50 v2v6.5t1 6.5h-12q1 4 2.5 7.5t2.5 7.5h-13q0 1 2 5h31l3 5h-15q4 5 8.5 10.5t10.5 9.5h59q4 3 8.5 5.5t8.5 4.5h-58q26 12 62 12q26 0 47 -3.5t40 -8.5h58q8 -2 16.5 -5t16.5 -5h-58q24 -7 50 -13.5t60 -6.5h15q19 0 34.5 6.5t24.5 13.5h7q3 2 7 6l6 4h-7q5 4 14 5 q10 0 15 -5h7q3 -2 5 -10h-6q2 -4 2 -9v-11v-5h-30v-5h13v-15h12v-15h-50v-5h47v-20h7v-20h-14v-15h78v-20h-117q-1 -2 -1 -5h144q-3 -9 -8 -20h10zM58 214v10h90q-7 -1 -14 -4t-13 -6h-44q-7 -4 -12 -7.5t-9 -6.5v-0.5t-1 -0.5h7q-7 -7 -18 -8q-13 0 -18 8h-7q-2 5 -4 15 h43z" />
<glyph unicode="&#xa1;" horiz-adv-x="324" d="M46 389v10h-8v5h18v20h-6v10h3v20h-7v10h4v5h-1v15h3v10q0 3 1 5.5t2 4.5h9q8 13 23 13h174q17 0 23 -13h-8q1 -2 2 -4.5t1 -5.5h1v-10h-3v-15h1v-5h-4v-10h7v-20h-3v-10h6v-20h-18v-5h8v-10h6v-15h1v-20h-4v-5h-6v-15h2v-20h3v-5h-1q-5 -20 -26 -20h-174q-21 0 -26 20v5 h-4v20h-2v15h6v5h4v20h-1v15h-6zM260 -136h92v-5h-26v-10h-62v-10h5q-3 -15 -17 -20h28q-6 -2 -11 -2h-174q-4 0 -10 2h-27q-14 5 -16 20h-5q0 2 -0.5 3t-0.5 2v5h62v10h26v5h-92v10h48v15h-15v10h-12v15h-3v20h-1v5h2v5h4v15h3v15h-5v5h-4v15h9v20h-10v20h8v5h-1v5h2v5h-56 v5h-12v15h93v15h-27v10h-16v5h4v20h7v10h-2v15h1v50h-7v20h-3v5h10v3q0 5 2 9l4 8q8 10 21 10h174q13 0 21 -10q6 -7 6 -17v-3h-10v-5h3v-20h7v-50h-1v-15h2v-10h-7v-20h-4v-5h16v-10h27v-15h-93v-15h12v-5h56v-5h-2v-5h1v-5h-8v-20h10v-20h-9v-15h4v-5h5v-15h-3v-15h-4v-5 h-2v-5h1v-20h3v-15h12v-10h15v-15h-48v-10z" />
<glyph unicode="&#xa2;" horiz-adv-x="628" d="M595 184h86q0 -3 -0.5 -6.5t-1.5 -8.5h-21q0 -1 -0.5 -2t-0.5 -3h-85q-1 -4 -3.5 -9.5t-4.5 -10.5h40q-1 -4 -3.5 -7.5t-4.5 -7.5h-13l-9 -15h-28q-3 -5 -6.5 -10t-7.5 -10h32l-9 -10h-19l-9 -10h63q-1 -1 -2.5 -2t-2.5 -3h-112l-6 -5h18l-6 -5h-62l-13 -10h37 q-4 -2 -7 -5t-8 -5h41l-18 -10t-20 -10h96q-11 -5 -23.5 -9t-26.5 -8v-3h-200v-20h105v-10h78v-10h-37v-10h-47v-5h58v-10h-45v-10h23q-2 -14 -13 -20h1q-7 -4 -15 -4h-149q-9 0 -14 4q-11 6 -13 20h-23v10h45v10h-58v5h47v10h37v10h-78v10h-105v20h200v4q-11 3 -21.5 7.5 t-21.5 8.5h-96q-17 8 -35 20h-40q-4 2 -7.5 5t-6.5 5h-37l-12 10h62q-1 2 -2.5 3t-2.5 2h-18l-5 5h112l-5 5h-63q-4 4 -8 10h19q-4 4 -8 10h-32q-4 5 -7 10l-6 10h27q-2 4 -3.5 7.5t-3.5 7.5h13l-6 15h-40l-6 20h39l-2 5h-45l-3 15h63q-2 6 -2 10h40l-3 20h-70q0 3 -1 5v5h4 v15h-20v15h-3v5h-12v15h25v20h3v6q0 6 1 9h-16q1 4 1 7.5t1 7.5h19l6 30h3q2 4 3 7.5t2 7.5q1 2 2 5t2 5h1q2 2 3 5t2 5h21q2 5 5 10l9 15h-14l3 5h-13q4 5 7.5 10.5t7.5 9.5h-9q1 2 2 3l2 2h-7q6 8 15 15h11l12 10h-25q2 2 3.5 3t3.5 2h63l8 5h-40q4 3 8 5.5t8 4.5h-88 q11 6 21.5 11t21.5 9h128q5 2 11 4t11 3v3h-22v15h-12v20h-28v15h28v15h65q0 3 1 5h49q5 21 27 21h149q21 0 26 -21h-49v-5h-65v-15h-28v-15h28v-20h12v-15h22v-1l29 -9h-128q12 -4 22.5 -9.5t20.5 -10.5h89l16 -10h40l4 -2t3 -3h-64l4 -2t3 -3h25l13 -10h-12q5 -4 9 -7.5 t8 -7.5h7q2 -1 3 -2t2 -3h9q5 -5 9.5 -10t8.5 -10h13l3 -5h14q3 -4 5.5 -7.5t4.5 -7.5q3 -5 5 -10h-21q3 -5 5 -10h-1l4 -10q2 -4 3 -7.5t2 -7.5l3 -15h-3v-3q1 -5 -2 -12q-7 -15 -24 -15h-195q-17 0 -27 15l-3 5q-1 4 -5 10h3q-6 11 -13 15q-8 5 -19 5q-12 0 -20 -5h-3 q-8 -4 -13 -15q-2 -4 -4 -15h-19q-1 -4 -1.5 -7.5t-0.5 -7.5h15q-1 -3 -1 -6.5v-7.5v-1h-3v-20h-25v-15h12v-5h3v-15h20v-7.5t1 -7.5h-5q1 -2 1 -5v-5h71q0 -4 0.5 -7.5t0.5 -7.5q9 12 24 12h195q19 0 26 -17h2q2 -3 2 -10zM398 169h20q6 6 9 15h-86l3 7q0 1 0.5 1.5 t0.5 1.5h-37q0 -4 2 -10h-62q3 -9 9 -15h45q4 -3 8 -5h80q5 2 8 5zM271 164q8 -3 17 -3q11 0 17 3h-34z" />
<glyph unicode="&#xa3;" horiz-adv-x="758" d="M758 49q-6 -5 -11.5 -10t-11.5 -10h8q-8 -6 -16.5 -10.5t-17.5 -9.5q-21 -11 -43 -15h3q-9 -2 -18.5 -3t-18.5 -1q-14 0 -27.5 1.5t-26.5 2.5h-3q-37 6 -68 15q-19 5 -37.5 10.5t-35.5 9.5h-8q-24 6 -48 6q-18 0 -32 -6h-36q-14 -6 -22 -20h43q-5 -9 -15 -9h-154 q-11 0 -16 9h-44q-2 6 -2 9v11h36q0 5 0.5 10t1.5 10h-140l2 10l2 10h75l6 20h-18q0 1 2 5h-22q2 4 2 5h10q1 2 2 5t2 5h-3q2 5 4.5 10.5t5.5 9.5h-13l10 15h20q2 2 4 5t4 5h-11l9 10h4q2 2 4.5 5t5.5 5h18l5 5h-16q5 4 10 7.5t10 7.5h2q3 2 6.5 4t6.5 4v12h-17 q0 5 -0.5 10.5t-1.5 9.5h31v5h-12l-2 11h-75q-12 0 -20 9h6q-3 3 -4 5h16q-3 6 -3 13v2h4v15h91v5h-80v10h58v20h-19v10h-72v15h-1v15h-11v15h3v5q0 4 2 10l2 5q5 7 13 10h-1q6 2 10 2h35v9.5t-1 8.5h-3v15h8q0 4 0.5 7.5t0.5 7.5h-71v10t1 10h60l1 10h49q0 3 1 5h-16v5h42 q0 3 1 5h-63q2 6 2 10h-21q2 5 3 10.5t2 9.5h-4q2 5 3.5 10.5t3.5 9.5h19q3 9 8 20h3q2 4 4 7.5t4 7.5h-2l3 5h-36q6 10 14 20h12q3 4 6 7.5t7 7.5h-49q11 11 23 20h51q16 12 32 20h-43q9 5 22 10h49q3 2 6.5 3t6.5 2h-86q23 8 47.5 13t52.5 7h62q12 1 24.5 1.5t25.5 0.5 q12 0 24 -0.5t23 -1.5h-61q51 -4 98 -20h86q4 -1 7.5 -2t6.5 -3h-49q6 -2 12 -4.5t11 -5.5h43q17 -8 35 -20h-51q7 -4 13 -9.5t12 -10.5h49q9 -7 15 -15h-11q5 -4 8.5 -9.5t7.5 -10.5h36l2 -2t2 -3h2l9 -15h-3q3 -4 5.5 -9.5t4.5 -10.5h-19q5 -11 8 -20h4q2 -4 3 -9.5 t2 -10.5h21q1 -2 1 -5t1 -5h-11q0 -1 0.5 -2t0.5 -3h10q1 -2 1 -5h-4v-5q0 -2 0.5 -5t0.5 -5h-34q0 -4 0.5 -9t0.5 -10v-1h62q-2 -10 -7 -15h-32q-6 -6 -15 -6h-204q-16 0 -25 6h32q-7 4 -13 15h-62l-3 8l-6 12h35q-1 3 -2.5 5.5t-3.5 4.5l-3 5h4q-1 2 -2 3l-2 2h-42l-3 -5 h16l-3 -5h-49l-3 -10h-60q-1 -4 -1.5 -9.5t-1.5 -10.5h71q0 -4 -0.5 -7.5t-0.5 -7.5h-8v-15h3q1 -4 1 -8.5v-9.5h113q5 0 11 -2q8 -3 13 -10l2 -5q2 -6 2 -10v-5h-3v-15h11v-15h1v-15h72v-10h19v-20h-58v-10h80v-5h-91v-15h-4v-2q0 -7 -3 -13h-17l-3 -5h-6q-7 -9 -20 -9 h-108v-11h12v-5h-31v-10t-1 -10h18q-1 -4 -1 -7.5t-1 -7.5q7 -1 12.5 -2t11.5 -3h-2q26 -5 47 -8.5t47 -3.5q28 0 47 12h-19q13 7 24 20h-5q3 3 4 5q3 4 7 6.5t11 2.5h131q16 0 19 -14h5q0 -1 0.5 -2t0.5 -3q0 -4 -0.5 -7.5t-0.5 -7.5h19q0 -4 -0.5 -7.5t-0.5 -7.5h16 q0 -1 -0.5 -2t-0.5 -3h-18q0 -4 -2 -10h-3q-2 -6 -2 -10h10q0 -4 -2 -10h-20q-1 -4 -2 -7.5t-3 -7.5h13l-9 -20h3q-2 -5 -5 -10h-9l-3 -5h22l-3 -5h18q-6 -10 -14 -20h-75q-4 -5 -8.5 -10t-9.5 -10h141zM408 516q-17 0 -25 -7h51q-10 7 -26 7z" />
<glyph unicode="&#xa4;" horiz-adv-x="634" d="M614 84h129l-10 -10h-128l-2 2q-1 -1 -2 -1t-2 -1h-108l-10 -10h87l-20 -20h-5l-5 -5h4l-10 -10q-2 -1 -4 -2.5t-4 -2.5h-23q-3 1 -7 5l-10 10h-4l-5 5h5l-20 20h-60q-40 -14 -83 -14t-83 14h-6q-6 2 -12 4.5t-11 5.5h46l-10 10h-129l-5 5h-61l-5 5h-58l-10 10 q-1 2 -2.5 4.5t-3.5 5.5h13q-1 2 -1 5v5h146q0 4 2 10h-124q2 5 5 8l2 2h55l5 5h-13l15 15h2l10 10h-52l10 10h72l5 5q-2 4 -2 5h-144q-3 5 -5 10l-4 10h109q-1 4 -2 7.5t-3 7.5h16q0 2 -0.5 3t-0.5 2h-12l-3 10h20l-2 10l-2 10h-34q0 4 -0.5 7.5t-0.5 7.5h34v10h-41v20h49 v5h-84q1 4 1 7.5t1 7.5h74q0 5 1 10l2 10h7l3 15h-24q1 4 2.5 7.5t2.5 7.5h10l4 10l4 10h10q0 1 2 5h-12q0 1 2 5h2q0 1 0.5 1t0.5 1l-3 3h-20l-20 20h51l-15 15h1l-9 9v0.5t-1 0.5h-6q-7 7 -7 20h-25l3 10h27l2 4t2 3l8 8h78l25 25h122l5 -5q2 2 5 3l6 2h14q38 16 78 20h19 l10 10h21l5 5h-8l7 7q8 8 19 8t19 -8l7 -7h8l5 -5h-21l10 -10h10l20 -20h115l25 -25h-78l8 -8q3 -3 5 -7h-27q3 -4 3 -10h25q2 -11 -6 -20h6v-0.5t-1 -0.5l-9 -9h-1l-15 -15h-51l-20 -20h20l-3 -3q0 -1 0.5 -1t0.5 -1h-2l2 -5h12l3 -5h-10q4 -9 7 -20h-7q2 -4 2.5 -7.5 t1.5 -7.5h13l3 -15h9q2 -5 2.5 -10t1.5 -10h5q0 -4 0.5 -7.5t0.5 -7.5h-6v-5h-55v-20h35l-1 -10h60q-1 -4 -1 -7.5t-1 -7.5h-70q-1 -5 -1.5 -10t-2.5 -10h-2q-1 -2 -1 -5t-1 -5h12q0 -1 -0.5 -2t-0.5 -3h2q-1 -4 -2 -7.5t-3 -7.5h-120l-9 -20h144q0 -1 -2 -5l5 -5h-72 l10 -10h52l10 -10h-2l15 -15h13l5 -5h-55l2 -2q4 -3 5 -8h125q2 -6 2 -10h-146q0 -4 -2 -10h-13q-1 -5 -6 -10l-10 -10h58l-5 -5h61zM155 549l20 -20h-122l20 20h53l10 10h-28l5 5h1l7 7q8 8 19.5 8t18.5 -8l7 -7h-1l5 -5h28l10 -10h-53zM317 550h10.5t10.5 -1h-43 q5 1 10.5 1h11.5zM545 529h-16q2 -1 5 -2t6 -3zM263 234l5 -5h-15q12 -10 29 -15h65q17 5 28 15h-2l3 3l2 2h-12q2 2 5 4.5t4 5.5h3q7 10 11 20h70q2 4 3 7.5t2 7.5h-59l1 10h-35q1 4 1 11q0 6 -1 9h56q0 2 -0.5 3t-0.5 2h6q0 4 -1 7.5t-2 7.5h-5q-2 5 -4.5 10.5t-5.5 9.5 h-9q-4 8 -12 15h-13q-7 9 -20 15h8q-20 11 -44 11q-23 0 -43 -11h-10q-12 -6 -21 -15h24l-12 -15h-7q-6 -9 -9 -20h-74q-1 -4 -2 -7.5t-2 -7.5h84q-1 -2 -1 -5h-48q-1 -3 -1 -9q0 -7 1 -11h40q0 -4 2 -10h-35q1 -4 2.5 -7.5t2.5 -7.5h34q5 -12 12 -20h-20q4 -6 10 -10h12z M226 214h-54q12 -4 27 -4t27 4zM154 64h1l-20 -20h-68l-20 20h-1l-10 10h128zM153 39l-5 5h68l-5 -5h-58zM30 29l-10 10h58l-10 -10q-3 -3 -7 -5h-23q-4 2 -8 5zM203 24q-11 -5 -23 0h23zM387 24q-11 -5 -23 0h23z" />
<glyph unicode="&#xa5;" horiz-adv-x="750" d="M628 204h166v-15h-45v-15h-129v-5h37v-9q0 -4 -1 -6h3q-1 -4 -5 -10h-14q-8 -11 -22 -11h-118v-9h-9v-10h4v-15h-49v-5h109v-10h-145v-15h-104v-5h-250v5h104v15h145v10h-109v5h49v15h-4v10h9v9h-117q-14 0 -22 11h15q-4 6 -5 10h-2q-1 2 -1 6v9h-37v5h129v15h45v15h-166 v15h55v20h-16v10h-23v15h89v12q0 2 0.5 4t0.5 4h-132l3 5h128l3 5h-74q4 4 6 5h6q5 4 14 4h75l-3 6h-7l-3 5h-9l-5 10l-7 15h-16l-5 10h1l-10 20h15l-3 5h-7l-10 20h1l-7 15h6l-10 20h4l-5 10h-22l-3 5h2l-5 10h-6l-8 15h28l-8 15h12l-8 15h-56l-10 20h12l-3 5h18l-10 20h12 l-8 15h-1l-3 5l-5 10h1l-10 20h5l-10 20h-82l-8 15h102l-10 20h7l-7 15h-23l-3 5q0 1 -0.5 2.5t-0.5 2.5h-47l-1 4q0 9 7 16h47q6 6 15 6h188q7 0 13 -2t10 -4h-46q8 -4 12.5 -10t5.5 -9l1 -1h47l5 -10h23l7 -15h-7l10 -20h-102l7 -15h83l10 -20h-5l10 -20h-1l5 -10l3 -5h1 l8 -15h-12l10 -20h-18l2 -5h-12l10 -20h27l10 20h23l3 5h54l10 20h-33l8 15h-7l3 5h-2l5 10h-10l10 20h-11l10 20h-12l8 15h34l10 20h-1l7 15h-44l5 10h35l1 1l6 9t12 10h-1q5 2 10.5 4t12.5 2h188q9 0 15 -6h2q7 -7 7 -16q0 -3 -1 -4h-35q0 -1 -0.5 -2.5t-0.5 -2.5l-3 -5 h44l-8 -15h2l-10 -20h-34l-8 -15h12l-10 -20h10l-10 -20h11l-5 -10h1l-2 -5h6l-7 -15h32l-10 -20h-54l-2 -5h-24l-10 -20h105l-8 -15h-61l-8 -15h-27l-8 -15h6l-5 -10h-1l-3 -5h23l-5 -10h-4l-10 -20h-7l-8 -15h-1l-10 -20h8l-3 -5h-15l-10 -20h-1l-5 -10h16l-8 -15l-5 -10 h9l-2 -5h7l-3 -6h77q9 0 14 -4h-5q2 -1 6 -5h73q3 -3 4 -5h-128q2 -4 2 -5h132q1 -3 1 -8v-12h-89v-15h23v-10h16v-20h-55v-15zM454 499h-75l7 -15h60zM385 484h-10l5 -10zM316 54v10h250v-10h-103v-5h33v-20h-36v-2q0 -2 -0.5 -4t-0.5 -4h4q0 -1 -2 -5h-44l-3 -5h47 q-4 -4 -6 -5h8q-5 -4 -14 -4h-196q-8 0 -15 4h-8q-2 1 -6 5h-47l-3 5h44q-2 4 -2 5h-5q-1 3 -1 8v2h36v20h-33v5h103z" />
<glyph unicode="&#xa6;" horiz-adv-x="296" d="M42 475q-9 0 -14 4h-67q-5 3 -9 10h47q-1 3 -2.5 6t-1.5 7v7h8v15h-41v5h80v10h15v10h4v10h19v20h-130v20h44v10h30v10h27v10h3v5h2v10h-1v15h3v10h81v5h-136v20h131v15h-123v5h99v10h33v20h-57v15h-15v15h59v20h-95v5h41v3q0 10 6 17h-18q7 10 21 10h134q13 0 21 -10h18 q6 -7 6 -17v-3h-41v-5h95v-20h-59v-15h15v-15h57v-20h-33v-10h-99v-5h123v-15h-131v-20h136v-5h-81v-10h-3v-15h1v-10h-2v-5h-3v-10h-27v-10h-30v-10h-44v-20h130v-20h-19v-10h-4v-10h-15v-10h-80v-5h41v-15h-8v-7q0 -7 -3 -13h-47q-3 -7 -10 -10h67q-5 -4 -14 -4h-134z M351 144h94v-10h-188v10h-94v20h6v15h-137v5h22v5h5v10h-4v10h-1v20h-11v20h17v10h-33v20h27v5h-20v20h86v15h-98v5h8v5h31q0 2 0.5 3t0.5 2h2q1 4 5 10h21q8 10 21 10h134q13 0 21 -10h-21q3 -3 5 -10h-2q1 -2 1 -5h-31v-5h-8v-5h98v-15h-86v-20h20v-5h-27v-20h33v-10h-17 v-20h11v-20h1v-10h4v-10h-5v-5h-22v-5h137v-15h-6v-20zM162 114v-15h-188v15h82v20h188v-20h-82zM257 79v20h188v-20h-106v-10h-2v-10h-86v-20h53v-5h-45v-7q0 -5 -1 -8h-17q-4 -11 -12 -15h-2q-5 -4 -14 -4h-134q-9 0 -14 4h2q-8 4 -12 15h17q0 2 -0.5 4t-0.5 4v7h45v5h-53 v20h86v10h2v10h106z" />
<glyph unicode="&#xa7;" horiz-adv-x="636" d="M774 244h-164q0 -4 -2 -10h125q0 -1 -0.5 -2t-0.5 -3h-151q0 -1 -0.5 -2t-0.5 -3h27q-1 -4 -2 -7.5t-3 -7.5h36q-2 -5 -4.5 -10t-5.5 -10h64q-6 -10 -14 -20h8q-3 -3 -4 -5h-167q-3 -4 -6.5 -7.5l-7.5 -7.5h20l-14 -12q1 -2 1.5 -4t1.5 -4h10q2 -4 4 -9.5t3 -10.5h25 l2 -5h-50q1 -2 1 -5h-17l3 -15h21l1 -10h-17v-15h106q0 -5 -0.5 -10t-1.5 -10h-205v-5h179q-1 -5 -1.5 -10t-2.5 -10h-5l-6 -20h1l-2 -5h-49q-1 -5 -4 -10t-5 -10h51l-9 -15h-11q-2 -2 -4 -5t-4 -5h-8q-4 -5 -8.5 -10t-9.5 -10h20q-10 -10 -25 -20h-28q-6 -4 -12.5 -7.5 t-13.5 -7.5h11q-13 -6 -27.5 -11t-29.5 -9h-2q-6 -1 -12.5 -2.5t-13.5 -2.5q-13 -2 -27.5 -3t-29.5 -1t-29 1t-27 3q-7 1 -14 2.5t-13 2.5h1q-16 4 -31 9t-29 11h-11q-7 4 -14.5 7.5t-14.5 7.5h29q-8 5 -15 10l-14 10h-21q-11 8 -21 20h8l-9 10h11l-11 15h-51q-3 5 -5.5 10 t-4.5 10h48q0 1 -2 5h-1q-1 5 -2.5 10.5t-2.5 9.5h-31v3q0 11 6 17h59q3 3 9 5h-29q2 1 7 1h166q6 0 8 -1h116q0 5 -1 10t-6 10h-106q-6 8 -22 15h17q-5 2 -12 5t-16 5h-21q-22 6 -52 12l-12 3h17q-4 2 -8.5 3t-9.5 2h50q-4 2 -8 3l-8 2h-26q-13 5 -25 10t-23 10h-10 q-9 5 -17 10l-16 10h-20l-18 15h167l-5 5h-8l-8 10l-8 10h-63q-7 10 -11 20h-36l-6 15h-28q0 2 -0.5 3t-0.5 2h151l-2 5h-125q-1 2 -1 5t-1 5h147l-1 10h20q0 4 -0.5 7.5t-1.5 7.5h-5v5h-130q-1 5 -1 10v10h-37v15h1q1 2 1 5h-38v5h26q1 2 1 5h11q0 2 0.5 3t0.5 2l3 15h4 l3 10h-1l9 20h-2q3 5 6 10.5t6 9.5h-7q5 8 12 15h6l5 5h-16q8 9 21 19l-1 1h-51l-4 10h24q-1 4 -2.5 7.5t-2.5 7.5h57q-1 2 -1 5t-1 5h-14q-1 4 -1.5 7.5t-0.5 7.5h-4v5t-1 5h5v10h-1v15h-7l3 20h21l3 15h-19q1 9 6 20h18q3 9 8 20h-21q4 10 11 20h17q2 2 3.5 5t3.5 5h-3 l14 15h-5q2 2 4.5 5t5.5 5h2q5 4 9.5 7.5t9.5 7.5h7q6 4 12 7.5t13 7.5h-47q3 2 5.5 3t4.5 2h-13q3 2 6 3l6 2h62l14 5h-39q23 8 50 12t58 4q32 0 59.5 -4t51.5 -12h38q4 -1 7.5 -2t7.5 -3h-62l6 -2t6 -3h14l6 -2t5 -3h47q8 -4 14.5 -7.5t13.5 -7.5h-7q6 -4 11.5 -7.5 t10.5 -7.5h-2l12 -10h5l15 -15h2q4 -4 8 -10h-16q4 -5 7.5 -10t5.5 -10h22q2 -5 4.5 -10t3.5 -10h-18q2 -5 3 -9.5t1 -9.5v-1h-13q1 -9 -5 -15h42q-6 -7 -17 -7h-166q-7 0 -11.5 2t-9.5 5h-42l-9 7q-5 5 -12 8h12q-10 5 -25 5q-8 0 -15 -5h19q-7 -7 -8 -15h-21q-1 -2 -1 -7 q0 -3 0.5 -6.5t1.5 -6.5h7q3 -8 13 -15h1l7.5 -5t10.5 -5h-4q6 -2 13.5 -5t16.5 -5h3q10 -2 21.5 -5t24.5 -5q5 -1 9.5 -2t8.5 -3h14q19 -5 32 -10h-57q20 -7 36 -15h-24q5 -2 10 -5t9 -5h51q8 -4 15 -9.5t14 -10.5h16l6 -5h-7q9 -7 15 -15h8q8 -10 14 -20h1q3 -4 5.5 -9.5 t4.5 -10.5h1l3 -10h-3q1 -4 2 -7.5t2 -7.5l2 -5h-10q0 -3 1 -5h-33q0 -3 1 -5h43q0 -3 1 -5q0 -4 0.5 -7.5t0.5 -7.5h33q0 -4 0.5 -9t0.5 -10v-1h-35v-5h142q0 -4 -0.5 -7.5t-0.5 -7.5h27q-1 -2 -1 -5t-1 -5zM273 294q6 -11 26 -20h134q-4 12 -21 20h-33q-10 5 -23 8 q-7 2 -13.5 4t-11.5 3h-1q-4 2 -8.5 3t-9.5 2h-43q-5 2 -9.5 3t-9.5 2h33l-20 5h10l-12 3q-7 2 -11.5 0.5t-8.5 -3.5h-11l-2 -2l-3 -3h-26q-2 -4 -2 -5h38q-1 -2 -1 -5h-1v-1q0 -4 0.5 -7.5t2.5 -6.5h37zM516 244h42q7 3 9 10h-26q0 2 0.5 4t0.5 4q0 5 -1 7h-93q2 -1 3.5 -1 t2.5 -1q9 -3 20 -6t24 -7h-21q9 -2 19 -4.5t20 -5.5zM394 244h-25q2 -1 4 -1t4 -1q10 -1 17 2zM335 14q11 7 11 20h-109q6 -4 9 -7q4 -4 8.5 -7.5t11.5 -5.5h31q8 -3 20 -3q8 0 12 3h6z" />
<glyph unicode="&#xa8;" horiz-adv-x="509" d="M495 699h-94v-20h71v-10h-18v-15h9v-15h-7v-5h6v-15h31v-1q0 -7 -5 -14h-7q-4 -4 -6 -5h-24q-5 -4 -13 -4h-124q-9 0 -13 4h24q-3 2 -5 5h7q-4 5 -4 14v1h-31v15h-6v5h7v15h-9v15h18v10h-96v-10h14v-15h4v-15h7v-20h-12v-1q0 -9 -4 -14h-4q-1 -1 -2 -2.5t-3 -2.5h-3 q-5 -4 -14 -4h-124q-8 0 -13 4h3q-3 2 -5 5h4q-5 7 -5 14v1h12v20h-7v15h-4v15h-14v10h32v20h-37v20h42v5h-55v15h23v3q0 8 3 12h12q6 11 20 11h124q14 0 20 -11h-12q3 -4 3 -12v-3h-23v-15h78v15h15v3q0 8 3 12h-14q6 11 20 11h124q14 0 20 -11h13q4 -6 4 -12v-3h-15v-15 h-29v-5h88v-20zM325 699v20h-124v-20h124z" />
<glyph unicode="&#xa9;" horiz-adv-x="792" d="M759 254h105l-2 -5h-97q0 -1 -0.5 -2t-0.5 -3h-24q-3 -11 -7 -20h-15q-1 -2 -1.5 -5t-2.5 -5h3l-2 -5h11q-1 -2 -2 -5t-3 -5h6q-1 -2 -2 -5t-3 -5h4q-1 -4 -3 -7.5t-4 -7.5h15l-3 -5h-30l-3 -5h5l-6 -10h4q-4 -5 -7 -10t-7 -10h37q-2 -2 -4 -5t-4 -5h-34l-9 -10h-65 l-2 -2t-2 -3h156l-10 -10l-10 -10h-93q-4 -4 -8 -7.5t-9 -7.5h72l-19 -15h-119l-23 -15h81q-6 -4 -12.5 -7.5t-13.5 -7.5h-40q-16 -9 -33 -15h3q-38 -14 -76 -20h-40q-13 -2 -26.5 -3t-27.5 -1q-13 0 -26.5 1t-27.5 3h40q-38 6 -76 20h-3q-16 6 -33 15h39q-7 4 -13.5 7.5 t-12.5 7.5h-81l-23 15h120l-20 15h-71q-4 4 -8.5 7.5t-8.5 7.5h44q-4 5 -9 10l-10 10h-43q-1 2 -2 3l-2 2h30q-2 2 -4 5t-4 5h-60q-4 6 -8 10h34q-8 10 -14 20h-11l-6 10h-27l-3 5h11l-3 5h20q-2 4 -4 7.5t-4 7.5h-50q-3 5 -5 10h103q-1 2 -2 5t-3 5h-85l-2 5h-5q-1 2 -2 5 t-2 5h40q-1 5 -3 10l-4 10h-10q0 2 -0.5 3t-0.5 2h94l-2 5h20l-3 15h-102l-3 15h11l-3 15h-17q-1 2 -1 5h-8q-1 2 -1 5v5h3q-1 5 -1 10v10h4v15h11v5h-53v5h30v15h45q1 2 1 5h-33q1 4 1 7.5t1 7.5h101q-1 -4 -1.5 -7.5t-0.5 -7.5h32v-5h39v5h6q0 9 1 11v4h74v5t1 5h-60l1 10 h5q2 6 2 10h-7q0 2 0.5 3t0.5 2h-5q1 2 1.5 5t1.5 5h4q1 4 2.5 7.5t2.5 7.5h29q2 4 3.5 7.5t3.5 7.5h-48q6 10 14 20h62l15 15h-71q7 6 14.5 11t15.5 9h3l11 5h50l16 6t17 4h1q12 2 24.5 3.5t25.5 1.5q15 0 28.5 -1.5t25.5 -3.5h-1q9 -2 18 -4.5t17 -5.5h-51l6 -2t6 -3h-3 q10 -4 18 -9.5t15 -10.5h71q5 -4 8.5 -7.5l7.5 -7.5h-62q8 -8 15 -20h48q2 -4 4.5 -7.5t3.5 -7.5h-28l6 -15q1 -2 1 -5t1 -5h20q1 -2 1 -5h44l-2 5h5l-3 10l-6 15h-14q-1 4 -3 7.5t-4 7.5h28q-3 5 -5.5 10.5t-5.5 9.5h21q-2 4 -4.5 7.5t-5.5 7.5h-53q-4 5 -7.5 10.5 t-7.5 9.5h14l-5 5h59l-9 10h10q-1 2 -2 3t-3 2h29q-3 2 -5.5 5t-5.5 5h-80l-12 10h-8q-4 2 -7 5t-7 5h1q-2 2 -4 3l-4 2h-9l-9 5h-18q-4 3 -9.5 5.5t-10.5 4.5h27q-37 17 -79 20h11q-6 1 -11.5 1h-11.5h-12t-11 -1h-24q-41 -3 -80 -20h-6q-5 -2 -10 -4.5t-10 -5.5h5l-4 -2 t-4 -3h17l-9 -5h23q-4 -2 -7.5 -5t-6.5 -5h39l-12 -10h-12q-3 -2 -6 -5l-5 -5h-3q-1 -1 -2.5 -2t-2.5 -3h-58l-9 -10h-8l-5 -5h-35q-4 -4 -7.5 -9.5t-7.5 -10.5h-72q-3 -4 -5.5 -7.5t-4.5 -7.5h90q-7 -10 -11 -20h57q-1 -4 -3 -7.5t-4 -7.5h-38l-6 -15h2q-1 -2 -1.5 -5 t-2.5 -5h1l-2 -5h1l-3 -10h-23q-2 -6 -2 -10h-90q-2 -6 -2 -10h-101l1 10h90q1 2 1 5t1 5h23q1 2 1 5t1 5q0 3 1 5q0 4 2 10h-2q2 4 2.5 7.5t1.5 7.5h39q2 4 3 7.5t2 7.5h-57l4 10l4 10h-90l6 15h72l11 20h35l2 5h9l6 10h57l3 5h3q2 2 4 5t3 5h12l7 10h-40q2 2 4 5t4 5h-23 q3 3 4 5h-17l5 5h-6l9 10h6q5 5 10 10.5t10 9.5h24l17 15h-33q4 2 7 5t6 5h21q2 2 3.5 3t3.5 2h-5q2 2 4 3t3 2h-19l16 10h-5q4 2 8.5 5t8.5 5h-22q11 6 22.5 11t23.5 9h40q57 21 122 21q66 0 121 -21h-40q12 -4 23.5 -9t22.5 -11h22l18 -10h5l16 -10h18l8 -5h5q2 -1 3.5 -2 t3.5 -3h-21l13 -10h33l17 -15h-11q5 -4 10 -9.5t10 -10.5h-28l9 -10h18q3 -3 4 -5h9l2 -2t2 -3h-1l7 -10h8q2 -2 4 -5t3 -5h80q2 -2 3.5 -5t3.5 -5h-29l3 -5h-10l6 -10h-60l3 -5h-14l11 -20h53l6 -15h-21l8 -20h-28q2 -4 3 -7.5t2 -7.5h15q1 -4 2 -7.5t2 -7.5q1 -2 1 -5 t1 -5h-5q1 -2 1 -5h-44q0 -4 2 -10l1 -10h-45q1 -2 1 -5v-5h62q0 -4 0.5 -7.5t0.5 -7.5h96v-5h-67q1 -4 1 -7.5v-7.5h-55v-5h40v-5h10v-7.5t-1 -7.5h5v-10t-1 -10h5q-1 -2 -1 -5v-5h-8v-5h78q-1 -4 -1.5 -7.5t-0.5 -7.5h-50l-3 -15h-14q-1 -4 -1.5 -7.5t-2.5 -7.5h-121 q0 -1 -2 -5h-52q-2 -4 -2 -5h-16q-2 -5 -5.5 -10t-6.5 -10h-7q-2 -2 -4 -5t-4 -5h8l-5 -5h-89l-5 -5t-6 -5h105l-13 -10h35q-15 -10 -29 -15h-49q-3 -1 -6.5 -2t-7.5 -3h5q-11 -4 -19 -5h-2q-27 -6 -59 -6q-30 0 -54 6h2q-4 1 -8.5 2.5t-9.5 2.5h-4q-3 2 -6.5 3t-6.5 2h49 q-15 6 -27 15h-36q-3 2 -6 4.5t-6 5.5h-152q2 -2 4 -5t4 -5h50l12 -15h-20l5 -5h-11l2 -2t2 -3h27q3 -2 5.5 -5t4.5 -5h11l12 -10l12 -10h-33l15 -10h60q4 -3 8.5 -5.5t8.5 -4.5h-30q2 -1 4.5 -2t5.5 -3h42q15 -7 31 -12t33 -8h-45q11 -2 22.5 -3t23.5 -1t23.5 1t22.5 3h93 q31 6 63 20h-156l11 5h65q5 2 9 4.5t8 5.5h34q5 2 8 5t7 5h-37q7 5 13 10l12 10h-4q2 2 4.5 5t5.5 5h-6l5 5h30l5 5h-16q8 8 12 15h-4l7 10h-6q2 2 4 5t3 5h-11l3 5h-2q2 5 5 10h15q6 10 10 20h23l2 5h97q2 4 2 5zM372 414q-2 -6 -2 -10h25l-6 10q-1 3 -2.5 5.5t-2.5 4.5h69 q-2 4 -4 5h-20q-9 10 -28 10h-4q-17 0 -25 -10h5l-3 -5h7q-2 -4 -4 -10h-5zM347 374h-48v-15h39v-5h25v-5h-2v-15h-2v-17q0 -2 1 -3h-7l1 -10h20v-5h38q1 -4 2 -7.5t2 -7.5h68q1 1 1 2t1 2q2 2 3.5 5t3.5 6h-41q2 3 5 5h-18q7 5 15 5h96q8 0 15 -5h17q3 -2 5 -5h40 q3 -4 3 -12v-3h-126q0 -4 -0.5 -7.5t-1.5 -7.5h-22q8 -6 20 -6q17 0 24 6h145q2 4 3 7.5t2 7.5h50l3 15h-78q0 3 1 5h7l1 10h-5q1 5 1.5 10t0.5 10h-5q1 4 1 7.5v7.5h-10v5h-40v5h55q0 4 -0.5 7.5t-0.5 7.5h67q0 3 -1 5h-95q-1 4 -1 7.5t-1 7.5h-61q-2 6 -2 10h45q-1 2 -1 5 t-1 5l-3 10h-69q1 -3 1 -9v-1q0 -7 -2 -10h13q-2 -6 -12 -10h-14q-2 -1 -7 -1h-96q-5 0 -7 1h-54v-9q0 -1 -0.5 -2.5t-0.5 -3.5h-6v-5zM142 214l3 -5h113q-1 2 -2 3l-2 2h-8q-4 4 -8 10h7q-7 8 -12 20h16l-3 5h53q-2 4 -2 5h40q-1 4 -2 7.5t-3 7.5l-3 15h-53l-3 15h-37 q-1 2 -1 5h-20v10h6v20h2v15h2v5h-25v5h-39v15h-36q-1 -4 -1 -7.5v-7.5h-30v-5h53v-5h-11v-15h-4q0 -5 0.5 -10t1.5 -10h-4q1 -2 1 -5t1 -5h8q0 -3 1 -5h17q1 -4 2 -7.5t2 -7.5h-11q1 -4 2 -7.5t2 -7.5h102q1 -4 2.5 -7.5t2.5 -7.5h-20q0 -1 2 -5h-94l2 -5h10l9 -20h-40 q3 -5 5 -10h6z" />
<glyph unicode="&#xaa;" horiz-adv-x="351" d="M289 599h32v-15h-9v-15h2v-5h-2v-10h-16v-5h-13v-15h27v-10h6v-20h2v-20h-6v-5h-6v-20h6v-11q0 -3 -1 -4h10q-2 -10 -13 -10h-89q-10 0 -14 10h-10q-1 1 -1 4v11h-3q-5 -8 -16 -15h-6q-21 -15 -54 -15q-34 0 -60 15h6q-12 7 -19 15h-5q-9 10 -14 20h6q-2 4 -2 5h6 q-2 5 -3 10l-2 10h-2v6v7.5t1 6.5h-9l3 10h-24q2 5 5 10l3 5h12q3 3 4 5h16q2 3 5 5.5t5 4.5h2l6 5h-2q12 9 29 15h9q24 10 53 14l6 1h-32l48 8v2h-6q0 16 -3 20h-25q-5 -4 -9.5 -8t-13.5 -4h-87q-12 0 -10 12q2 11 7 20h35l3 5h-20q1 2 4 5h20q1 2 4 5h-5q9 10 25 20h-2 q2 2 4.5 3t5.5 2h1q15 8 35.5 12t45.5 4q55 0 86 -16q2 -1 4.5 -2t3.5 -3h2q7 -4 13 -9t10 -11h5l3 -5h-20l3 -5h20q2 -4 2 -5h-34q2 -4 4 -9.5t3 -10.5l3 -20h6v-10zM177 629h25q-4 4 -13 4q-6 0 -12 -4zM190 524h-6l3 10h-27v10l-28 -7l-9 -3h24q-10 -4 -13 -10h9 q-2 -4 -2 -6q0 -13 20 -13q23 0 29 19z" />
<glyph unicode="&#xab;" horiz-adv-x="632" d="M633 509h-64v-10h11v-15h40v-15h-12v-20h-45v-6v-7.5t-1 -6.5h15q-1 -12 -7 -20h-4q-4 -6 -8 -10h-23l-5 -5h-52l-20 -20h47l-10 -10h45l-10 -10h-2l-5 -5h-26l-5 -5h15l-15 -15l5 -5h-4l20 -20h-12l10 -10h-20l20 -20h34l20 -20h-14q3 -3 4 -5h11l3 -5h-54q2 -4 4 -10 h49q2 -6 2 -10h2v-5h44v-15h-6v-5h-17v-15h-3v-15h-51v-5h42v-10h-4v-20h3v-5h-5v-15h4v-15h-1v-10h-9v-15q0 -13 -13 -20h15q-6 -2 -10 -2l-2.5 0.5t-6.5 1.5h-14q-1 1 -5 3l-17 17l-16 15h9l-10 10h1l-16 15h-3l-16 15h5l-5 5h-3l-21 20h4l-10 10h-42l-5 5h51l-15 15h3 l-16 15h17l-5 5h5l-15 15h-44l-5 5h-2l-10 10h-51q1 -2 1 -4.5t1 -5.5h-16q0 -3 1 -5h34v-15h-34v-5h11v-15h17v-15h-26v-5h-4v-10h2v-40h-2v-15h-7v-10h9v-15q0 -13 -13 -20h-18l-5 3l-17 17l-16 15h-9l-11 10h8l-15 15h2l-16 15l-5 5l-21 20h-1l-11 10h4l-5 5h26l-16 15 h-17l-15 15h-11l-5 5h34l-15 15h-35l-5 5h15l-10 10h19l-10 10h-66l-6 5h17l-5 5h5l-15 14l-6 6h-3q-8 10 -8 20h-14v10h28v20h-4v5h5v15h8v5h-16v5h11v10h-1q0 4 2 10h34q3 9 12 16l4 4h-63l6 5h11l10 10h15l20 20h20l21 20h9l20 20h-34l16 15h18l16 15h42l10 10h14l15 15 h-72l10 10h1l10 10h-3l10 10h-6l6 5h15l5 5h-11l5 5h13l15 15l11 10h-36l7 7q5 4 9 4.5t5 0.5q13 0 20 -12h35q3 -4 3 -10v-15h-13v-5h11v-5h-15v-5h6v-10h3v-10h-1v-10h73v-15h-14v-10h-42v-15h-19v-15h34v-20h-9v-6v-7.5t-1 -6.5h-20q-1 -12 -7 -20h-15q-4 -6 -8 -10h-12 v-0.5t-1 -0.5l-4 -4h63l5 5h23l10 10h4l20 20h-15l21 20h44l21 20h13l15 15h-40l15 15h-11l10 10h64l15 15h-57l10 10h2l20 20h2l5 5h2l5 5h16l5 5h-16l16 15l10 10h-20l7 7q5 4 9 4.5t5 0.5q13 0 20 -12h20q2 -6 2 -10v-15h16v-5h-16v-5h-2v-5h-1v-20h-2v-10h58v-15z M251 244h95l-5 5h-11l-5 5h13l-20 20h-34q-7 10 -8 20h20v10h12v20h4v20h-15v5h26v5h2v10h-45q0 4 2 10h-33l-10 -10h1l-10 -10h-11l-5 -5h16l-5 -5h-8l-15 -15h-5l5 -5h4l20 -20h-28l10 -10h14l20 -20h3l20 -20h-4l3 -5h-17q3 -3 4 -5zM293 52q-1 0 -3.5 0.5t-5.5 1.5h18 q-6 -2 -9 -2z" />
<glyph unicode="&#xac;" horiz-adv-x="564" d="M514 164v-15h4v-15h-29q-3 -15 -19 -20h36q-2 -1 -7 -1h-116q-5 0 -8 1h-36q-16 5 -19 20h29q0 2 -0.5 3.5t-0.5 2.5v9h-4v15h-2v10h-7v5h-1v5h-9v5h16v10h2v15h1v20h1v6h-272q-16 0 -23 14h-3q-3 6 -3 13v7h-5v40h-7v20h-3v5h13v5h-2v5h2v20h1v10h-36v4q0 8 2 11h58 q7 16 24 16h415q18 0 25 -16h-58q3 -4 3 -11v-4h36v-10h-1v-20h-2v-5h2v-5h-13v-5h3v-20h7v-40h5v-20h2v-20h-1v-20h-1v-15h-2v-10h-16v-5h9v-5h1v-5h7v-10h2z" />
<glyph unicode="&#xad;" horiz-adv-x="600" d="M425 319h-27v-20h25v-15h13v-5h-74v-20h63v-20h17v-5h-22v-5q0 -8 -5 -15h-50q-2 -4 -4 -5h50q-2 -1 -4 -2.5t-4 -2.5h61q-6 -2 -10 -2h-325q-4 0 -10 2h-62q-4 2 -8 5h-49q-3 2 -5 5h50q-1 3 -2.5 7t-1.5 8v5h22v5h-17v20h-63v20h74v5h-13v15h-25v20h27v10h50v5h-73v10 h72v20h-102v10h12q2 14 13 20h34q5 4 14 4h325q9 0 14 -4h-34q11 -6 13 -20h-12v-10h102v-20h-72v-10h73v-5h-50v-10z" />
<glyph unicode="&#xae;" horiz-adv-x="792" d="M765 350v-1h20v-10h-70q-1 -2 -1 -5v-5h63l-2 -20h-44v-5h21l-3 -20h26q-1 -2 -1 -5h-18q0 -4 -2 -10h-14q0 -3 -1 -5h3q-1 -4 -2 -7.5t-2 -7.5h-12l-2 -5h4q-1 -5 -3 -10l-4 -10h28q-1 -5 -3.5 -10t-4.5 -10l-9 -20h-27l-9 -15h18q-5 -9 -13 -20h-19q-1 -2 -4 -5h-28 q-4 -5 -7.5 -10t-7.5 -10h13l-9 -10h25q-1 -2 -4 -5h4l-15 -15h-7l-16 -15h6q-4 -4 -9 -7.5t-10 -7.5l-13 -10h6l-8 -5h-12q-18 -12 -35 -20q-9 -5 -22 -10h5q-6 -3 -12.5 -5.5t-13.5 -4.5h-6q-8 -3 -17 -5.5t-18 -4.5h9q-6 -1 -12.5 -2.5t-13.5 -2.5h9q-13 -2 -26 -3 t-27 -1t-27.5 1t-26.5 3h-10q-7 1 -13.5 2.5t-12.5 2.5h-10q-9 2 -18 4.5t-17 5.5h6q-7 2 -13.5 4.5t-12.5 5.5h-5q-13 5 -22 10h1q-17 8 -35 20h13q-1 2 -3 3l-4 2h-7l-13 10q-4 4 -9 7.5t-10 7.5h-6l-16 15h6l-15 15h2q-1 2 -2 3l-2 2q-4 4 -8 10h-35q-4 5 -7.5 10 t-7.5 10h14q-1 2 -2 3l-2 2h20l-12 20q-2 4 -4 7.5t-4 7.5h19l-9 20h-34l-8 20h10l-6 20h6l-2 5h-2q-1 4 -1.5 7.5t-2.5 7.5h-36q0 3 -1 5h8q0 4 -2 10h8q-1 2 -1 5h13l-3 20h-7q-1 2 -1 5h4l-2 20h-31v10h-53l-1 10h25v1v10t1 9h91q1 2 1 5v5h-34l1 10h18q1 5 1.5 10 t1.5 10h-59q0 4 0.5 7.5t1.5 7.5h103q-1 -4 -2 -7.5t-2 -7.5h59l-2 -10t-1 -10h-18q-1 -2 -1 -5v-5h33v-10h-92q-1 -4 -1 -9v-10v-1h-25l1 -10h53v-5t1 -5h31q0 -5 0.5 -10t1.5 -10h-4v-5h8l2 -10l2 -10h-13q0 -1 0.5 -2t0.5 -3h-8l3 -10h-8l2 -5h36q1 -4 2.5 -7.5t2.5 -7.5 h2q2 -4 2 -5h-6q4 -10 10 -20h-11l6 -10l6 -10h34q6 -10 14 -20h-20q3 -4 6 -7.5t7 -7.5q9 -11 20 -20h-20l6 -5h-14l14 -10l14 -10h34q5 -3 9.5 -5.5t8.5 -4.5q2 -1 4.5 -2t5.5 -3h-2q19 -9 41 -15h-6q33 -9 68 -9q36 0 69 9h7q22 6 41 15h-3q2 2 4.5 3t5.5 2h-25 q8 4 17 10h-12l14 10t13 10h28l6 5h20q11 9 20 20h-44q-2 -1 -7 -1h-85q-6 0 -9 1h42q-13 3 -19 15h-42q0 1 -0.5 1.5t-0.5 1.5l-6 17l-7 20h4l-7 20h16l-2 5h-56v-5h-11v-20h-12v-20h59v-14q0 -4 -1 -6h-6q-3 -12 -14 -15h-28q-2 -1 -7 -1h-87q-5 0 -7 1h27q-11 3 -14 15h7 q-1 2 -1 6v14h-59v20h12v20h11v5h10v15h-40v5h34v10h10v5h-7v20h-20v5h17v20h2v10h-60v10h34v20h-55v10h74v10h-5v20h10v15h90v10h-65v15h33v10h-46v15h-78v15h-3q-2 -4 -4 -7.5t-4 -7.5h-49l-8 -15h53q-1 -2 -2 -5t-2 -5h-12l-6 -15h103q-3 -4 -3 -10h-103q1 2 1 5t1 5 h-102q1 4 2 7.5t2 7.5h12l3 10h-52q1 4 2.5 7.5t2.5 7.5h49l6 15h17l3 5h-2q2 4 4 7.5t3 7.5h-38q2 4 4 7.5t3 7.5h5l6 10h38q5 9 13 20h-48q3 4 6 7.5t5 7.5h27q8 11 17 20q1 2 2 3l2 2h7l15 15h19q5 5 11 10.5t11 9.5h-6q6 5 13 10.5t14 9.5h-67q8 5 16.5 10.5t17.5 9.5 h68q2 2 4.5 3t5.5 2h-16q3 2 6 3t5 2h3q3 2 6 3l6 2h-9q23 9 46 15h20q44 11 89 11q44 0 88 -11h-19q23 -6 46 -15h9l6 -2t5 -3h-3l11 -5h15q2 -1 5 -2t5 -3h-68q9 -4 17.5 -9.5t16.5 -10.5h66q7 -4 13.5 -9.5t13.5 -10.5h7q6 -4 11.5 -9.5l10.5 -10.5h-32l14 -15h13l2 -2 t2 -3h1q4 -4 8 -9.5t8 -10.5h9l11 -15h21q8 -11 13 -20h-1l6 -10h-36q2 -4 4.5 -7.5t3.5 -7.5h9q2 -4 4 -7.5t3 -7.5h-20q0 -1 2 -5h-1l6 -15h18q2 -4 3 -7.5t2 -7.5h-46l3 -10h-112q2 -4 2.5 -7.5t1.5 -7.5h126q-1 4 -2 7.5t-3 7.5h105l3 -15h-95q2 -6 2 -10h11 q1 -4 1.5 -7.5t0.5 -7.5h8q1 -5 1.5 -10t0.5 -10v-5t1 -5h15q1 -2 1 -5v-5h-6q0 -4 0.5 -9t0.5 -10zM192 489h161v5h-121v15h11v3q0 8 3 12h27q7 10 19 10h146q17 0 35 -2.5t34 -7.5h-27q20 -7 34 -15h-10q12 -7 20 -15h100l-10 15h-9l-12 15h35l-9 10h1q-10 12 -21 20h-21 q-4 4 -9.5 7.5t-10.5 7.5h-8q-8 5 -16.5 10.5t-17.5 9.5h-1q-2 2 -5 3l-6 2h-12q-22 9 -47 15h33q-27 6 -56 6t-56 -6h-19q-23 -6 -46 -15h-8q-2 -1 -5 -2t-5 -3q-19 -9 -34 -20h-27l-20 -15h47q-5 -4 -10.5 -9.5l-10.5 -10.5h-37l-9 -10h-5l-12 -15h39l-11 -15h2zM565 474 q2 -4 4.5 -7.5t3.5 -7.5h66q-1 4 -3 7.5t-4 7.5h-18q-1 4 -3.5 7.5t-4.5 7.5h-131l12 -15h78zM399 437v-3h50q-6 3 -13 3h-37zM364 409v-20h5v-8h37q12 0 18 8h43q6 8 6 20q0 9 -3 15h40q-2 3 -4.5 6t-5.5 4h-36v-10h-90v-15h-10zM685 339v10h-20v1q0 5 -0.5 10t-0.5 9h6 l-1 10h-16l-1 10h1l-2 10l-2 10h-7q-1 4 -2 7.5t-2 7.5h-30v-15v-10t-1 -10h-42q-1 -2 -1 -5t-1 -5h-74l-3 -10h56l-4 -10t-5 -10h-34q-3 -6 -7 -10h61q-2 -3 -4 -5.5t-4 -4.5h-2q-5 -6 -11.5 -11t-12.5 -9h-17l-4 -2l2 -3h20l8 -20h7l2 -5h-10l5 -10l2 -5h-27l6 -15h47 l3 -5h-17l9 -20h-4l9 -20q2 -3 3 -6t1 -8q0 -4 -1 -6h52q4 5 7.5 10t7.5 10q7 10 11 20h-28l9 20h-3l2 5h12q2 4 3 7.5t2 7.5h-2q0 2 0.5 3t0.5 2h14l3 10h17l2 5h-26q2 5 2.5 10t1.5 10h-21q0 2 0.5 3t0.5 2h43l3 20h-63v10h71zM402 264l-6 15h10l-1 3h-21v-3h-10v-10h-34 v-5h62z" />
<glyph unicode="&#xaf;" horiz-adv-x="473" d="M473 719h-40v-10h5v-20h-10v-20h-5v-20h-14v-20h24v-15h-5q0 -4 -4 -10h-29q-2 -3 -5 -5h37q-4 -4 -13 -4h-327q-8 0 -13 4h-38q-1 1 -2 2.5t-3 2.5h29q-2 4 -4 10h4v15h-24v20h14v20h5v20h10v20h-5v10h40v3q0 5 1 7h-51q5 16 22 16h327q17 0 22 -16h51q1 -2 1 -7v-3z " />
<glyph unicode="&#xb0;" horiz-adv-x="430" d="M429 559l3 -20h51v-5h-121q0 3 -1 5h-50q-3 9 -8 20h-68q-4 6 -8 11t-9 9h86q-1 2 -3 3l-4 2h-124q-1 -1 -3 -2t-4 -3h49q-11 -8 -17 -20h-42q-5 -11 -8 -20h-121l3 20h42l5 20h-48q0 2 0.5 3t0.5 2h76q2 2 2.5 5t1.5 5h74l4 10h-36l8 15h-147l3 5h133l12 15h56l14 15 h-96l17 15h83q5 4 11 8t12 7h-54q5 3 10 5.5t10 4.5h18q3 2 6 3t7 2h-63q31 11 66 11t66 -11h64l6 -2t7 -3h-18q10 -4 20 -10h54q6 -3 11.5 -7t11.5 -8h-83q5 -4 9 -7.5t8 -7.5h96l7.5 -7.5t6.5 -7.5h-57q3 -4 6 -7.5t5 -7.5h-133l3 -5h148q2 -4 4.5 -7.5t3.5 -7.5h36 q3 -5 5 -10h-167q-3 1 -6.5 1h-7.5h-6.5t-6.5 -1h22l4 -10h63q0 -1 0.5 -2t0.5 -3h-86q2 -5 3 -10l2 -10h69zM314 474q3 5 5.5 10t4.5 10h122l-2 -10l-2 -10h-72q-1 -4 -2 -7.5t-2 -7.5h61l-4 -10h15q-1 -4 -3 -7.5t-4 -7.5h-33l-2 -5h-8q-5 -12 -12 -20h-2q-7 -10 -17 -20 h7l-7.5 -7.5t-8.5 -7.5h12l-21 -15h-3q-10 -6 -18 -10h2q-32 -17 -70 -20h21q-5 -1 -10.5 -1h-10.5h-10t-10 1h-21q-36 3 -70 20h-1q-4 2 -8.5 4.5t-9.5 5.5h3q-5 4 -10 7.5t-10 7.5h-12l-16 15h-6q-9 10 -17 20h2q-7 8 -12 20h7l-3 5h33q-1 4 -3 7.5t-4 7.5h-47l-3 10h-16 q-1 4 -2 7.5t-3 7.5h-50l-2 10l-2 10h73q-1 2 -1 5h-11q-1 4 -1 7.5v7.5h-111v5v7.5t1 7.5h-15v5h121q0 -3 -1 -5h15q0 -4 -0.5 -7.5t-0.5 -7.5v-5h111q0 -4 0.5 -7.5t1.5 -7.5h11l2 -5h-73q3 -11 9 -20h51q5 -8 14 -15h16q4 -3 8.5 -5.5t8.5 -4.5h47q15 -6 32 -6q19 0 32 6 h-15q5 2 9 4.5t8 5.5h-61q7 5 14 15h72zM283 534v-20h100v-7.5t-1 -7.5h-64v-5h-122q0 2 0.5 3t0.5 2h64q1 4 1.5 7.5t0.5 7.5h-100v5v7.5t-1 7.5h121z" />
<glyph unicode="&#xb1;" horiz-adv-x="576" d="M41 389v20h-13v15h12v20h-3v10h2v20h4v16q0 3 1 4h-11l2 5h71q7 18 26 18h135v2h-51v15h-40v15h23v10h27v10h-5v20h-12v15h-8v15h-7v10h-15v10h16v14q0 4 1 6h-22q1 5 3.5 8.5t5.5 6.5h37q6 6 17 6h122q10 0 17 -6h-37q7 -5 10 -15h21q1 -2 1 -6v-14h-16v-10h15v-10h7 v-15h8v-15h12v-20h5v-10h-27v-10h-23v-15h40v-15h51v-2h133q18 0 25 -18h-71q0 -1 0.5 -2t0.5 -3h10v-20h-4v-20h-2v-10h3v-20h-12v-15h13v-20h-3v-8q0 -5 -1 -7h-3q-1 -4 -5 -10h6q-8 -10 -21 -10h-133v-5h3v-10h-5v-20h-2v-20h2v-10h1v-5h5v-5h-16v-20h54v-15h-10v-15h-47 v-15h5v-1q0 -9 -4 -14h8q-1 -2 -4 -5h3q-6 -8 -19 -8h-122q-11 0 -19 8h-3q-3 3 -4 5h-8q-4 8 -4 14v1h-5v15h47v15h10v15h-54v20h16v5h-5v5h-1v10h-2v20h2v20h5v10h-3v5h-135q-13 0 -21 10h-6q-4 6 -5 10h3l-1 7v8h3zM487 136v-2h60v-20h-32v-10h-66v-10h20v-20h15v-15h19 v-20h25v-10h-1v-2q0 -9 -7 -18h8q-4 -4 -6 -5h-4q-5 -4 -14 -4h-424q-8 0 -15 4h5q-2 1 -6 5h-8q-7 9 -7 18v2h1v10h-25v20h-19v15h-15v20h-20v10h66v10h32v20h-60v2q0 7 3 13h51q9 14 24 14h424q15 0 24 -14h-52q2 -3 3 -6t1 -7z" />
<glyph unicode="&#xb2;" horiz-adv-x="369" d="M339 359h62q-2 -3 -5 -5h-46q-5 -4 -13 -4h-277q-9 0 -14 4h46q-3 3 -4 5h-63l-2 5h27q0 2 -0.5 4t-0.5 4v2h-3v10h-21v10h-2v15h1v10h7q0 3 1 5h-16l1.5 3t1.5 2h22q2 3 5.5 7t7.5 8h-8l6 5h-5l1 1l12 9h-9q7 5 13.5 10.5t13.5 9.5h-2q7 5 13.5 10.5t13.5 9.5h-3 q8 5 14.5 10.5t12.5 9.5h24q5 4 10 7.5t9 7.5h-19q3 2 6 5l5 5h10q6 5 10.5 10.5t8.5 9.5h4q3 3 4 5h12q2 2 2.5 5t1.5 5h-67q-7 -10 -18 -10h-85q-14 0 -17 10h37q0 2 -0.5 3t-0.5 2h-25v5h-8v5h6v5t1 5h-19q1 5 2.5 10.5t2.5 9.5h17q2 4 4 7.5t4 7.5h-13q1 2 2 3l2 2h16 q4 5 8 10.5t9 9.5h-8q6 6 13 11t14 9h1q38 21 89 21q59 0 96 -21h-1q8 -4 14.5 -9t11.5 -11h8q8 -8 15 -20h-16q2 -4 2 -5h12q5 -7 6 -15h-17q2 -4 2.5 -9.5t1.5 -10.5h-3v-10h20v-5h-10v-5h-18q0 -3 -1 -5h41q-1 -2 -1 -5t-1 -5h-12l-2 -5h-4q-3 -11 -9 -20h-9l-6 -10h19 q-3 -4 -5.5 -7.5t-6.5 -7.5h-23q-4 -5 -9.5 -10t-10.5 -10h2q-5 -5 -11 -10t-13 -10h2q-7 -5 -13.5 -10t-14.5 -10h10l-9 -6h103q9 0 13 -4h6q2 -1 3 -2t2 -3h8q4 -5 4 -13v-2h-22v-5h16v-5h-7v-10h-1v-15h2v-10h21v-10h3v-2q0 -6 -1 -8h-28q0 -1 -2 -5zM169 606 q-4 0 -6.5 -0.5t-4.5 -1.5h22q-6 2 -11 2zM193 584v5h10v5h-20l-2 6t-5 4q-3 -1 -5.5 -4t-4.5 -6h-5l-3 -5h9q-1 0 -1 -0.5v-0.5q-1 -1 -1 -2t-1 -2h29z" />
<glyph unicode="&#xb3;" horiz-adv-x="365" d="M370 444h-24q-1 -2 -1 -5h2q-1 -5 -3 -10l-4 -10h3q-2 -4 -2 -5h-27l-3 -5h14q-5 -9 -16 -20h22q-4 -4 -9 -7.5t-10 -7.5h28l-8 -5h-67q-25 -14 -58 -20h14q-10 -2 -22 -3t-24 -1q-13 0 -25.5 1t-23.5 3h-14q-33 6 -57 20h66l-8 5h-28q-10 8 -18 15h-23l-8 10t-7 10h-14 l-3 5h27l-3 5h-3q-4 10 -6 20h-2q-1 1 -1 3v2h24q1 10 10 15h-14q6 2 7 2h91q6 0 10 -2h14q7 -3 12 -8.5t23 -5.5q25 0 30 14h-48q1 2 1 5v2q0 9 -6 13h21q-8 4 -25 4h-49q-17 0 -19 16h-5v35h1q0 9 6 15h-6l5 5h3l5 5h5l21 20h-2l5 5h8l8 8h-94q-4 0 -10 2h-8q-4 2 -7 5h2 q-5 7 -5 15v5h-6v20h-7v15h-2v5h22v20h-13q0 9 6 15h16q6 6 16 6h239q9 0 15 -6h-15q2 -3 4 -6.5t2 -8.5h13v-20h-22v-5h2v-15h7v-16q0 -3 -1 -4h6q0 -10 -12 -18l-3 -2h-2l-7 -5h8l-15 -10h-8l-7 -5h2l-23 -16q4 -1 7 -2t7 -2h-5q3 -1 6.5 -2t6.5 -3h-2q2 -1 5 -2t5 -3h6 q13 -7 23 -15h-1q5 -4 9 -9t7 -11q2 -4 4 -7.5t3 -7.5h5q2 -4 2.5 -9.5t1.5 -10.5h-21q1 -4 1 -8v-9v-3h48v-7.5t-1 -7.5z" />
<glyph unicode="&#xb4;" horiz-adv-x="450" d="M417 759h-8q5 -5 5 -14v-1h-16q0 -3 -1 -5h-15l-4 -6l-17 -14h7l-18 -15h7l-18 -15l-25 -20h1l-6 -5h1l-6 -5h-5l-24 -20h-2l-24 -20h4l-9 -7q-4 -4 -9 -7.5t-11 -5.5h-15q-4 -1 -9.5 -2.5t-12.5 -1.5h-137q-8 0 -12 4h16q-5 5 -5 12q0 4 2 8h-4q2 4 3 5l12 15h2l16 20h5 l5 5h-1l4 5h-1l16 20h1l12 15h-7l12 15h-7l16 20h16l4 5h15l2 2q7 9 13 13h8q10 6 24 6h186q10 0 14 -6z" />
<glyph unicode="&#xb5;" horiz-adv-x="699" d="M646 39h89v-5h-63v-7q0 -7 -3 -13h-26q-4 -7 -9 -10h-11q-5 -4 -15 -4h-175q-9 0 -14 4h11q-5 3 -9 10h25q-3 5 -3 11q-3 -2 -6.5 -3.5t-6.5 -3.5q-2 -1 -4.5 -2t-4.5 -2h-61q-7 -3 -15.5 -5.5t-17.5 -4.5h37l-12 -2l-12 -2v-6h-143v-10h28v-5h129v-10h-24v-20h-72v-5h15 v-20h28v-10h11v-10h11v-15h63v-15h-19v-5h-101v-15h174v-5h-143v-10h88v-15h-98q0 -1 -0.5 -2t-0.5 -3h29q-3 -10 -13 -15h-14q-4 -3 -12 -3h-196q-7 0 -12 3h13q-10 5 -13 15h-29l-2 5h99q-1 1 -1 4v11h-88v10h143v5h-174v15h101v5h19v15h-63v15h-11v10h-11v10h-28v20h-15 v5h72v20h24v10h-129v5h-28v10h143v10h-37v10h62v20h-78v5h6v20h23v15h-32v10h52v5h-48v15h94v15h-34v5h-67v20h19v25h-5v15h-16v20h24v10h-9v20h18v5h51v20h-64v15h4v5h1v20h1v5h30v15h-8v20h-24v10h-15v10h11v15h2v20h1v20h1v20h-4v5h-6v5h16v20h-18v5h12v20h4v4q0 4 1 6h4 q0 1 2 5h-19q7 16 25 16h196q17 0 24 -16h19l2 -5h-5q1 -2 1 -6v-4h-4v-20h-12v-5h18v-20h-16v-5h6v-5h4v-20h-1v-20h-1v-20h-2v-15h-11v-10h15v-10h24v-20h8v-15h-30v-5h-1v-20h-1v-5h-4v-15h64v-20h-51v-5h-18v-20h10q0 -7 1 -10h-24q3 -13 10 -20h16q14 -15 38 -15h5 q25 0 38 15h1q6 7 9 20h13q1 3 1 10h20q1 2 1 5v5v10h-41v5h12v20h-16v15h21v5h-4v20h-1v5h18v15h-24v20h6v10h-20v10h10v15h8v20h4v20h-1v20h-23v5h22v5h22v20h-15v5h-13v20h8v4q0 4 1 6h-11q0 2 0.5 3t0.5 2h20q7 16 25 16h190q18 0 25 -16h-20l2 -5h10q1 -2 1 -6v-4h-8 v-20h13v-5h15v-20h-22v-5h-22v-5h23v-20h1v-20h-4v-20h-8v-15h-10v-10h20v-10h-6v-20h24v-15h-18v-5h1v-20h4v-5h-21v-15h16v-20h-12v-5h41v-20h-20v-10h-12v-20h-1v-40h-19v-20h67v-5h34v-15h-94v-15h48v-5h-52v-10h32v-15h-14v-20zM506 34v5h-89v20h-9q-8 -12 -18 -20h-6 l-6 -5h128z" />
<glyph unicode="&#xb6;" horiz-adv-x="709" d="M669 424h-29v-10h9v-10h18v-5h12v-20h-32v-10h5v-10h42v-20h-28v-25h-27v-20h3v-20h7v-20h23v-15h24v-20h-166v-20h-3v-10h130v-5h-30v-10h17v-15h18v-15h-38v-20h25v-20h-16v-5h20v-15h-39v-15h45v-10h-28v-15h-32v-5h46v-20h78v-5h-77v-20h3v-5h-37v-15h55v-15h-14v-10 h20v-15h-24v-10h-3q-2 -14 -12 -20h7q-5 -4 -14 -4h-121q-9 0 -14 4h-8q-10 6 -12 20h2v10h24v15h-20v10h14v15h-55v15h37v5h-3v20h77v5h-78v20h-7v-20h-40v-5h-15v-20h-5v-5h24v-15h-39v-15h20v-10h-4v-15h2v-10h20q-2 -14 -13 -20h-112q-5 -4 -14 -4h-121q-10 0 -15 4h113 q-11 6 -13 20h-19q-1 1 -1 3v7h-2v15h4v10h-20v15h39v15h-24v5h5v20h15v5h40v20h-63v5h-14v15h-12v10h-18v15h-28v15h-11v5h65v20h15v20h16v15h-28v15h-5v10h56v5h-63v10h60v20h-152v20h18v15h91v20h38v20h-42v12q-15 0 -28.5 2t-27.5 6h27q-24 8 -46 20h-58q-1 2 -3.5 3 t-4.5 2h64q-15 10 -25 20h7l-10 10h-26q-4 4 -8 10h4q-8 10 -14 20h-20l-3 5h25l-6 10h-22l-4 10h-14l-2 5h33l-2 5h98l-6 20h-124l-3 15h9l-1 10h-19q-1 2 -1 5h23q-1 5 -1 10v9v1h-24v10t1 10h28q1 2 1 5t1 5h1l2 10l2 10h-4q2 4 3 7.5t2 7.5h2q0 2 0.5 3t0.5 2q3 11 9 20 q2 5 5 10h6l6 10h17q2 2 4 5t4 5h-6l13 15h-52q2 2 4.5 5t5.5 5h-103l12 10h57q13 11 32 20h-195q20 10 42.5 15.5t46.5 5.5h402q23 0 26 -21h195v-20h-56v-10h102v-10h53v-15h5v-10h-17v-10h-6v-10h1v-25h-1v-15h3v-20h-4v-10h-7v-20h-2v-20h25v-15h-39v-15h24v-20h94v-5 h-75v-5zM381 469v-15h70v15h39v15h-25v20h2v20h7v10h4v16h-79v-16h-1v-10h-28v-20h24v-20h-23v-5h19v-10h-9zM474 414h-9v10h29v5h75v5h-162v-5h-33v-5h13v-10h22v-10h-24v-5h19v-20h-4v-10h26v-10h-8v-20h-63v-5h58v-20h-27v-20h42v-20h-38v-20h-91v-15h-18v-20h240v20h-24 v15h-23v20h-7v20h-3v20h27v25h28v20h-42v10h-5v10h32v20h-12v5h-18v10zM482 184v5h-46v-5h-56v-10h5v-15h28v-15h-16v-20h-15v-20h-65v-5h11v-15h28v-15h18v-10h12v-15h14v-5h24v5h32v15h28v10h-45v15h39v15h-20v5h16v20h-25v20h38v15h-18v15h-17v10h30z" />
<glyph unicode="&#xb7;" horiz-adv-x="330" d="M306 324v-4q0 -3 -0.5 -5.5t-0.5 -5.5h31q0 -4 -0.5 -7.5t-1.5 -7.5h-31l-3 -10h14l-3 -10h6l-6 -15h10q-1 -4 -3.5 -7.5t-4.5 -7.5h-67l-3 -5q-4 -6 -8 -10h27l-5 -5h-27l-5 -5h30q-6 -6 -12.5 -10.5t-14.5 -9.5h1q-16 -10 -37 -15h8q-15 -4 -33 -4q-20 0 -33 4h-8 q-21 5 -37 15h-1q-7 5 -14 9.5t-13 10.5h-29q-1 2 -2.5 3t-2.5 2h27l-5 5h-26q-2 2 -4 5t-4 5h-1l-3 5h67l-9 15h-10q-1 4 -3 7.5t-3 7.5h-7l-3 10h-13l-3 10h32q-1 4 -1.5 7.5t-0.5 7.5h-31v15h4l1 10h39q0 5 1 10l2 10h-92q2 5 3.5 10.5t3.5 9.5h109q2 2 3 5t2 5h-37 q3 8 9 15h-35q4 5 8 10.5t8 9.5h41q2 3 5 5.5t6 4.5h-18q8 6 16 11t18 9h94q7 4 14 5h-7q20 6 41 6t40 -6h7q6 -1 13 -5h-94q17 -7 33 -20h18q3 -2 6 -4.5t5 -5.5h-40q10 -9 17 -20h35l9 -15h37l4 -10h-109q2 -4 4 -9.5t3 -10.5h92q3 -10 3 -20h-38v-10h-4z" />
<glyph unicode="&#xb8;" horiz-adv-x="282" d="M225 -161h13q-1 -2 -1.5 -5t-2.5 -5h-16l-6 -10t-8 -10h-1q-3 -3 -6 -5.5t-6 -4.5h3q-13 -10 -32 -15h-18q-13 -4 -32 -4t-34 4h18q-10 2 -19 6.5t-16 8.5h-3q-7 5 -10 10h1q-8 12 0 20h16l2 2l10 8h-13l11 10q2 2 4.5 3t3.5 2h11q6 -1 14.5 -4.5t22.5 -3.5t22 8h-35 q3 1 9 1q4 4 5 9h24v6q0 6 -1 9h-23q-3 6 -8 10h4q-8 5 -19 5q-7 0 -14.5 -1.5t-15.5 -3.5h5q-9 -1 -16 0h-4q-6 2 -9 5l-15 15h-8l-6 6l-2 2l-2 2h-29q-4 6 -4 10h14v5h28q1 4 6 14v1h19l7 15h29l6 15h-32l7 15h28l5 10h40l9 20h-37l1 3h67l-1 -3h37l-10 -20h-41l-5 -10 h-28l-8 -15h32l-8 -15h-28l-5 -9q6 2 16.5 3.5t13.5 1.5q24 0 43 -11h-20q11 -6 18 -15h-28q1 -2 4 -5h-14q2 -2 3.5 -4.5t2.5 -5.5h29q2 -2 2.5 -5t1.5 -5h9q2 -4 3 -9.5t2 -10.5h-4l1 -10h23v-15h-23q-1 -2 -1 -5v-5h26q-1 -4 -1.5 -7.5t-2.5 -7.5z" />
<glyph unicode="&#xb9;" horiz-adv-x="325" d="M248 599h27v-15h-7v-20h-11v-25h1v-15h10v-30h-4v-10h-4v-40h1v-20h-3v-20h7v-15h10v-15h-1v-2q0 -12 -9 -18h-33q-5 -4 -14 -4h-91q-9 0 -13 4h34q-9 6 -9 18v2h1v15h-10v15h-7v20h3v20h-1v40h4v10h4v30h-10v15h-1v15l-20 -15h1l-19 -15h6l-5 -4q-7 -5 -16 -4t-15 8h-6 v0.5t-1 0.5l-11 14l-20 25h12l-9 11q-2 3 -4 9h7q-2 5 0 10l2 5h-28q3 4 7 7l10 8h27l19 15h-6l25 20h-12l26 20h2l6 5h4l20 15h3l5 4l1 1h-5q11 6 22 6h88q10 0 16 -6h4q2 -1 4 -5h-3q3 -4 3 -11v-4h-4v-5h-2v-20h12v-20h6v-15h-26v-15z" />
<glyph unicode="&#xba;" horiz-adv-x="350" d="M321 544h68q0 -1 -0.5 -2t-0.5 -2v-1h-1v-5h-25q-1 -2 -1 -5h-35q-1 -2 -1 -5h25q0 -3 -1 -5h-59q-2 -6 -2 -10h-1q-3 -9 -8 -20h24q-2 -4 -4.5 -7.5t-5.5 -7.5h10l-2 -2t-2 -3h-40l-2 -2l-3 -3h39q-7 -6 -14.5 -11t-16.5 -9h-45q-3 -1 -6.5 -2t-6.5 -3h55 q-29 -10 -73 -10t-73 10h-55q-4 2 -7 3l-6 2h45q-19 8 -31 20h-38q-1 2 -2.5 3t-2.5 2h39q-3 3 -4 5h-10q-3 4 -5.5 7.5t-4.5 7.5h-24q-5 11 -8 20h1l-3 10h55q0 3 -1 5h-11q-1 2 -1 5h-12q0 3 -1 5h-21v5h76v1q0 1 -0.5 2t-0.5 2h-63q-1 4 -1 9v11h9v10h-5v15h6q0 2 0.5 3 t0.5 2q0 4 0.5 7.5t0.5 7.5t2 10h15l3 10h-54q2 5 4.5 10.5t5.5 9.5h24l7 10h4q1 2 2 3l2 2h11l5 5h4q15 13 30 20h-11q17 8 38.5 12t46.5 4q26 0 47.5 -4t38.5 -12h11q9 -4 16.5 -9t14.5 -11h-4l5 -5h-11l5 -5h-4q2 -2 4 -5t3 -5h-24q3 -4 5.5 -9.5t4.5 -10.5h54l3 -10h-30 q1 -2 1 -5t1 -5h32q1 -4 1 -7.5t1 -7.5v-5h-10q1 -3 1 -6.5v-8.5h-9v-10h-2q0 -6 -0.5 -11t-0.5 -9zM205 619q-4 4 -14 4t-15 -4h29zM142 564v-10.5t1 -8.5v-1h52v1q0 3 0.5 8.5t0.5 10.5h2v10h9q0 5 -0.5 8.5t-0.5 6.5h10q-1 6 -1 11t-2 9h-32q-2 7 -6 10h-14q-4 -3 -6 -10 q-1 -4 -1.5 -9t-0.5 -11h-7v-15h5v-10h-9zM261 539h1v5h-55v-5h-76q0 -1 0.5 -2t0.5 -3h21q0 -1 0.5 -2t0.5 -3h12q0 -3 1 -5h12q0 -3 2 -5h40q2 2 2 5h-25q0 3 1 5h35q0 2 0.5 3t0.5 2h25q1 2 1 5zM162 519h-36q4 -8 18 -8q13 0 18 8z" />
<glyph unicode="&#xbb;" horiz-adv-x="632" d="M660 379q2 -4 4 -10h-124q0 -3 1 -5h15v-10h55v-15h9v-5h23v-10h-99v-5h48v-5h20v-5h-5v-10h2v-3q0 -3 -0.5 -6t-1.5 -6h2q-5 -11 -12 -16l-4 -4h-19l-6 -5h20l-5 -5h-7l-16 -15h-1l-15 -15h52l-6 -5h-121l-21 -20h125l-16 -15h-49l-10 -10h2l-16 -15h31l-16 -15h-16 l-10 -10h-14l-10 -10h9l-6 -5h-1l-21 -20h-12l-15 -15h28l-15 -15h-24l-12 -12l-5 -3h-1q-3 -1 -5.5 -1.5t-3.5 -0.5q-3 0 -9 2h1q-11 5 -12 15h23v15h-29v15h12v20h2v5h-9v10h14v10h16v15h-31v15h-2v10h49v15h-124v20h122v5h-52q1 5 1.5 8.5t1.5 6.5h1q2 5 4 8t5 7h7l5 5 h-19v0.5t1 0.5l4 4h19l20 20h-2l15 15h-2l10 10h5l5 5h-20l5 5h-48l5 5h99l5 5l-5 5h-23l-5 5h-9l-15 15h-83v-15h-100v-5h2v-10h99v-5h-40v-5h26v-5h13v-10h6v-3v-6t-2 -6h-16q-3 -9 -12 -16l-4 -4h11l-5 -5h-2l-5 -5h6l-15 -15h-35l-16 -15h37l-5 -5h-103l-20 -20h11 l-16 -15h81l-11 -10h29l-16 -15h-23l-15 -15h7l-10 -10h-29l-10 -10h-25l-5 -5h18l-20 -20h37l-16 -15h-11l-16 -15h-11l-13 -12q-1 -1 -5 -3h-18q-11 5 -12 15h12q-1 2 -1 5v10h11v15h-36v20h-19v5h25v10h29v10h-8v15h23v15h-28v10h-80v15h-11v20h102v5h-36q0 9 3 15h35 q2 5 4 8t5 7h-6q1 2 2 3l2 2h3v0.5t1 0.5l4 4h-12l20 20h16l15 15h-6l10 10h-13l5 5h-26l5 5h40l5 5h-99l5 5l-5 5h-2l-5 5h100l-15 15h50l-10 10h38l-5 5h14l-10 10h-130l-10 10h93l-5 5h-84l-5 5h-11q-4 4 -6.5 7.5t-4.5 7.5h68q-3 4 -5 15h-47q0 3 -0.5 6.5t-0.5 7.5v1h9 v10h-2v20h-3v20h-4v20h25v20h18v10h-26v5h10v5h-27v10h8v20q0 5 2 8.5t4 6.5h-10q7 7 16 7q1 0 5.5 -0.5t8.5 -4.5l2 -2h11l15 -15l21 -20h-9l10 -10h27l5 -5h-10l5 -5h27l10 -10h-18l20 -20h-25l5 -5h1l15 -15h4l21 -20h3l21 -20h2l10 -10h-9l15 -15h47l16 -15h-68l15 -15 h11l5 -5h96l-5 5h-11q-7 8 -12 15h-13q-4 8 -5 15h14v15h-6v30h1v20h-2v15h6v5h18v20h-9v10h-10v5h-1v5h-4v10h-6v20q0 9 6 15h7q7 7 16 7q1 0 5.5 -0.5t8.5 -4.5l2 -2h-7l15 -15l21 -20h6l10 -10h4l5 -5h1l5 -5h11l10 -10h9l20 -20h-18l5 -5h-6l16 -15h2l20 -20h-1l21 -20 l10 -10h6l15 -15h-14l16 -15h13l15 -15h12l5 -5h-53l5 -5h101l4.5 -4.5t3.5 -5.5h-10zM425 369h20l-10 10h10l-10 10h-153q3 -2 5 -4.5t4 -5.5h130q1 -2 2 -4.5t2 -5.5zM21 52q-3 0 -9 2h18q-3 -1 -5.5 -1.5t-3.5 -0.5z" />
<glyph unicode="&#xbc;" horiz-adv-x="905" d="M248 599h27v-15h-7v-20h-11v-25h1v-15h10v-30h-4v-10h-4v-40h1v-20h-3v-20h7v-15h10v-15h-1v-2q0 -12 -9 -18h-33q-5 -4 -14 -4h-91q-9 0 -13 4h34q-9 6 -9 18v2h1v15h-10v15h-7v20h3v20h-1v40h4v10h4v30h-10v15h-1v15l-20 -15h1l-19 -15h6l-5 -4q-7 -5 -16 -4t-15 8h-6 v0.5t-1 0.5l-11 14l-20 25h12l-9 11q-2 3 -4 9h7q-2 5 0 10l2 5h-28q3 4 7 7l10 8h27l19 15h-6l25 20h-12l26 20h2l6 5h4l20 15h3l5 4l1 1h-5q11 6 22 6h88q10 0 16 -6h4q2 -1 4 -5h-3q3 -4 3 -11v-4h-4v-5h-2v-20h12v-20h6v-15h-26v-15zM823 679q0 -6 -4 -10l-15 -20h1 l-4 -5h-64l-4 -5h-26l-4 -5h34l-8 -10h-56l-15 -20h33l-16 -20h4l-15 -20h-6l-11 -15h-5l-7 -10h2l-15 -20h14l-15 -20h1l-11 -15h-12l-4 -5h10l-16 -20h-12l-7 -10h-1l-7 -10h-6l-16 -20h25l-15 -20h-43l-16 -20h58l-8 -10h-15l-16 -20h56l-15 -20h-111l-4 -5h68l-4 -5h-68 l-4 -5h110l-8 -10h-27l-16 -20h-42l-3 -5h11l-4 -5h-112l-15 -20h99l-16 -20h11l-12 -15h22l-12 -15h-30l-11 -15h4l-4 -5l-7 -10h-6l-4 -5h-31l-8 -10h15l-8 -10h-48l-15 -20h17l-3 -5h45l-11 -15h1l-8 -10h7l-4 -5l-15 -20h5l-15 -20h-1l-7 -10h-9l-4 -5h-14l-12 -15h6 l-4 -5q-8 -11 -16 -15h-5q-7 -4 -20 -4h-74q-10 0 -15 4h5q-9 5 -9 15v5h-5l3 7l7 8h14l4 5h9l7 10h1l15 20h-5l15 20l4 5h-7l7 10l11 15h-46l4 5h-17l15 20h48l8 10h-15l8 10h31l4 5h5l12 15h-4l11 15h30l12 15h-22l11 15h-10l16 20h-100l16 20h112l4 5h-12l4 5h42l16 20 h27l7 10h-109l4 5h68l4 5h-68l4 5h111l15 20h-56l15 20h16l8 10h-58l15 20h44l15 20h-25l15 20h7l7 10h1l7 10h12l15 20h-9l3 5h13l11 15h-2l16 20h-14l15 20h-2l7 10h5l11 15h6l15 20h-4l15 20h-32l15 20h56l8 10h-34l4 5h26l4 5h64l4 5h-1l15 20l8 10h-81l1 2q2 2 4 4.5 t3 3.5h-89q11 11 29 11h74q16 0 22 -11h89q2 -6 2 -9v-1h81zM917 59q-1 -1 -1 -2.5t-2 -2.5h3q-5 -8 -17 -8h-35v-2h-61v-10h-18v-10h92v-2q0 -12 -9 -18h11q-5 -4 -14 -4h-86q-9 0 -13 4h-10q-9 6 -9 18v2h-92v10h18v10h61v2h-151q-12 0 -18 8h-3q-1 1 -3 5h-20q-2 3 -2 9 v6h-1v20h-11v10h-16v10h20v15h-5v10h-7q1 3 2.5 8t5.5 12h18q2 2 3 4t2 3l2 3h-12l16 20h9l7 10h-21l15 20h-11l12 15h-26l7 10h76l11 15h-21l8 10h13l8 10h1l12 15h-98l8 10h-38l12 15h104l4 5h-6l6 8q2 3 6 7h32q11 11 24 11h111q14 0 20 -11h-33q3 -4 3 -11v-4h6v-5h-104 v-15h37v-10h98v-15h-1v-10h-14v-10h21v-15h-75v-10h26v-15h-31v-20h79v-10h-26v-20h18v-10h-23v-2h35q19 0 22 -18h7v-10h5v-15h-20v-10h16v-10h11v-20h1v-6q0 -3 -2 -9h21zM661 169h12l-7 -10h-19l-5 -7h52v7h23v10h-18v20h26v10h-33l-7 -10h-9z" />
<glyph unicode="&#xbd;" horiz-adv-x="875" d="M248 599h27v-15h-7v-20h-11v-25h1v-15h10v-30h-4v-10h-4v-40h1v-20h-3v-20h7v-15h10v-15h-1v-2q0 -12 -9 -18h-33q-5 -4 -14 -4h-91q-9 0 -13 4h34q-9 6 -9 18v2h1v15h-10v15h-7v20h3v20h-1v40h4v10h4v30h-10v15h-1v15l-20 -15h1l-19 -15h6l-5 -4q-7 -5 -16 -4t-15 8h-6 v0.5t-1 0.5l-11 14l-20 25h12l-9 11q-2 3 -4 9h7q-2 5 0 10l2 5h-28q3 4 7 7l10 8h27l19 15h-6l25 20h-12l26 20h2l6 5h4l20 15h3l5 4l1 1h-5q11 6 22 6h88q10 0 16 -6h4q2 -1 4 -5h-3q3 -4 3 -11v-4h-4v-5h-2v-20h12v-20h6v-15h-26v-15zM823 679q0 -6 -4 -10l-15 -20h1 l-4 -5h-64l-4 -5h-26l-4 -5h34l-8 -10h-56l-15 -20h33l-16 -20h4l-15 -20h-6l-11 -15h-5l-7 -10h2l-15 -20h14l-15 -20h1l-11 -15h-12l-4 -5h10l-16 -20h-12l-7 -10h-1l-7 -10h-6l-16 -20h25l-15 -20h-43l-16 -20h58l-8 -10h-15l-16 -20h56l-15 -20h-111l-4 -5h68l-4 -5h-68 l-4 -5h110l-8 -10h-27l-16 -20h-42l-3 -5h11l-4 -5h-112l-15 -20h99l-16 -20h11l-12 -15h22l-12 -15h-30l-11 -15h4l-4 -5l-7 -10h-6l-4 -5h-31l-8 -10h15l-8 -10h-48l-15 -20h17l-3 -5h45l-11 -15h1l-8 -10h7l-4 -5l-15 -20h5l-15 -20h-1l-7 -10h-9l-4 -5h-14l-12 -15h6 l-4 -5q-8 -11 -16 -15h-5q-7 -4 -20 -4h-74q-10 0 -15 4h5q-9 5 -9 15v5h-5l3 7l7 8h14l4 5h9l7 10h1l15 20h-5l15 20l4 5h-7l7 10l11 15h-46l4 5h-17l15 20h48l8 10h-15l8 10h31l4 5h5l12 15h-4l11 15h30l12 15h-22l11 15h-10l16 20h-100l16 20h112l4 5h-12l4 5h42l16 20 h27l7 10h-109l4 5h68l4 5h-68l4 5h111l15 20h-56l15 20h16l8 10h-58l15 20h44l15 20h-25l15 20h7l7 10h1l7 10h12l15 20h-9l3 5h13l11 15h-2l16 20h-14l15 20h-2l7 10h5l11 15h6l15 20h-4l15 20h-32l15 20h56l8 10h-34l4 5h26l4 5h64l4 5h-1l15 20l8 10h-81l1 2q2 2 4 4.5 t3 3.5h-89q11 11 29 11h74q16 0 22 -11h89q2 -6 2 -9v-1h81zM845 9h62q-2 -3 -5 -5h-46q-5 -4 -13 -4h-277q-9 0 -14 4h46q-3 3 -4 5h-63l-2 5h27q0 2 -0.5 4t-0.5 4v2h-3v10h-21v10h-2v15h1v10h7q0 3 1 5h-16l1.5 3t1.5 2h22q2 3 5.5 7t7.5 8h-8l6 5h-5l1 1l12 9h-9 q7 5 13.5 10.5t13.5 9.5h-2q7 5 13.5 10.5t13.5 9.5h-3q8 5 14.5 10.5t12.5 9.5h24q5 4 10 7.5t9 7.5h-19q3 2 6 5l5 5h10q6 5 10.5 10.5t8.5 9.5h4q3 3 4 5h12q2 2 2.5 5t1.5 5h-67q-7 -10 -18 -10h-85q-14 0 -17 10h37q0 2 -0.5 3t-0.5 2h-25v5h-8v5h6v5t1 5h-19 q1 5 2.5 10.5t2.5 9.5h17q2 4 4 7.5t4 7.5h-13q1 2 2 3l2 2h16q4 5 8 10.5t9 9.5h-8q6 6 13 11t14 9h1q38 21 89 21q59 0 96 -21h-1q8 -4 14.5 -9t11.5 -11h8q8 -8 15 -20h-16q2 -4 2 -5h12q5 -7 6 -15h-17q2 -4 2.5 -9.5t1.5 -10.5h-3v-10h20v-5h-10v-5h-18q0 -3 -1 -5h41 q-1 -2 -1 -5t-1 -5h-12l-2 -5h-4q-3 -11 -9 -20h-9l-6 -10h19q-3 -4 -5.5 -7.5t-6.5 -7.5h-23q-4 -5 -9.5 -10t-10.5 -10h2q-5 -5 -11 -10t-13 -10h2q-7 -5 -13.5 -10t-14.5 -10h10l-9 -6h103q9 0 13 -4h6q2 -1 3 -2t2 -3h8q4 -5 4 -13v-2h-22v-5h16v-5h-7v-10h-1v-15h2v-10 h21v-10h3v-2q0 -6 -1 -8h-28q0 -1 -2 -5zM675 256q-4 0 -6.5 -0.5t-4.5 -1.5h22q-6 2 -11 2zM699 234v5h10v5h-20l-2 6t-5 4q-3 -1 -5.5 -4t-4.5 -6h-5l-3 -5h9q-1 0 -1 -0.5v-0.5q-1 -1 -1 -2t-1 -2h29z" />
</font>
</defs>
</svg>
